<svg width="413" height="94" viewBox="0 0 413 94" fill="none" xmlns="http://www.w3.org/2000/svg">
<path d="M5.804 4.312V9.688C5.804 9.856 5.87867 9.94 6.028 9.94H7.372C8.67867 9.94 9.67733 9.66933 10.368 9.128C11.0587 8.568 11.404 7.79333 11.404 6.804C11.404 4.86267 10.1253 3.892 7.568 3.892C6.98933 3.892 6.48533 3.92933 6.056 4.004C5.888 4.04133 5.804 4.144 5.804 4.312ZM2.724 21C2.29467 21 1.92133 20.8413 1.604 20.524C1.28667 20.2067 1.128 19.8333 1.128 19.404V2.296C1.128 1.82933 1.27733 1.428 1.576 1.092C1.89333 0.755999 2.276 0.569333 2.724 0.532C4.38533 0.364 6.09333 0.28 7.848 0.28C10.648 0.28 12.7293 0.812 14.092 1.876C15.4733 2.92133 16.164 4.41467 16.164 6.356C16.164 7.60667 15.8 8.736 15.072 9.744C14.344 10.7333 13.392 11.4427 12.216 11.872C12.1973 11.872 12.188 11.8813 12.188 11.9C12.188 11.9373 12.2067 11.956 12.244 11.956C13.1587 12.4787 13.9333 13.58 14.568 15.26L16.164 19.516C16.2947 19.8707 16.248 20.2067 16.024 20.524C15.8 20.8413 15.5013 21 15.128 21H13.42C12.9347 21 12.496 20.86 12.104 20.58C11.712 20.3 11.4413 19.936 11.292 19.488L9.892 15.456C9.63067 14.672 9.31333 14.14 8.94 13.86C8.56667 13.58 7.988 13.44 7.204 13.44H6.028C5.87867 13.44 5.804 13.524 5.804 13.692V19.404C5.804 19.8333 5.64533 20.2067 5.328 20.524C5.01067 20.8413 4.63733 21 4.208 21H2.724ZM24.8108 9.212C23.9708 9.212 23.3361 9.436 22.9068 9.884C22.4774 10.3133 22.2068 11.06 22.0948 12.124C22.0948 12.2733 22.1601 12.348 22.2908 12.348H27.0228C27.1908 12.348 27.2748 12.264 27.2748 12.096C27.2001 10.1733 26.3788 9.212 24.8108 9.212ZM25.5108 21.28C22.9721 21.28 21.0121 20.636 19.6308 19.348C18.2681 18.06 17.5868 16.184 17.5868 13.72C17.5868 11.2747 18.1934 9.408 19.4068 8.12C20.6388 6.81333 22.4121 6.16 24.7268 6.16C29.1694 6.16 31.4281 8.58667 31.5027 13.44C31.5027 13.888 31.3254 14.2707 30.9708 14.588C30.6348 14.8867 30.2428 15.036 29.7948 15.036H22.3188C22.1321 15.036 22.0574 15.12 22.0948 15.288C22.2441 16.3147 22.6361 17.052 23.2708 17.5C23.9241 17.9293 24.8948 18.144 26.1828 18.144C27.0228 18.144 27.9281 18.0227 28.8988 17.78C29.2908 17.6867 29.6361 17.7613 29.9348 18.004C30.2521 18.2467 30.4108 18.564 30.4108 18.956V19.012C30.4108 19.4787 30.2614 19.908 29.9628 20.3C29.6828 20.6733 29.3188 20.8973 28.8708 20.972C27.7881 21.1773 26.6681 21.28 25.5108 21.28ZM39.5794 15.4C37.5634 15.0267 36.1168 14.448 35.2394 13.664C34.3808 12.88 33.9514 11.844 33.9514 10.556C33.9514 9.17467 34.4648 8.10133 35.4914 7.336C36.5368 6.552 38.1048 6.16 40.1954 6.16C41.4274 6.16 42.6874 6.26267 43.9754 6.468C44.4234 6.54267 44.7874 6.75733 45.0674 7.112C45.3661 7.46667 45.5154 7.87733 45.5154 8.344V8.484C45.5154 8.876 45.3568 9.19333 45.0394 9.436C44.7408 9.67867 44.3954 9.76267 44.0034 9.688C42.7901 9.44533 41.6701 9.324 40.6434 9.324C39.8781 9.324 39.3368 9.41733 39.0194 9.604C38.7208 9.79067 38.5714 10.0707 38.5714 10.444C38.5714 11.1533 39.1314 11.62 40.2514 11.844C42.3794 12.1987 43.8634 12.7587 44.7034 13.524C45.5621 14.2893 45.9914 15.4 45.9914 16.856C45.9914 18.256 45.4688 19.348 44.4234 20.132C43.3781 20.8973 41.8568 21.28 39.8594 21.28C38.4034 21.28 37.0221 21.14 35.7154 20.86C35.2674 20.7667 34.8941 20.5333 34.5954 20.16C34.3154 19.768 34.1754 19.3293 34.1754 18.844V18.62C34.1754 18.228 34.3341 17.9293 34.6514 17.724C34.9688 17.5 35.3234 17.4347 35.7154 17.528C36.9288 17.8453 38.1234 18.004 39.2994 18.004C40.6808 18.004 41.3714 17.6027 41.3714 16.8C41.3714 16.4267 41.2408 16.1373 40.9794 15.932C40.7368 15.7267 40.2701 15.5493 39.5794 15.4ZM53.6978 11.984V15.456C53.6978 16.072 53.9778 16.6413 54.5378 17.164C55.1164 17.668 55.7698 17.92 56.4978 17.92C57.3564 17.92 58.0378 17.5747 58.5418 16.884C59.0458 16.1747 59.2978 15.12 59.2978 13.72C59.2978 10.92 58.3644 9.52 56.4978 9.52C55.7698 9.52 55.1164 9.78133 54.5378 10.304C53.9778 10.808 53.6978 11.368 53.6978 11.984ZM50.8698 27.16C50.4404 27.16 50.0671 27.0013 49.7498 26.684C49.4324 26.3667 49.2738 25.9933 49.2738 25.564V8.036C49.2738 7.60667 49.4324 7.23333 49.7498 6.916C50.0671 6.59867 50.4404 6.44 50.8698 6.44H51.9898C52.4378 6.44 52.8204 6.59867 53.1378 6.916C53.4551 7.21467 53.6231 7.588 53.6418 8.036V8.26C53.6418 8.27867 53.6511 8.288 53.6698 8.288L53.7258 8.232C54.9204 6.85067 56.3578 6.16 58.0378 6.16C59.7738 6.16 61.1551 6.81333 62.1818 8.12C63.2271 9.42667 63.7498 11.2933 63.7498 13.72C63.7498 16.072 63.2084 17.92 62.1258 19.264C61.0618 20.608 59.6991 21.28 58.0378 21.28C56.4884 21.28 55.1071 20.7107 53.8938 19.572C53.8751 19.5533 53.8564 19.544 53.8378 19.544C53.8191 19.544 53.8098 19.5533 53.8098 19.572V25.564C53.8098 25.9933 53.6511 26.3667 53.3338 26.684C53.0164 27.0013 52.6431 27.16 52.2138 27.16H50.8698ZM75.3112 10.36C74.8632 9.66933 74.1725 9.324 73.2392 9.324C72.3058 9.324 71.6058 9.66933 71.1392 10.36C70.6912 11.0507 70.4672 12.1707 70.4672 13.72C70.4672 15.2693 70.6912 16.3893 71.1392 17.08C71.6058 17.7707 72.3058 18.116 73.2392 18.116C74.1725 18.116 74.8632 17.7707 75.3112 17.08C75.7778 16.3893 76.0112 15.2693 76.0112 13.72C76.0112 12.1707 75.7778 11.0507 75.3112 10.36ZM78.6432 19.292C77.3552 20.6173 75.5538 21.28 73.2392 21.28C70.9245 21.28 69.1232 20.6173 67.8352 19.292C66.5472 17.9667 65.9032 16.1093 65.9032 13.72C65.9032 11.3307 66.5472 9.47333 67.8352 8.148C69.1232 6.82267 70.9245 6.16 73.2392 6.16C75.5538 6.16 77.3552 6.82267 78.6432 8.148C79.9312 9.47333 80.5752 11.3307 80.5752 13.72C80.5752 16.1093 79.9312 17.9667 78.6432 19.292ZM84.8574 21C84.4281 21 84.0547 20.8413 83.7374 20.524C83.4387 20.2067 83.2894 19.8333 83.2894 19.404V8.036C83.2894 7.60667 83.4387 7.23333 83.7374 6.916C84.0547 6.59867 84.4281 6.44 84.8574 6.44H86.0054C86.4534 6.44 86.8267 6.59867 87.1254 6.916C87.4427 7.21467 87.6107 7.588 87.6294 8.036L87.6574 8.26C87.6574 8.27867 87.6667 8.288 87.6854 8.288L87.7414 8.232C88.9547 6.85067 90.4107 6.16 92.1094 6.16C93.8081 6.16 95.0307 6.64533 95.7774 7.616C96.5241 8.568 96.8974 10.2013 96.8974 12.516V19.404C96.8974 19.8333 96.7387 20.2067 96.4214 20.524C96.1227 20.8413 95.7587 21 95.3294 21H94.0974C93.6681 21 93.2947 20.8413 92.9774 20.524C92.6601 20.2067 92.5014 19.8333 92.5014 19.404V12.656C92.5014 11.536 92.3521 10.7707 92.0534 10.36C91.7547 9.93067 91.2134 9.716 90.4294 9.716C89.7761 9.716 89.1694 9.98667 88.6094 10.528C88.0681 11.0507 87.7974 11.62 87.7974 12.236V19.404C87.7974 19.8333 87.6387 20.2067 87.3214 20.524C87.0227 20.8413 86.6587 21 86.2294 21H84.8574ZM105.669 15.4C103.653 15.0267 102.207 14.448 101.329 13.664C100.471 12.88 100.041 11.844 100.041 10.556C100.041 9.17467 100.555 8.10133 101.581 7.336C102.627 6.552 104.195 6.16 106.285 6.16C107.517 6.16 108.777 6.26267 110.065 6.468C110.513 6.54267 110.877 6.75733 111.157 7.112C111.456 7.46667 111.605 7.87733 111.605 8.344V8.484C111.605 8.876 111.447 9.19333 111.129 9.436C110.831 9.67867 110.485 9.76267 110.093 9.688C108.88 9.44533 107.76 9.324 106.733 9.324C105.968 9.324 105.427 9.41733 105.109 9.604C104.811 9.79067 104.661 10.0707 104.661 10.444C104.661 11.1533 105.221 11.62 106.341 11.844C108.469 12.1987 109.953 12.7587 110.793 13.524C111.652 14.2893 112.081 15.4 112.081 16.856C112.081 18.256 111.559 19.348 110.513 20.132C109.468 20.8973 107.947 21.28 105.949 21.28C104.493 21.28 103.112 21.14 101.805 20.86C101.357 20.7667 100.984 20.5333 100.685 20.16C100.405 19.768 100.265 19.3293 100.265 18.844V18.62C100.265 18.228 100.424 17.9293 100.741 17.724C101.059 17.5 101.413 17.4347 101.805 17.528C103.019 17.8453 104.213 18.004 105.389 18.004C106.771 18.004 107.461 17.6027 107.461 16.8C107.461 16.4267 107.331 16.1373 107.069 15.932C106.827 15.7267 106.36 15.5493 105.669 15.4ZM117.66 21C117.23 21 116.857 20.8413 116.54 20.524C116.222 20.2067 116.064 19.8333 116.064 19.404V8.036C116.064 7.60667 116.222 7.23333 116.54 6.916C116.857 6.59867 117.23 6.44 117.66 6.44H119.228C119.657 6.44 120.03 6.59867 120.348 6.916C120.665 7.23333 120.824 7.60667 120.824 8.036V19.404C120.824 19.8333 120.665 20.2067 120.348 20.524C120.03 20.8413 119.657 21 119.228 21H117.66ZM117.66 3.64C117.23 3.64 116.857 3.48133 116.54 3.164C116.222 2.84667 116.064 2.47333 116.064 2.044V1.596C116.064 1.16667 116.222 0.793333 116.54 0.475999C116.857 0.158665 117.23 -1.66893e-06 117.66 -1.66893e-06H119.228C119.657 -1.66893e-06 120.03 0.158665 120.348 0.475999C120.665 0.793333 120.824 1.16667 120.824 1.596V2.044C120.824 2.47333 120.665 2.84667 120.348 3.164C120.03 3.48133 119.657 3.64 119.228 3.64H117.66ZM127.867 19.488L124.283 7.952C124.171 7.57867 124.227 7.23333 124.451 6.916C124.694 6.59867 125.011 6.44 125.403 6.44H127.083C127.55 6.44 127.961 6.58933 128.315 6.888C128.689 7.168 128.922 7.532 129.015 7.98L131.367 18.368C131.367 18.3867 131.377 18.396 131.395 18.396C131.414 18.396 131.423 18.3867 131.423 18.368L133.775 7.98C133.869 7.532 134.093 7.168 134.447 6.888C134.821 6.58933 135.241 6.44 135.707 6.44H137.275C137.667 6.44 137.975 6.59867 138.199 6.916C138.442 7.23333 138.507 7.57867 138.395 7.952L134.811 19.488C134.662 19.936 134.391 20.3 133.999 20.58C133.626 20.86 133.206 21 132.739 21H129.939C129.454 21 129.015 20.86 128.623 20.58C128.25 20.3 127.998 19.936 127.867 19.488ZM146.709 9.212C145.869 9.212 145.235 9.436 144.805 9.884C144.376 10.3133 144.105 11.06 143.993 12.124C143.993 12.2733 144.059 12.348 144.189 12.348H148.921C149.089 12.348 149.173 12.264 149.173 12.096C149.099 10.1733 148.277 9.212 146.709 9.212ZM147.409 21.28C144.871 21.28 142.911 20.636 141.529 19.348C140.167 18.06 139.485 16.184 139.485 13.72C139.485 11.2747 140.092 9.408 141.305 8.12C142.537 6.81333 144.311 6.16 146.625 6.16C151.068 6.16 153.327 8.58667 153.401 13.44C153.401 13.888 153.224 14.2707 152.869 14.588C152.533 14.8867 152.141 15.036 151.693 15.036H144.217C144.031 15.036 143.956 15.12 143.993 15.288C144.143 16.3147 144.535 17.052 145.169 17.5C145.823 17.9293 146.793 18.144 148.081 18.144C148.921 18.144 149.827 18.0227 150.797 17.78C151.189 17.6867 151.535 17.7613 151.833 18.004C152.151 18.2467 152.309 18.564 152.309 18.956V19.012C152.309 19.4787 152.16 19.908 151.861 20.3C151.581 20.6733 151.217 20.8973 150.769 20.972C149.687 21.1773 148.567 21.28 147.409 21.28ZM166.322 19.46L163.718 7.98C163.644 7.588 163.728 7.23333 163.97 6.916C164.213 6.59867 164.54 6.44 164.95 6.44H166.35C166.817 6.44 167.218 6.58933 167.554 6.888C167.89 7.18667 168.096 7.56 168.17 8.008L169.57 17.332C169.57 17.3507 169.58 17.36 169.598 17.36C169.617 17.36 169.626 17.3507 169.626 17.332L171.166 8.008C171.241 7.56 171.446 7.18667 171.782 6.888C172.118 6.58933 172.52 6.44 172.986 6.44H175.058C175.525 6.44 175.926 6.58933 176.262 6.888C176.617 7.18667 176.832 7.56 176.906 8.008L178.418 17.332C178.418 17.3507 178.428 17.36 178.446 17.36C178.465 17.36 178.474 17.3507 178.474 17.332L179.874 8.008C179.949 7.56 180.154 7.18667 180.49 6.888C180.826 6.58933 181.228 6.44 181.694 6.44H182.982C183.393 6.44 183.72 6.59867 183.962 6.916C184.224 7.23333 184.308 7.588 184.214 7.98L181.61 19.46C181.517 19.908 181.284 20.2813 180.91 20.58C180.537 20.86 180.117 21 179.65 21H177.466C177 21 176.589 20.8507 176.234 20.552C175.898 20.2533 175.684 19.88 175.59 19.432L173.994 10.388C173.994 10.3693 173.985 10.36 173.966 10.36C173.948 10.36 173.938 10.3693 173.938 10.388L172.342 19.432C172.268 19.88 172.053 20.2533 171.698 20.552C171.344 20.8507 170.933 21 170.466 21H168.282C167.816 21 167.396 20.86 167.022 20.58C166.649 20.2813 166.416 19.908 166.322 19.46ZM192.947 9.212C192.107 9.212 191.473 9.436 191.043 9.884C190.614 10.3133 190.343 11.06 190.231 12.124C190.231 12.2733 190.297 12.348 190.427 12.348H195.159C195.327 12.348 195.411 12.264 195.411 12.096C195.337 10.1733 194.515 9.212 192.947 9.212ZM193.647 21.28C191.109 21.28 189.149 20.636 187.767 19.348C186.405 18.06 185.723 16.184 185.723 13.72C185.723 11.2747 186.33 9.408 187.543 8.12C188.775 6.81333 190.549 6.16 192.863 6.16C197.306 6.16 199.565 8.58667 199.639 13.44C199.639 13.888 199.462 14.2707 199.107 14.588C198.771 14.8867 198.379 15.036 197.931 15.036H190.455C190.269 15.036 190.194 15.12 190.231 15.288C190.381 16.3147 190.773 17.052 191.407 17.5C192.061 17.9293 193.031 18.144 194.319 18.144C195.159 18.144 196.065 18.0227 197.035 17.78C197.427 17.6867 197.773 17.7613 198.071 18.004C198.389 18.2467 198.547 18.564 198.547 18.956V19.012C198.547 19.4787 198.398 19.908 198.099 20.3C197.819 20.6733 197.455 20.8973 197.007 20.972C195.925 21.1773 194.805 21.28 193.647 21.28ZM207.072 11.984V15.456C207.072 16.0907 207.352 16.66 207.912 17.164C208.472 17.668 209.125 17.92 209.872 17.92C210.731 17.92 211.412 17.5747 211.916 16.884C212.42 16.1933 212.672 15.1387 212.672 13.72C212.672 10.92 211.739 9.52 209.872 9.52C209.125 9.52 208.472 9.772 207.912 10.276C207.352 10.78 207.072 11.3493 207.072 11.984ZM204.216 21C203.787 21 203.413 20.8413 203.096 20.524C202.797 20.2067 202.648 19.8333 202.648 19.404V1.596C202.648 1.16667 202.797 0.793333 203.096 0.475999C203.413 0.158665 203.787 -1.66893e-06 204.216 -1.66893e-06H205.588C206.017 -1.66893e-06 206.381 0.158665 206.68 0.475999C206.997 0.793333 207.156 1.16667 207.156 1.596V7.868C207.156 7.88667 207.165 7.896 207.184 7.896C207.203 7.896 207.221 7.88667 207.24 7.868C208.491 6.72933 209.881 6.16 211.412 6.16C213.148 6.16 214.529 6.81333 215.556 8.12C216.583 9.42667 217.096 11.2933 217.096 13.72C217.096 16.0907 216.564 17.948 215.5 19.292C214.436 20.6173 213.073 21.28 211.412 21.28C209.639 21.28 208.164 20.5893 206.988 19.208L206.932 19.152C206.913 19.152 206.904 19.1613 206.904 19.18V19.404C206.885 19.852 206.717 20.2347 206.4 20.552C206.101 20.8507 205.728 21 205.28 21H204.216ZM234.486 9.52C232.619 9.52 231.686 10.92 231.686 13.72C231.686 15.1387 231.938 16.1933 232.442 16.884C232.946 17.5747 233.627 17.92 234.486 17.92C235.233 17.92 235.886 17.668 236.446 17.164C237.006 16.66 237.286 16.0907 237.286 15.456V11.984C237.286 11.3493 237.006 10.78 236.446 10.276C235.886 9.772 235.233 9.52 234.486 9.52ZM232.946 21.28C231.285 21.28 229.922 20.6173 228.858 19.292C227.794 17.948 227.262 16.0907 227.262 13.72C227.262 11.2933 227.775 9.42667 228.802 8.12C229.829 6.81333 231.21 6.16 232.946 6.16C234.477 6.16 235.867 6.72933 237.118 7.868C237.137 7.88667 237.155 7.896 237.174 7.896C237.193 7.896 237.202 7.88667 237.202 7.868V1.596C237.202 1.16667 237.351 0.793333 237.65 0.475999C237.967 0.158665 238.341 -1.66893e-06 238.77 -1.66893e-06H240.142C240.571 -1.66893e-06 240.935 0.158665 241.234 0.475999C241.551 0.793333 241.71 1.16667 241.71 1.596V19.404C241.71 19.8333 241.551 20.2067 241.234 20.524C240.935 20.8413 240.571 21 240.142 21H239.078C238.63 21 238.247 20.8507 237.93 20.552C237.631 20.2347 237.473 19.852 237.454 19.404V19.18C237.454 19.1613 237.445 19.152 237.426 19.152L237.37 19.208C236.194 20.5893 234.719 21.28 232.946 21.28ZM251.791 9.212C250.951 9.212 250.317 9.436 249.887 9.884C249.458 10.3133 249.187 11.06 249.075 12.124C249.075 12.2733 249.141 12.348 249.271 12.348H254.003C254.171 12.348 254.255 12.264 254.255 12.096C254.181 10.1733 253.359 9.212 251.791 9.212ZM252.491 21.28C249.953 21.28 247.993 20.636 246.611 19.348C245.249 18.06 244.567 16.184 244.567 13.72C244.567 11.2747 245.174 9.408 246.387 8.12C247.619 6.81333 249.393 6.16 251.707 6.16C256.15 6.16 258.409 8.58667 258.483 13.44C258.483 13.888 258.306 14.2707 257.951 14.588C257.615 14.8867 257.223 15.036 256.775 15.036H249.299C249.113 15.036 249.038 15.12 249.075 15.288C249.225 16.3147 249.617 17.052 250.251 17.5C250.905 17.9293 251.875 18.144 253.163 18.144C254.003 18.144 254.909 18.0227 255.879 17.78C256.271 17.6867 256.617 17.7613 256.915 18.004C257.233 18.2467 257.391 18.564 257.391 18.956V19.012C257.391 19.4787 257.242 19.908 256.943 20.3C256.663 20.6733 256.299 20.8973 255.851 20.972C254.769 21.1773 253.649 21.28 252.491 21.28ZM266.56 15.4C264.544 15.0267 263.097 14.448 262.22 13.664C261.361 12.88 260.932 11.844 260.932 10.556C260.932 9.17467 261.445 8.10133 262.472 7.336C263.517 6.552 265.085 6.16 267.176 6.16C268.408 6.16 269.668 6.26267 270.956 6.468C271.404 6.54267 271.768 6.75733 272.048 7.112C272.347 7.46667 272.496 7.87733 272.496 8.344V8.484C272.496 8.876 272.337 9.19333 272.02 9.436C271.721 9.67867 271.376 9.76267 270.984 9.688C269.771 9.44533 268.651 9.324 267.624 9.324C266.859 9.324 266.317 9.41733 266 9.604C265.701 9.79067 265.552 10.0707 265.552 10.444C265.552 11.1533 266.112 11.62 267.232 11.844C269.36 12.1987 270.844 12.7587 271.684 13.524C272.543 14.2893 272.972 15.4 272.972 16.856C272.972 18.256 272.449 19.348 271.404 20.132C270.359 20.8973 268.837 21.28 266.84 21.28C265.384 21.28 264.003 21.14 262.696 20.86C262.248 20.7667 261.875 20.5333 261.576 20.16C261.296 19.768 261.156 19.3293 261.156 18.844V18.62C261.156 18.228 261.315 17.9293 261.632 17.724C261.949 17.5 262.304 17.4347 262.696 17.528C263.909 17.8453 265.104 18.004 266.28 18.004C267.661 18.004 268.352 17.6027 268.352 16.8C268.352 16.4267 268.221 16.1373 267.96 15.932C267.717 15.7267 267.251 15.5493 266.56 15.4ZM278.55 21C278.121 21 277.748 20.8413 277.43 20.524C277.113 20.2067 276.954 19.8333 276.954 19.404V8.036C276.954 7.60667 277.113 7.23333 277.43 6.916C277.748 6.59867 278.121 6.44 278.55 6.44H280.118C280.548 6.44 280.921 6.59867 281.238 6.916C281.556 7.23333 281.714 7.60667 281.714 8.036V19.404C281.714 19.8333 281.556 20.2067 281.238 20.524C280.921 20.8413 280.548 21 280.118 21H278.55ZM278.55 3.64C278.121 3.64 277.748 3.48133 277.43 3.164C277.113 2.84667 276.954 2.47333 276.954 2.044V1.596C276.954 1.16667 277.113 0.793333 277.43 0.475999C277.748 0.158665 278.121 -1.66893e-06 278.55 -1.66893e-06H280.118C280.548 -1.66893e-06 280.921 0.158665 281.238 0.475999C281.556 0.793333 281.714 1.16667 281.714 1.596V2.044C281.714 2.47333 281.556 2.84667 281.238 3.164C280.921 3.48133 280.548 3.64 280.118 3.64H278.55ZM292.342 9.52C290.569 9.52 289.682 10.8267 289.682 13.44C289.682 14.7467 289.915 15.7267 290.382 16.38C290.867 17.0333 291.521 17.36 292.342 17.36C293.07 17.36 293.695 17.1173 294.218 16.632C294.741 16.128 295.002 15.5493 295.002 14.896V12.18C295.002 11.4333 294.741 10.808 294.218 10.304C293.695 9.78133 293.07 9.52 292.342 9.52ZM290.858 20.72C289.234 20.72 287.89 20.076 286.826 18.788C285.781 17.4813 285.258 15.6987 285.258 13.44C285.258 11.1253 285.762 9.33333 286.77 8.064C287.778 6.79467 289.141 6.16 290.858 6.16C292.501 6.16 293.91 6.85067 295.086 8.232L295.142 8.288C295.161 8.288 295.17 8.27867 295.17 8.26V8.036C295.189 7.588 295.357 7.21467 295.674 6.916C295.991 6.59867 296.374 6.44 296.822 6.44H297.858C298.287 6.44 298.661 6.59867 298.978 6.916C299.295 7.23333 299.454 7.60667 299.454 8.036V19.74C299.454 22.26 298.754 24.1733 297.354 25.48C295.973 26.7867 293.966 27.44 291.334 27.44C290.214 27.44 289.206 27.3653 288.31 27.216C287.862 27.1413 287.489 26.9173 287.19 26.544C286.891 26.1707 286.742 25.7507 286.742 25.284V24.724C286.742 24.3507 286.901 24.052 287.218 23.828C287.535 23.604 287.881 23.5387 288.254 23.632C289.262 23.8747 290.223 23.996 291.138 23.996C292.482 23.996 293.462 23.6693 294.078 23.016C294.694 22.3813 295.002 21.308 295.002 19.796V19.012C295.002 18.9933 294.993 18.984 294.974 18.984C294.955 18.984 294.937 18.9933 294.918 19.012C293.854 20.1507 292.501 20.72 290.858 20.72ZM304.729 21C304.299 21 303.926 20.8413 303.609 20.524C303.31 20.2067 303.16 19.8333 303.16 19.404V8.036C303.16 7.60667 303.31 7.23333 303.609 6.916C303.926 6.59867 304.299 6.44 304.729 6.44H305.877C306.325 6.44 306.698 6.59867 306.997 6.916C307.314 7.21467 307.482 7.588 307.501 8.036L307.529 8.26C307.529 8.27867 307.538 8.288 307.557 8.288L307.613 8.232C308.826 6.85067 310.282 6.16 311.981 6.16C313.679 6.16 314.902 6.64533 315.649 7.616C316.395 8.568 316.769 10.2013 316.769 12.516V19.404C316.769 19.8333 316.61 20.2067 316.293 20.524C315.994 20.8413 315.63 21 315.201 21H313.969C313.539 21 313.166 20.8413 312.849 20.524C312.531 20.2067 312.373 19.8333 312.373 19.404V12.656C312.373 11.536 312.223 10.7707 311.925 10.36C311.626 9.93067 311.085 9.716 310.301 9.716C309.647 9.716 309.041 9.98667 308.481 10.528C307.939 11.0507 307.669 11.62 307.669 12.236V19.404C307.669 19.8333 307.51 20.2067 307.193 20.524C306.894 20.8413 306.53 21 306.101 21H304.729ZM329.517 10.164C329.087 10.164 328.714 10.0147 328.397 9.716C328.079 9.39867 327.921 9.02533 327.921 8.596C327.921 8.16667 328.079 7.79333 328.397 7.476C328.714 7.15867 329.087 7 329.517 7H330.777C330.926 7 331.001 6.916 331.001 6.748V6.244C331.001 4.172 331.467 2.66 332.401 1.708C333.353 0.756 334.837 0.28 336.853 0.28C337.506 0.28 338.085 0.317333 338.589 0.391998C339.037 0.447999 339.41 0.662665 339.709 1.036C340.007 1.40933 340.157 1.82933 340.157 2.296V2.38C340.157 2.772 339.998 3.08933 339.681 3.332C339.363 3.556 339.009 3.64 338.617 3.584C338.467 3.56533 338.253 3.556 337.973 3.556C337.058 3.556 336.442 3.73333 336.125 4.088C335.826 4.44267 335.677 5.152 335.677 6.216V6.748C335.677 6.916 335.761 7 335.929 7H338.281C338.71 7 339.083 7.15867 339.401 7.476C339.718 7.79333 339.877 8.16667 339.877 8.596C339.877 9.02533 339.718 9.39867 339.401 9.716C339.083 10.0147 338.71 10.164 338.281 10.164H335.929C335.761 10.164 335.677 10.248 335.677 10.416V19.404C335.677 19.8333 335.518 20.2067 335.201 20.524C334.883 20.8413 334.51 21 334.081 21H332.597C332.167 21 331.794 20.8413 331.477 20.524C331.159 20.2067 331.001 19.8333 331.001 19.404V10.416C331.001 10.248 330.926 10.164 330.777 10.164H329.517ZM351.018 10.36C350.57 9.66933 349.88 9.324 348.946 9.324C348.013 9.324 347.313 9.66933 346.846 10.36C346.398 11.0507 346.174 12.1707 346.174 13.72C346.174 15.2693 346.398 16.3893 346.846 17.08C347.313 17.7707 348.013 18.116 348.946 18.116C349.88 18.116 350.57 17.7707 351.018 17.08C351.485 16.3893 351.718 15.2693 351.718 13.72C351.718 12.1707 351.485 11.0507 351.018 10.36ZM354.35 19.292C353.062 20.6173 351.261 21.28 348.946 21.28C346.632 21.28 344.83 20.6173 343.542 19.292C342.254 17.9667 341.61 16.1093 341.61 13.72C341.61 11.3307 342.254 9.47333 343.542 8.148C344.83 6.82267 346.632 6.16 348.946 6.16C351.261 6.16 353.062 6.82267 354.35 8.148C355.638 9.47333 356.282 11.3307 356.282 13.72C356.282 16.1093 355.638 17.9667 354.35 19.292ZM360.564 21C360.135 21 359.762 20.8413 359.444 20.524C359.146 20.2067 358.996 19.8333 358.996 19.404V8.036C358.996 7.60667 359.146 7.23333 359.444 6.916C359.762 6.59867 360.135 6.44 360.564 6.44H361.936C362.366 6.44 362.73 6.59867 363.028 6.916C363.346 7.23333 363.504 7.60667 363.504 8.036V9.212C363.504 9.23067 363.514 9.24 363.532 9.24C363.57 9.24 363.588 9.23067 363.588 9.212C364.746 7.66267 366.36 6.75733 368.432 6.496C368.862 6.44 369.226 6.57067 369.524 6.888C369.842 7.20533 370 7.588 370 8.036V8.26C370 8.68933 369.842 9.06267 369.524 9.38C369.226 9.69733 368.852 9.87467 368.404 9.912C366.892 10.08 365.716 10.6027 364.876 11.48C364.055 12.3387 363.644 13.4587 363.644 14.84V19.404C363.644 19.8333 363.486 20.2067 363.168 20.524C362.87 20.8413 362.506 21 362.076 21H360.564ZM388.142 14.336C385.864 14.336 384.726 15.036 384.726 16.436C384.726 16.94 384.875 17.3413 385.174 17.64C385.472 17.92 385.874 18.06 386.378 18.06C387.274 18.06 388.002 17.78 388.562 17.22C389.122 16.6413 389.402 15.876 389.402 14.924V14.588C389.402 14.42 389.318 14.336 389.15 14.336H388.142ZM385.006 21.28C383.718 21.28 382.654 20.8693 381.814 20.048C380.992 19.208 380.582 18.1253 380.582 16.8C380.582 13.4027 383.102 11.704 388.142 11.704H389.15C389.318 11.704 389.402 11.6293 389.402 11.48V11.34C389.402 10.6307 389.215 10.1173 388.842 9.8C388.487 9.48267 387.88 9.324 387.022 9.324C385.883 9.324 384.52 9.50133 382.934 9.856C382.542 9.93067 382.187 9.84667 381.87 9.604C381.571 9.36133 381.422 9.044 381.422 8.652V8.596C381.422 8.12933 381.562 7.70933 381.842 7.336C382.14 6.944 382.514 6.71067 382.962 6.636C384.604 6.31867 386.023 6.16 387.218 6.16C389.663 6.16 391.39 6.59867 392.398 7.476C393.424 8.35333 393.938 9.80933 393.938 11.844V19.404C393.938 19.8333 393.779 20.2067 393.462 20.524C393.144 20.8413 392.771 21 392.342 21H391.306C390.858 21 390.475 20.8507 390.158 20.552C389.84 20.2347 389.672 19.852 389.654 19.404V19.096C389.654 19.0773 389.644 19.068 389.626 19.068C389.588 19.068 389.57 19.0773 389.57 19.096C388.394 20.552 386.872 21.28 385.006 21.28ZM399.064 21C398.635 21 398.262 20.8413 397.944 20.524C397.646 20.2067 397.496 19.8333 397.496 19.404V8.036C397.496 7.60667 397.646 7.23333 397.944 6.916C398.262 6.59867 398.635 6.44 399.064 6.44H400.212C400.66 6.44 401.034 6.59867 401.332 6.916C401.65 7.21467 401.818 7.588 401.836 8.036L401.864 8.26C401.864 8.27867 401.874 8.288 401.892 8.288L401.948 8.232C403.162 6.85067 404.618 6.16 406.316 6.16C408.015 6.16 409.238 6.64533 409.984 7.616C410.731 8.568 411.104 10.2013 411.104 12.516V19.404C411.104 19.8333 410.946 20.2067 410.628 20.524C410.33 20.8413 409.966 21 409.536 21H408.304C407.875 21 407.502 20.8413 407.184 20.524C406.867 20.2067 406.708 19.8333 406.708 19.404V12.656C406.708 11.536 406.559 10.7707 406.26 10.36C405.962 9.93067 405.42 9.716 404.636 9.716C403.983 9.716 403.376 9.98667 402.816 10.528C402.275 11.0507 402.004 11.62 402.004 12.236V19.404C402.004 19.8333 401.846 20.2067 401.528 20.524C401.23 20.8413 400.866 21 400.436 21H399.064ZM7.708 50.336C5.43067 50.336 4.292 51.036 4.292 52.436C4.292 52.94 4.44133 53.3413 4.74 53.64C5.03867 53.92 5.44 54.06 5.944 54.06C6.84 54.06 7.568 53.78 8.128 53.22C8.688 52.6413 8.968 51.876 8.968 50.924V50.588C8.968 50.42 8.884 50.336 8.716 50.336H7.708ZM4.572 57.28C3.284 57.28 2.22 56.8693 1.38 56.048C0.558667 55.208 0.148 54.1253 0.148 52.8C0.148 49.4027 2.668 47.704 7.708 47.704H8.716C8.884 47.704 8.968 47.6293 8.968 47.48V47.34C8.968 46.6307 8.78133 46.1173 8.408 45.8C8.05333 45.4827 7.44667 45.324 6.588 45.324C5.44933 45.324 4.08667 45.5013 2.5 45.856C2.108 45.9307 1.75333 45.8467 1.436 45.604C1.13733 45.3613 0.988 45.044 0.988 44.652V44.596C0.988 44.1293 1.128 43.7093 1.408 43.336C1.70667 42.944 2.08 42.7107 2.528 42.636C4.17067 42.3187 5.58933 42.16 6.784 42.16C9.22933 42.16 10.956 42.5987 11.964 43.476C12.9907 44.3533 13.504 45.8093 13.504 47.844V55.404C13.504 55.8333 13.3453 56.2067 13.028 56.524C12.7107 56.8413 12.3373 57 11.908 57H10.872C10.424 57 10.0413 56.8507 9.724 56.552C9.40667 56.2347 9.23867 55.852 9.22 55.404V55.096C9.22 55.0773 9.21067 55.068 9.192 55.068C9.15467 55.068 9.136 55.0773 9.136 55.096C7.96 56.552 6.43867 57.28 4.572 57.28ZM18.6308 57C18.2015 57 17.8282 56.8413 17.5108 56.524C17.2122 56.2067 17.0628 55.8333 17.0628 55.404V44.036C17.0628 43.6067 17.2122 43.2333 17.5108 42.916C17.8282 42.5987 18.2015 42.44 18.6308 42.44H19.7788C20.2268 42.44 20.6002 42.5987 20.8988 42.916C21.2162 43.2147 21.3842 43.588 21.4028 44.036L21.4308 44.26C21.4308 44.2787 21.4402 44.288 21.4588 44.288L21.5148 44.232C22.7282 42.8507 24.1842 42.16 25.8828 42.16C27.5815 42.16 28.8042 42.6453 29.5508 43.616C30.2975 44.568 30.6708 46.2013 30.6708 48.516V55.404C30.6708 55.8333 30.5122 56.2067 30.1948 56.524C29.8962 56.8413 29.5322 57 29.1028 57H27.8708C27.4415 57 27.0682 56.8413 26.7508 56.524C26.4335 56.2067 26.2748 55.8333 26.2748 55.404V48.656C26.2748 47.536 26.1255 46.7707 25.8268 46.36C25.5282 45.9307 24.9868 45.716 24.2028 45.716C23.5495 45.716 22.9428 45.9867 22.3828 46.528C21.8415 47.0507 21.5708 47.62 21.5708 48.236V55.404C21.5708 55.8333 21.4122 56.2067 21.0948 56.524C20.7962 56.8413 20.4322 57 20.0028 57H18.6308ZM36.5307 57C36.1014 57 35.7281 56.8413 35.4107 56.524C35.0934 56.2067 34.9347 55.8333 34.9347 55.404V44.036C34.9347 43.6067 35.0934 43.2333 35.4107 42.916C35.7281 42.5987 36.1014 42.44 36.5307 42.44H38.0987C38.5281 42.44 38.9014 42.5987 39.2187 42.916C39.5361 43.2333 39.6947 43.6067 39.6947 44.036V55.404C39.6947 55.8333 39.5361 56.2067 39.2187 56.524C38.9014 56.8413 38.5281 57 38.0987 57H36.5307ZM36.5307 39.64C36.1014 39.64 35.7281 39.4813 35.4107 39.164C35.0934 38.8467 34.9347 38.4733 34.9347 38.044V37.596C34.9347 37.1667 35.0934 36.7933 35.4107 36.476C35.7281 36.1587 36.1014 36 36.5307 36H38.0987C38.5281 36 38.9014 36.1587 39.2187 36.476C39.5361 36.7933 39.6947 37.1667 39.6947 37.596V38.044C39.6947 38.4733 39.5361 38.8467 39.2187 39.164C38.9014 39.4813 38.5281 39.64 38.0987 39.64H36.5307ZM45.6745 57C45.2451 57 44.8718 56.8413 44.5545 56.524C44.2371 56.2067 44.0785 55.8333 44.0785 55.404V44.036C44.0785 43.6067 44.2371 43.2333 44.5545 42.916C44.8718 42.5987 45.2451 42.44 45.6745 42.44H46.7105C47.1585 42.44 47.5318 42.5987 47.8305 42.916C48.1478 43.2147 48.3251 43.588 48.3625 44.036L48.3905 44.288C48.3905 44.3067 48.3998 44.316 48.4185 44.316C48.4558 44.316 48.4745 44.3067 48.4745 44.288C49.5758 42.8693 50.8358 42.16 52.2545 42.16C53.1131 42.16 53.7945 42.3187 54.2985 42.636C54.8025 42.9347 55.2691 43.476 55.6985 44.26C55.6985 44.2973 55.7171 44.316 55.7545 44.316L55.8105 44.26C57.0985 42.86 58.4425 42.16 59.8425 42.16C61.4291 42.16 62.5771 42.5893 63.2865 43.448C63.9958 44.288 64.3505 45.7253 64.3505 47.76V55.404C64.3505 55.8333 64.1918 56.2067 63.8745 56.524C63.5571 56.8413 63.1838 57 62.7545 57H61.5225C61.0931 57 60.7198 56.8413 60.4025 56.524C60.0851 56.2067 59.9265 55.8333 59.9265 55.404V48.04C59.9265 47.032 59.8145 46.3693 59.5905 46.052C59.3665 45.716 58.9465 45.548 58.3305 45.548C57.9011 45.548 57.4811 45.7253 57.0705 46.08C56.6785 46.4347 56.4825 46.78 56.4825 47.116V55.404C56.4825 55.8333 56.3238 56.2067 56.0065 56.524C55.6891 56.8413 55.3158 57 54.8865 57H53.6545C53.2251 57 52.8518 56.8413 52.5345 56.524C52.2171 56.2067 52.0585 55.8333 52.0585 55.404V48.04C52.0585 47.032 51.9465 46.3693 51.7225 46.052C51.5171 45.716 51.1065 45.548 50.4905 45.548C50.0611 45.548 49.6411 45.7253 49.2305 46.08C48.8198 46.4347 48.6145 46.78 48.6145 47.116V55.404C48.6145 55.8333 48.4558 56.2067 48.1385 56.524C47.8211 56.8413 47.4478 57 47.0185 57H45.6745ZM74.7549 50.336C72.4775 50.336 71.3389 51.036 71.3389 52.436C71.3389 52.94 71.4882 53.3413 71.7869 53.64C72.0855 53.92 72.4869 54.06 72.9909 54.06C73.8869 54.06 74.6149 53.78 75.1749 53.22C75.7349 52.6413 76.0149 51.876 76.0149 50.924V50.588C76.0149 50.42 75.9309 50.336 75.7629 50.336H74.7549ZM71.6189 57.28C70.3309 57.28 69.2669 56.8693 68.4269 56.048C67.6055 55.208 67.1949 54.1253 67.1949 52.8C67.1949 49.4027 69.7149 47.704 74.7549 47.704H75.7629C75.9309 47.704 76.0149 47.6293 76.0149 47.48V47.34C76.0149 46.6307 75.8282 46.1173 75.4549 45.8C75.1002 45.4827 74.4935 45.324 73.6349 45.324C72.4962 45.324 71.1335 45.5013 69.5469 45.856C69.1549 45.9307 68.8002 45.8467 68.4829 45.604C68.1842 45.3613 68.0349 45.044 68.0349 44.652V44.596C68.0349 44.1293 68.1749 43.7093 68.4549 43.336C68.7535 42.944 69.1269 42.7107 69.5749 42.636C71.2175 42.3187 72.6362 42.16 73.8309 42.16C76.2762 42.16 78.0029 42.5987 79.0109 43.476C80.0375 44.3533 80.5509 45.8093 80.5509 47.844V55.404C80.5509 55.8333 80.3922 56.2067 80.0749 56.524C79.7575 56.8413 79.3842 57 78.9549 57H77.9189C77.4709 57 77.0882 56.8507 76.7709 56.552C76.4535 56.2347 76.2855 55.852 76.2669 55.404V55.096C76.2669 55.0773 76.2575 55.068 76.2389 55.068C76.2015 55.068 76.1829 55.0773 76.1829 55.096C75.0069 56.552 73.4855 57.28 71.6189 57.28ZM86.4057 57C85.9764 57 85.6031 56.8413 85.2857 56.524C84.9684 56.2067 84.8097 55.8333 84.8097 55.404V37.596C84.8097 37.1667 84.9684 36.7933 85.2857 36.476C85.6031 36.1587 85.9764 36 86.4057 36H87.9737C88.4031 36 88.7764 36.1587 89.0937 36.476C89.4111 36.7933 89.5697 37.1667 89.5697 37.596V55.404C89.5697 55.8333 89.4111 56.2067 89.0937 56.524C88.7764 56.8413 88.4031 57 87.9737 57H86.4057ZM107.31 51.4C105.294 51.0267 103.847 50.448 102.97 49.664C102.111 48.88 101.682 47.844 101.682 46.556C101.682 45.1747 102.195 44.1013 103.222 43.336C104.267 42.552 105.835 42.16 107.926 42.16C109.158 42.16 110.418 42.2627 111.706 42.468C112.154 42.5427 112.518 42.7573 112.798 43.112C113.097 43.4667 113.246 43.8773 113.246 44.344V44.484C113.246 44.876 113.087 45.1933 112.77 45.436C112.471 45.6787 112.126 45.7627 111.734 45.688C110.521 45.4453 109.401 45.324 108.374 45.324C107.609 45.324 107.067 45.4173 106.75 45.604C106.451 45.7907 106.302 46.0707 106.302 46.444C106.302 47.1533 106.862 47.62 107.982 47.844C110.11 48.1987 111.594 48.7587 112.434 49.524C113.293 50.2893 113.722 51.4 113.722 52.856C113.722 54.256 113.199 55.348 112.154 56.132C111.109 56.8973 109.587 57.28 107.59 57.28C106.134 57.28 104.753 57.14 103.446 56.86C102.998 56.7667 102.625 56.5333 102.326 56.16C102.046 55.768 101.906 55.3293 101.906 54.844V54.62C101.906 54.228 102.065 53.9293 102.382 53.724C102.699 53.5 103.054 53.4347 103.446 53.528C104.659 53.8453 105.854 54.004 107.03 54.004C108.411 54.004 109.102 53.6027 109.102 52.8C109.102 52.4267 108.971 52.1373 108.71 51.932C108.467 51.7267 108.001 51.5493 107.31 51.4ZM118.74 57C118.311 57 117.938 56.8413 117.62 56.524C117.303 56.2067 117.144 55.8333 117.144 55.404V37.596C117.144 37.1667 117.303 36.7933 117.62 36.476C117.938 36.1587 118.311 36 118.74 36H120.084C120.514 36 120.887 36.1587 121.204 36.476C121.522 36.7933 121.68 37.1667 121.68 37.596V43.952C121.68 43.9707 121.69 43.98 121.708 43.98C121.727 43.98 121.746 43.9707 121.764 43.952C123.071 42.7573 124.471 42.16 125.964 42.16C127.682 42.16 128.914 42.6547 129.66 43.644C130.407 44.6147 130.78 46.36 130.78 48.88V55.404C130.78 55.8333 130.622 56.2067 130.304 56.524C129.987 56.8413 129.614 57 129.184 57H127.952C127.523 57 127.15 56.8413 126.832 56.524C126.515 56.2067 126.356 55.8333 126.356 55.404V49.44C126.356 47.9467 126.207 46.9573 125.908 46.472C125.628 45.9867 125.087 45.744 124.284 45.744C123.65 45.744 123.052 46.024 122.492 46.584C121.951 47.1253 121.68 47.704 121.68 48.32V55.404C121.68 55.8333 121.522 56.2067 121.204 56.524C120.887 56.8413 120.514 57 120.084 57H118.74ZM140.584 45.212C139.744 45.212 139.11 45.436 138.68 45.884C138.251 46.3133 137.98 47.06 137.868 48.124C137.868 48.2733 137.934 48.348 138.064 48.348H142.796C142.964 48.348 143.048 48.264 143.048 48.096C142.974 46.1733 142.152 45.212 140.584 45.212ZM141.284 57.28C138.746 57.28 136.786 56.636 135.404 55.348C134.042 54.06 133.36 52.184 133.36 49.72C133.36 47.2747 133.967 45.408 135.18 44.12C136.412 42.8133 138.186 42.16 140.5 42.16C144.943 42.16 147.202 44.5867 147.276 49.44C147.276 49.888 147.099 50.2707 146.744 50.588C146.408 50.8867 146.016 51.036 145.568 51.036H138.092C137.906 51.036 137.831 51.12 137.868 51.288C138.018 52.3147 138.41 53.052 139.044 53.5C139.698 53.9293 140.668 54.144 141.956 54.144C142.796 54.144 143.702 54.0227 144.672 53.78C145.064 53.6867 145.41 53.7613 145.708 54.004C146.026 54.2467 146.184 54.564 146.184 54.956V55.012C146.184 55.4787 146.035 55.908 145.736 56.3C145.456 56.6733 145.092 56.8973 144.644 56.972C143.562 57.1773 142.442 57.28 141.284 57.28ZM152.441 57C152.012 57 151.638 56.8413 151.321 56.524C151.004 56.2067 150.845 55.8333 150.845 55.404V37.596C150.845 37.1667 151.004 36.7933 151.321 36.476C151.638 36.1587 152.012 36 152.441 36H154.009C154.438 36 154.812 36.1587 155.129 36.476C155.446 36.7933 155.605 37.1667 155.605 37.596V55.404C155.605 55.8333 155.446 56.2067 155.129 56.524C154.812 56.8413 154.438 57 154.009 57H152.441ZM160.885 46.164C160.455 46.164 160.082 46.0147 159.765 45.716C159.447 45.3987 159.289 45.0253 159.289 44.596C159.289 44.1667 159.447 43.7933 159.765 43.476C160.082 43.1587 160.455 43 160.885 43H162.005C162.154 43 162.229 42.916 162.229 42.748V39.276C162.229 38.8467 162.387 38.4733 162.705 38.156C163.022 37.8387 163.395 37.68 163.825 37.68H165.169C165.598 37.68 165.971 37.8387 166.289 38.156C166.606 38.4733 166.765 38.8467 166.765 39.276V42.748C166.765 42.916 166.849 43 167.017 43H169.761C170.19 43 170.554 43.1587 170.853 43.476C171.17 43.7933 171.329 44.1667 171.329 44.596C171.329 45.0253 171.17 45.3987 170.853 45.716C170.554 46.0147 170.19 46.164 169.761 46.164H167.017C166.849 46.164 166.765 46.248 166.765 46.416V51.204C166.765 52.38 166.867 53.1267 167.073 53.444C167.297 53.7613 167.782 53.92 168.529 53.92C168.921 53.92 169.229 53.9013 169.453 53.864C169.863 53.808 170.227 53.9013 170.545 54.144C170.862 54.3867 171.021 54.704 171.021 55.096V55.32C171.021 55.7867 170.871 56.1973 170.573 56.552C170.274 56.9067 169.891 57.112 169.425 57.168C168.846 57.2427 168.174 57.28 167.409 57.28C165.505 57.28 164.161 56.8787 163.377 56.076C162.611 55.2547 162.229 53.7893 162.229 51.68V46.416C162.229 46.248 162.154 46.164 162.005 46.164H160.885ZM180.998 45.212C180.158 45.212 179.524 45.436 179.094 45.884C178.665 46.3133 178.394 47.06 178.282 48.124C178.282 48.2733 178.348 48.348 178.478 48.348H183.21C183.378 48.348 183.462 48.264 183.462 48.096C183.388 46.1733 182.566 45.212 180.998 45.212ZM181.698 57.28C179.16 57.28 177.2 56.636 175.818 55.348C174.456 54.06 173.774 52.184 173.774 49.72C173.774 47.2747 174.381 45.408 175.594 44.12C176.826 42.8133 178.6 42.16 180.914 42.16C185.357 42.16 187.616 44.5867 187.69 49.44C187.69 49.888 187.513 50.2707 187.158 50.588C186.822 50.8867 186.43 51.036 185.982 51.036H178.506C178.32 51.036 178.245 51.12 178.282 51.288C178.432 52.3147 178.824 53.052 179.458 53.5C180.112 53.9293 181.082 54.144 182.37 54.144C183.21 54.144 184.116 54.0227 185.086 53.78C185.478 53.6867 185.824 53.7613 186.122 54.004C186.44 54.2467 186.598 54.564 186.598 54.956V55.012C186.598 55.4787 186.449 55.908 186.15 56.3C185.87 56.6733 185.506 56.8973 185.058 56.972C183.976 57.1773 182.856 57.28 181.698 57.28ZM192.127 57C191.698 57 191.324 56.8413 191.007 56.524C190.708 56.2067 190.559 55.8333 190.559 55.404V44.036C190.559 43.6067 190.708 43.2333 191.007 42.916C191.324 42.5987 191.698 42.44 192.127 42.44H193.499C193.928 42.44 194.292 42.5987 194.591 42.916C194.908 43.2333 195.067 43.6067 195.067 44.036V45.212C195.067 45.2307 195.076 45.24 195.095 45.24C195.132 45.24 195.151 45.2307 195.151 45.212C196.308 43.6627 197.923 42.7573 199.995 42.496C200.424 42.44 200.788 42.5707 201.087 42.888C201.404 43.2053 201.563 43.588 201.563 44.036V44.26C201.563 44.6893 201.404 45.0627 201.087 45.38C200.788 45.6973 200.415 45.8747 199.967 45.912C198.455 46.08 197.279 46.6027 196.439 47.48C195.618 48.3387 195.207 49.4587 195.207 50.84V55.404C195.207 55.8333 195.048 56.2067 194.731 56.524C194.432 56.8413 194.068 57 193.639 57H192.127ZM204.653 42.272L204.205 37.008C204.167 36.5787 204.289 36.2147 204.569 35.916C204.867 35.5987 205.231 35.44 205.661 35.44H207.733C208.162 35.44 208.526 35.5987 208.825 35.916C209.123 36.2147 209.245 36.5787 209.189 37.008L208.741 42.272C208.703 42.72 208.517 43.0933 208.181 43.392C207.863 43.6907 207.481 43.84 207.033 43.84H206.361C205.913 43.84 205.53 43.6907 205.213 43.392C204.895 43.0933 204.709 42.72 204.653 42.272ZM216.658 51.4C214.642 51.0267 213.195 50.448 212.318 49.664C211.459 48.88 211.03 47.844 211.03 46.556C211.03 45.1747 211.543 44.1013 212.57 43.336C213.615 42.552 215.183 42.16 217.274 42.16C218.506 42.16 219.766 42.2627 221.054 42.468C221.502 42.5427 221.866 42.7573 222.146 43.112C222.444 43.4667 222.594 43.8773 222.594 44.344V44.484C222.594 44.876 222.435 45.1933 222.118 45.436C221.819 45.6787 221.474 45.7627 221.082 45.688C219.868 45.4453 218.748 45.324 217.722 45.324C216.956 45.324 216.415 45.4173 216.098 45.604C215.799 45.7907 215.65 46.0707 215.65 46.444C215.65 47.1533 216.21 47.62 217.33 47.844C219.458 48.1987 220.942 48.7587 221.782 49.524C222.64 50.2893 223.07 51.4 223.07 52.856C223.07 54.256 222.547 55.348 221.502 56.132C220.456 56.8973 218.935 57.28 216.938 57.28C215.482 57.28 214.1 57.14 212.794 56.86C212.346 56.7667 211.972 56.5333 211.674 56.16C211.394 55.768 211.254 55.3293 211.254 54.844V54.62C211.254 54.228 211.412 53.9293 211.73 53.724C212.047 53.5 212.402 53.4347 212.794 53.528C214.007 53.8453 215.202 54.004 216.378 54.004C217.759 54.004 218.45 53.6027 218.45 52.8C218.45 52.4267 218.319 52.1373 218.058 51.932C217.815 51.7267 217.348 51.5493 216.658 51.4ZM238.924 47.984V51.456C238.924 52.072 239.204 52.6413 239.764 53.164C240.343 53.668 240.996 53.92 241.724 53.92C242.583 53.92 243.264 53.5747 243.768 52.884C244.272 52.1747 244.524 51.12 244.524 49.72C244.524 46.92 243.591 45.52 241.724 45.52C240.996 45.52 240.343 45.7813 239.764 46.304C239.204 46.808 238.924 47.368 238.924 47.984ZM236.096 63.16C235.667 63.16 235.294 63.0013 234.976 62.684C234.659 62.3667 234.5 61.9933 234.5 61.564V44.036C234.5 43.6067 234.659 43.2333 234.976 42.916C235.294 42.5987 235.667 42.44 236.096 42.44H237.216C237.664 42.44 238.047 42.5987 238.364 42.916C238.682 43.2147 238.85 43.588 238.868 44.036V44.26C238.868 44.2787 238.878 44.288 238.896 44.288L238.952 44.232C240.147 42.8507 241.584 42.16 243.264 42.16C245 42.16 246.382 42.8133 247.408 44.12C248.454 45.4267 248.976 47.2933 248.976 49.72C248.976 52.072 248.435 53.92 247.352 55.264C246.288 56.608 244.926 57.28 243.264 57.28C241.715 57.28 240.334 56.7107 239.12 55.572C239.102 55.5533 239.083 55.544 239.064 55.544C239.046 55.544 239.036 55.5533 239.036 55.572V61.564C239.036 61.9933 238.878 62.3667 238.56 62.684C238.243 63.0013 237.87 63.16 237.44 63.16H236.096ZM258.354 45.212C257.514 45.212 256.879 45.436 256.45 45.884C256.02 46.3133 255.75 47.06 255.638 48.124C255.638 48.2733 255.703 48.348 255.834 48.348H260.566C260.734 48.348 260.818 48.264 260.818 48.096C260.743 46.1733 259.922 45.212 258.354 45.212ZM259.054 57.28C256.515 57.28 254.555 56.636 253.174 55.348C251.811 54.06 251.13 52.184 251.13 49.72C251.13 47.2747 251.736 45.408 252.95 44.12C254.182 42.8133 255.955 42.16 258.27 42.16C262.712 42.16 264.971 44.5867 265.046 49.44C265.046 49.888 264.868 50.2707 264.514 50.588C264.178 50.8867 263.786 51.036 263.338 51.036H255.862C255.675 51.036 255.6 51.12 255.638 51.288C255.787 52.3147 256.179 53.052 256.814 53.5C257.467 53.9293 258.438 54.144 259.726 54.144C260.566 54.144 261.471 54.0227 262.442 53.78C262.834 53.6867 263.179 53.7613 263.478 54.004C263.795 54.2467 263.954 54.564 263.954 54.956V55.012C263.954 55.4787 263.804 55.908 263.506 56.3C263.226 56.6733 262.862 56.8973 262.414 56.972C261.331 57.1773 260.211 57.28 259.054 57.28ZM268.537 46.164C268.108 46.164 267.734 46.0147 267.417 45.716C267.1 45.3987 266.941 45.0253 266.941 44.596C266.941 44.1667 267.1 43.7933 267.417 43.476C267.734 43.1587 268.108 43 268.537 43H269.657C269.806 43 269.881 42.916 269.881 42.748V39.276C269.881 38.8467 270.04 38.4733 270.357 38.156C270.674 37.8387 271.048 37.68 271.477 37.68H272.821C273.25 37.68 273.624 37.8387 273.941 38.156C274.258 38.4733 274.417 38.8467 274.417 39.276V42.748C274.417 42.916 274.501 43 274.669 43H277.413C277.842 43 278.206 43.1587 278.505 43.476C278.822 43.7933 278.981 44.1667 278.981 44.596C278.981 45.0253 278.822 45.3987 278.505 45.716C278.206 46.0147 277.842 46.164 277.413 46.164H274.669C274.501 46.164 274.417 46.248 274.417 46.416V51.204C274.417 52.38 274.52 53.1267 274.725 53.444C274.949 53.7613 275.434 53.92 276.181 53.92C276.573 53.92 276.881 53.9013 277.105 53.864C277.516 53.808 277.88 53.9013 278.197 54.144C278.514 54.3867 278.673 54.704 278.673 55.096V55.32C278.673 55.7867 278.524 56.1973 278.225 56.552C277.926 56.9067 277.544 57.112 277.077 57.168C276.498 57.2427 275.826 57.28 275.061 57.28C273.157 57.28 271.813 56.8787 271.029 56.076C270.264 55.2547 269.881 53.7893 269.881 51.68V46.416C269.881 46.248 269.806 46.164 269.657 46.164H268.537ZM297.688 50.336C295.411 50.336 294.272 51.036 294.272 52.436C294.272 52.94 294.422 53.3413 294.72 53.64C295.019 53.92 295.42 54.06 295.924 54.06C296.82 54.06 297.548 53.78 298.108 53.22C298.668 52.6413 298.948 51.876 298.948 50.924V50.588C298.948 50.42 298.864 50.336 298.696 50.336H297.688ZM294.552 57.28C293.264 57.28 292.2 56.8693 291.36 56.048C290.539 55.208 290.128 54.1253 290.128 52.8C290.128 49.4027 292.648 47.704 297.688 47.704H298.696C298.864 47.704 298.948 47.6293 298.948 47.48V47.34C298.948 46.6307 298.762 46.1173 298.388 45.8C298.034 45.4827 297.427 45.324 296.568 45.324C295.43 45.324 294.067 45.5013 292.48 45.856C292.088 45.9307 291.734 45.8467 291.416 45.604C291.118 45.3613 290.968 45.044 290.968 44.652V44.596C290.968 44.1293 291.108 43.7093 291.388 43.336C291.687 42.944 292.06 42.7107 292.508 42.636C294.151 42.3187 295.57 42.16 296.764 42.16C299.21 42.16 300.936 42.5987 301.944 43.476C302.971 44.3533 303.484 45.8093 303.484 47.844V55.404C303.484 55.8333 303.326 56.2067 303.008 56.524C302.691 56.8413 302.318 57 301.888 57H300.852C300.404 57 300.022 56.8507 299.704 56.552C299.387 56.2347 299.219 55.852 299.2 55.404V55.096C299.2 55.0773 299.191 55.068 299.172 55.068C299.135 55.068 299.116 55.0773 299.116 55.096C297.94 56.552 296.419 57.28 294.552 57.28ZM313.427 45.52C311.561 45.52 310.627 46.92 310.627 49.72C310.627 51.1387 310.879 52.1933 311.383 52.884C311.887 53.5747 312.569 53.92 313.427 53.92C314.174 53.92 314.827 53.668 315.387 53.164C315.947 52.66 316.227 52.0907 316.227 51.456V47.984C316.227 47.3493 315.947 46.78 315.387 46.276C314.827 45.772 314.174 45.52 313.427 45.52ZM311.887 57.28C310.226 57.28 308.863 56.6173 307.799 55.292C306.735 53.948 306.203 52.0907 306.203 49.72C306.203 47.2933 306.717 45.4267 307.743 44.12C308.77 42.8133 310.151 42.16 311.887 42.16C313.418 42.16 314.809 42.7293 316.059 43.868C316.078 43.8867 316.097 43.896 316.115 43.896C316.134 43.896 316.143 43.8867 316.143 43.868V37.596C316.143 37.1667 316.293 36.7933 316.591 36.476C316.909 36.1587 317.282 36 317.711 36H319.083C319.513 36 319.877 36.1587 320.175 36.476C320.493 36.7933 320.651 37.1667 320.651 37.596V55.404C320.651 55.8333 320.493 56.2067 320.175 56.524C319.877 56.8413 319.513 57 319.083 57H318.019C317.571 57 317.189 56.8507 316.871 56.552C316.573 56.2347 316.414 55.852 316.395 55.404V55.18C316.395 55.1613 316.386 55.152 316.367 55.152L316.311 55.208C315.135 56.5893 313.661 57.28 311.887 57.28ZM332.917 46.36C332.469 45.6693 331.778 45.324 330.845 45.324C329.911 45.324 329.211 45.6693 328.745 46.36C328.297 47.0507 328.073 48.1707 328.073 49.72C328.073 51.2693 328.297 52.3893 328.745 53.08C329.211 53.7707 329.911 54.116 330.845 54.116C331.778 54.116 332.469 53.7707 332.917 53.08C333.383 52.3893 333.617 51.2693 333.617 49.72C333.617 48.1707 333.383 47.0507 332.917 46.36ZM336.249 55.292C334.961 56.6173 333.159 57.28 330.845 57.28C328.53 57.28 326.729 56.6173 325.441 55.292C324.153 53.9667 323.509 52.1093 323.509 49.72C323.509 47.3307 324.153 45.4733 325.441 44.148C326.729 42.8227 328.53 42.16 330.845 42.16C333.159 42.16 334.961 42.8227 336.249 44.148C337.537 45.4733 338.181 47.3307 338.181 49.72C338.181 52.1093 337.537 53.9667 336.249 55.292ZM345.319 47.984V51.456C345.319 52.072 345.599 52.6413 346.159 53.164C346.738 53.668 347.391 53.92 348.119 53.92C348.978 53.92 349.659 53.5747 350.163 52.884C350.667 52.1747 350.919 51.12 350.919 49.72C350.919 46.92 349.986 45.52 348.119 45.52C347.391 45.52 346.738 45.7813 346.159 46.304C345.599 46.808 345.319 47.368 345.319 47.984ZM342.491 63.16C342.062 63.16 341.688 63.0013 341.371 62.684C341.054 62.3667 340.895 61.9933 340.895 61.564V44.036C340.895 43.6067 341.054 43.2333 341.371 42.916C341.688 42.5987 342.062 42.44 342.491 42.44H343.611C344.059 42.44 344.442 42.5987 344.759 42.916C345.076 43.2147 345.244 43.588 345.263 44.036V44.26C345.263 44.2787 345.272 44.288 345.291 44.288L345.347 44.232C346.542 42.8507 347.979 42.16 349.659 42.16C351.395 42.16 352.776 42.8133 353.803 44.12C354.848 45.4267 355.371 47.2933 355.371 49.72C355.371 52.072 354.83 53.92 353.747 55.264C352.683 56.608 351.32 57.28 349.659 57.28C348.11 57.28 346.728 56.7107 345.515 55.572C345.496 55.5533 345.478 55.544 345.459 55.544C345.44 55.544 345.431 55.5533 345.431 55.572V61.564C345.431 61.9933 345.272 62.3667 344.955 62.684C344.638 63.0013 344.264 63.16 343.835 63.16H342.491ZM358.853 46.164C358.424 46.164 358.051 46.0147 357.733 45.716C357.416 45.3987 357.257 45.0253 357.257 44.596C357.257 44.1667 357.416 43.7933 357.733 43.476C358.051 43.1587 358.424 43 358.853 43H359.973C360.123 43 360.197 42.916 360.197 42.748V39.276C360.197 38.8467 360.356 38.4733 360.673 38.156C360.991 37.8387 361.364 37.68 361.793 37.68H363.137C363.567 37.68 363.94 37.8387 364.257 38.156C364.575 38.4733 364.733 38.8467 364.733 39.276V42.748C364.733 42.916 364.817 43 364.985 43H367.729C368.159 43 368.523 43.1587 368.821 43.476C369.139 43.7933 369.297 44.1667 369.297 44.596C369.297 45.0253 369.139 45.3987 368.821 45.716C368.523 46.0147 368.159 46.164 367.729 46.164H364.985C364.817 46.164 364.733 46.248 364.733 46.416V51.204C364.733 52.38 364.836 53.1267 365.041 53.444C365.265 53.7613 365.751 53.92 366.497 53.92C366.889 53.92 367.197 53.9013 367.421 53.864C367.832 53.808 368.196 53.9013 368.513 54.144C368.831 54.3867 368.989 54.704 368.989 55.096V55.32C368.989 55.7867 368.84 56.1973 368.541 56.552C368.243 56.9067 367.86 57.112 367.393 57.168C366.815 57.2427 366.143 57.28 365.377 57.28C363.473 57.28 362.129 56.8787 361.345 56.076C360.58 55.2547 360.197 53.7893 360.197 51.68V46.416C360.197 46.248 360.123 46.164 359.973 46.164H358.853ZM375.292 57C374.863 57 374.49 56.8413 374.172 56.524C373.855 56.2067 373.696 55.8333 373.696 55.404V44.036C373.696 43.6067 373.855 43.2333 374.172 42.916C374.49 42.5987 374.863 42.44 375.292 42.44H376.86C377.29 42.44 377.663 42.5987 377.98 42.916C378.298 43.2333 378.456 43.6067 378.456 44.036V55.404C378.456 55.8333 378.298 56.2067 377.98 56.524C377.663 56.8413 377.29 57 376.86 57H375.292ZM375.292 39.64C374.863 39.64 374.49 39.4813 374.172 39.164C373.855 38.8467 373.696 38.4733 373.696 38.044V37.596C373.696 37.1667 373.855 36.7933 374.172 36.476C374.49 36.1587 374.863 36 375.292 36H376.86C377.29 36 377.663 36.1587 377.98 36.476C378.298 36.7933 378.456 37.1667 378.456 37.596V38.044C378.456 38.4733 378.298 38.8467 377.98 39.164C377.663 39.4813 377.29 39.64 376.86 39.64H375.292ZM391.268 46.36C390.82 45.6693 390.13 45.324 389.196 45.324C388.263 45.324 387.563 45.6693 387.096 46.36C386.648 47.0507 386.424 48.1707 386.424 49.72C386.424 51.2693 386.648 52.3893 387.096 53.08C387.563 53.7707 388.263 54.116 389.196 54.116C390.13 54.116 390.82 53.7707 391.268 53.08C391.735 52.3893 391.968 51.2693 391.968 49.72C391.968 48.1707 391.735 47.0507 391.268 46.36ZM394.6 55.292C393.312 56.6173 391.511 57.28 389.196 57.28C386.882 57.28 385.08 56.6173 383.792 55.292C382.504 53.9667 381.86 52.1093 381.86 49.72C381.86 47.3307 382.504 45.4733 383.792 44.148C385.08 42.8227 386.882 42.16 389.196 42.16C391.511 42.16 393.312 42.8227 394.6 44.148C395.888 45.4733 396.532 47.3307 396.532 49.72C396.532 52.1093 395.888 53.9667 394.6 55.292ZM400.814 57C400.385 57 400.012 56.8413 399.694 56.524C399.396 56.2067 399.246 55.8333 399.246 55.404V44.036C399.246 43.6067 399.396 43.2333 399.694 42.916C400.012 42.5987 400.385 42.44 400.814 42.44H401.962C402.41 42.44 402.784 42.5987 403.082 42.916C403.4 43.2147 403.568 43.588 403.586 44.036L403.614 44.26C403.614 44.2787 403.624 44.288 403.642 44.288L403.698 44.232C404.912 42.8507 406.368 42.16 408.066 42.16C409.765 42.16 410.988 42.6453 411.734 43.616C412.481 44.568 412.854 46.2013 412.854 48.516V55.404C412.854 55.8333 412.696 56.2067 412.378 56.524C412.08 56.8413 411.716 57 411.286 57H410.054C409.625 57 409.252 56.8413 408.934 56.524C408.617 56.2067 408.458 55.8333 408.458 55.404V48.656C408.458 47.536 408.309 46.7707 408.01 46.36C407.712 45.9307 407.17 45.716 406.386 45.716C405.733 45.716 405.126 45.9867 404.566 46.528C404.025 47.0507 403.754 47.62 403.754 48.236V55.404C403.754 55.8333 403.596 56.2067 403.278 56.524C402.98 56.8413 402.616 57 402.186 57H400.814ZM2.752 91.46L0.148 79.98C0.0733334 79.588 0.157333 79.2333 0.4 78.916C0.642667 78.5987 0.969333 78.44 1.38 78.44H2.78C3.24667 78.44 3.648 78.5893 3.984 78.888C4.32 79.1867 4.52533 79.56 4.6 80.008L6 89.332C6 89.3507 6.00933 89.36 6.028 89.36C6.04667 89.36 6.056 89.3507 6.056 89.332L7.596 80.008C7.67067 79.56 7.876 79.1867 8.212 78.888C8.548 78.5893 8.94933 78.44 9.416 78.44H11.488C11.9547 78.44 12.356 78.5893 12.692 78.888C13.0467 79.1867 13.2613 79.56 13.336 80.008L14.848 89.332C14.848 89.3507 14.8573 89.36 14.876 89.36C14.8947 89.36 14.904 89.3507 14.904 89.332L16.304 80.008C16.3787 79.56 16.584 79.1867 16.92 78.888C17.256 78.5893 17.6573 78.44 18.124 78.44H19.412C19.8227 78.44 20.1493 78.5987 20.392 78.916C20.6533 79.2333 20.7373 79.588 20.644 79.98L18.04 91.46C17.9467 91.908 17.7133 92.2813 17.34 92.58C16.9667 92.86 16.5467 93 16.08 93H13.896C13.4293 93 13.0187 92.8507 12.664 92.552C12.328 92.2533 12.1133 91.88 12.02 91.432L10.424 82.388C10.424 82.3693 10.4147 82.36 10.396 82.36C10.3773 82.36 10.368 82.3693 10.368 82.388L8.772 91.432C8.69733 91.88 8.48267 92.2533 8.128 92.552C7.77333 92.8507 7.36267 93 6.896 93H4.712C4.24533 93 3.82533 92.86 3.452 92.58C3.07867 92.2813 2.84533 91.908 2.752 91.46ZM29.3772 81.212C28.5372 81.212 27.9025 81.436 27.4732 81.884C27.0438 82.3133 26.7732 83.06 26.6612 84.124C26.6612 84.2733 26.7265 84.348 26.8572 84.348H31.5892C31.7572 84.348 31.8412 84.264 31.8412 84.096C31.7665 82.1733 30.9452 81.212 29.3772 81.212ZM30.0772 93.28C27.5385 93.28 25.5785 92.636 24.1972 91.348C22.8345 90.06 22.1532 88.184 22.1532 85.72C22.1532 83.2747 22.7598 81.408 23.9732 80.12C25.2052 78.8133 26.9785 78.16 29.2932 78.16C33.7358 78.16 35.9945 80.5867 36.0692 85.44C36.0692 85.888 35.8918 86.2707 35.5372 86.588C35.2012 86.8867 34.8092 87.036 34.3612 87.036H26.8852C26.6985 87.036 26.6238 87.12 26.6612 87.288C26.8105 88.3147 27.2025 89.052 27.8372 89.5C28.4905 89.9293 29.4612 90.144 30.7492 90.144C31.5892 90.144 32.4945 90.0227 33.4652 89.78C33.8572 89.6867 34.2025 89.7613 34.5012 90.004C34.8185 90.2467 34.9772 90.564 34.9772 90.956V91.012C34.9772 91.4787 34.8278 91.908 34.5292 92.3C34.2492 92.6733 33.8852 92.8973 33.4372 92.972C32.3545 93.1773 31.2345 93.28 30.0772 93.28ZM43.5018 83.984V87.456C43.5018 88.0907 43.7818 88.66 44.3418 89.164C44.9018 89.668 45.5552 89.92 46.3018 89.92C47.1605 89.92 47.8418 89.5747 48.3458 88.884C48.8498 88.1933 49.1018 87.1387 49.1018 85.72C49.1018 82.92 48.1685 81.52 46.3018 81.52C45.5552 81.52 44.9018 81.772 44.3418 82.276C43.7818 82.78 43.5018 83.3493 43.5018 83.984ZM40.6458 93C40.2165 93 39.8432 92.8413 39.5258 92.524C39.2272 92.2067 39.0778 91.8333 39.0778 91.404V73.596C39.0778 73.1667 39.2272 72.7933 39.5258 72.476C39.8432 72.1587 40.2165 72 40.6458 72H42.0178C42.4472 72 42.8112 72.1587 43.1098 72.476C43.4272 72.7933 43.5858 73.1667 43.5858 73.596V79.868C43.5858 79.8867 43.5952 79.896 43.6138 79.896C43.6325 79.896 43.6512 79.8867 43.6698 79.868C44.9205 78.7293 46.3112 78.16 47.8418 78.16C49.5778 78.16 50.9592 78.8133 51.9858 80.12C53.0125 81.4267 53.5258 83.2933 53.5258 85.72C53.5258 88.0907 52.9938 89.948 51.9298 91.292C50.8658 92.6173 49.5032 93.28 47.8418 93.28C46.0685 93.28 44.5938 92.5893 43.4178 91.208L43.3618 91.152C43.3432 91.152 43.3338 91.1613 43.3338 91.18V91.404C43.3152 91.852 43.1472 92.2347 42.8298 92.552C42.5312 92.8507 42.1578 93 41.7098 93H40.6458ZM61.5912 87.4C59.5752 87.0267 58.1285 86.448 57.2512 85.664C56.3925 84.88 55.9632 83.844 55.9632 82.556C55.9632 81.1747 56.4765 80.1013 57.5032 79.336C58.5485 78.552 60.1165 78.16 62.2072 78.16C63.4392 78.16 64.6992 78.2627 65.9872 78.468C66.4352 78.5427 66.7992 78.7573 67.0792 79.112C67.3778 79.4667 67.5272 79.8773 67.5272 80.344V80.484C67.5272 80.876 67.3685 81.1933 67.0512 81.436C66.7525 81.6787 66.4072 81.7627 66.0152 81.688C64.8018 81.4453 63.6818 81.324 62.6552 81.324C61.8898 81.324 61.3485 81.4173 61.0312 81.604C60.7325 81.7907 60.5832 82.0707 60.5832 82.444C60.5832 83.1533 61.1432 83.62 62.2632 83.844C64.3912 84.1987 65.8752 84.7587 66.7152 85.524C67.5738 86.2893 68.0032 87.4 68.0032 88.856C68.0032 90.256 67.4805 91.348 66.4352 92.132C65.3898 92.8973 63.8685 93.28 61.8712 93.28C60.4152 93.28 59.0338 93.14 57.7272 92.86C57.2792 92.7667 56.9058 92.5333 56.6072 92.16C56.3272 91.768 56.1872 91.3293 56.1872 90.844V90.62C56.1872 90.228 56.3458 89.9293 56.6632 89.724C56.9805 89.5 57.3352 89.4347 57.7272 89.528C58.9405 89.8453 60.1352 90.004 61.3112 90.004C62.6925 90.004 63.3832 89.6027 63.3832 88.8C63.3832 88.4267 63.2525 88.1373 62.9912 87.932C62.7485 87.7267 62.2818 87.5493 61.5912 87.4ZM73.5815 93C73.1522 93 72.7788 92.8413 72.4615 92.524C72.1442 92.2067 71.9855 91.8333 71.9855 91.404V80.036C71.9855 79.6067 72.1442 79.2333 72.4615 78.916C72.7788 78.5987 73.1522 78.44 73.5815 78.44H75.1495C75.5788 78.44 75.9522 78.5987 76.2695 78.916C76.5868 79.2333 76.7455 79.6067 76.7455 80.036V91.404C76.7455 91.8333 76.5868 92.2067 76.2695 92.524C75.9522 92.8413 75.5788 93 75.1495 93H73.5815ZM73.5815 75.64C73.1522 75.64 72.7788 75.4813 72.4615 75.164C72.1442 74.8467 71.9855 74.4733 71.9855 74.044V73.596C71.9855 73.1667 72.1442 72.7933 72.4615 72.476C72.7788 72.1587 73.1522 72 73.5815 72H75.1495C75.5788 72 75.9522 72.1587 76.2695 72.476C76.5868 72.7933 76.7455 73.1667 76.7455 73.596V74.044C76.7455 74.4733 76.5868 74.8467 76.2695 75.164C75.9522 75.4813 75.5788 75.64 75.1495 75.64H73.5815ZM82.0253 82.164C81.5959 82.164 81.2226 82.0147 80.9053 81.716C80.5879 81.3987 80.4293 81.0253 80.4293 80.596C80.4293 80.1667 80.5879 79.7933 80.9053 79.476C81.2226 79.1587 81.5959 79 82.0253 79H83.1453C83.2946 79 83.3693 78.916 83.3693 78.748V75.276C83.3693 74.8467 83.5279 74.4733 83.8453 74.156C84.1626 73.8387 84.5359 73.68 84.9653 73.68H86.3093C86.7386 73.68 87.1119 73.8387 87.4293 74.156C87.7466 74.4733 87.9053 74.8467 87.9053 75.276V78.748C87.9053 78.916 87.9893 79 88.1573 79H90.9013C91.3306 79 91.6946 79.1587 91.9933 79.476C92.3106 79.7933 92.4693 80.1667 92.4693 80.596C92.4693 81.0253 92.3106 81.3987 91.9933 81.716C91.6946 82.0147 91.3306 82.164 90.9013 82.164H88.1573C87.9893 82.164 87.9053 82.248 87.9053 82.416V87.204C87.9053 88.38 88.0079 89.1267 88.2133 89.444C88.4373 89.7613 88.9226 89.92 89.6693 89.92C90.0613 89.92 90.3693 89.9013 90.5933 89.864C91.0039 89.808 91.3679 89.9013 91.6853 90.144C92.0026 90.3867 92.1613 90.704 92.1613 91.096V91.32C92.1613 91.7867 92.0119 92.1973 91.7133 92.552C91.4146 92.9067 91.0319 93.112 90.5653 93.168C89.9866 93.2427 89.3146 93.28 88.5493 93.28C86.6453 93.28 85.3013 92.8787 84.5173 92.076C83.7519 91.2547 83.3693 89.7893 83.3693 87.68V82.416C83.3693 82.248 83.2946 82.164 83.1453 82.164H82.0253ZM102.139 81.212C101.299 81.212 100.664 81.436 100.235 81.884C99.8055 82.3133 99.5349 83.06 99.4229 84.124C99.4229 84.2733 99.4882 84.348 99.6189 84.348H104.351C104.519 84.348 104.603 84.264 104.603 84.096C104.528 82.1733 103.707 81.212 102.139 81.212ZM102.839 93.28C100.3 93.28 98.3402 92.636 96.9589 91.348C95.5962 90.06 94.9149 88.184 94.9149 85.72C94.9149 83.2747 95.5215 81.408 96.7349 80.12C97.9669 78.8133 99.7402 78.16 102.055 78.16C106.498 78.16 108.756 80.5867 108.831 85.44C108.831 85.888 108.654 86.2707 108.299 86.588C107.963 86.8867 107.571 87.036 107.123 87.036H99.6469C99.4602 87.036 99.3855 87.12 99.4229 87.288C99.5722 88.3147 99.9642 89.052 100.599 89.5C101.252 89.9293 102.223 90.144 103.511 90.144C104.351 90.144 105.256 90.0227 106.227 89.78C106.619 89.6867 106.964 89.7613 107.263 90.004C107.58 90.2467 107.739 90.564 107.739 90.956V91.012C107.739 91.4787 107.59 91.908 107.291 92.3C107.011 92.6733 106.647 92.8973 106.199 92.972C105.116 93.1773 103.996 93.28 102.839 93.28Z" fill="#150463"/>
</svg>
