<svg width="808" height="632" viewBox="0 0 808 632" fill="none" xmlns="http://www.w3.org/2000/svg">
<g clip-path="url(#clip0_51_11306)">
<rect width="808" height="632" fill="#FFEEDB"/>
<g clip-path="url(#clip1_51_11306)">
<rect width="808" height="80.8" transform="translate(808 80.8) rotate(-180)" fill="#F7BA58"/>
<path opacity="0.25" d="M808 80.8V49.6314C775.821 34.6834 738.249 27.9703 701.613 30.7781C654.238 34.3939 609.818 53.2068 562.368 56.0281C512.649 58.9638 463.024 44.6622 415.447 32.2864C368.805 20.1664 322.325 15.5338 274.451 23.4792C250.11 27.5192 227.418 35.4914 204.121 43.2348C141.743 63.9667 58.58 90.422 -1.62125e-05 45.4702V80.8L808 80.8Z" fill="white"/>
<path opacity="0.5" d="M808 80.8V70.1546C799.247 55.9406 789.389 42.5143 775.889 32.2864C741.064 5.87824 696.9 6.06005 656.783 19.1362C635.808 25.9705 616.322 36.69 596.405 45.9348C568.852 58.7282 539.353 76.9082 508.313 79.3793C483.898 81.2983 460.573 73.0365 441.922 58.1289C420.53 41.033 399.96 16.3822 372.145 8.97558C344.915 1.71032 317.369 13.4802 291.93 25.3241C266.492 37.168 241.323 51.5841 213.204 54.3111C172.986 58.2501 136.929 38.9052 99.4782 28.1588C79.1436 22.3278 59.7516 24.0044 40.8377 33.2088C25.7348 40.5414 8.51765 51.3417 -1.62125e-05 66.3638V80.8L808 80.8Z" fill="white"/>
<path d="M808 80.8V77.0092C707.047 41.0734 596.513 32.7779 487.608 52.1362C458.654 57.2805 430.893 65.6837 401.684 69.9526C361.957 75.7635 325.947 61.711 290.207 46.1166C250.527 28.8052 211.427 16.6718 167.525 20.2C109.262 24.9134 51.4022 50.9781 -1.62125e-05 77.3054V80.8L808 80.8Z" fill="#FFEEDB"/>
</g>
<g filter="url(#filter0_f_51_11306)">
<path fill-rule="evenodd" clip-rule="evenodd" d="M373.213 301.129C411.144 279.787 457.61 299.997 501.133 300.092C534.055 300.164 565.733 294.547 597.887 301.618C634.27 309.62 674.957 315.164 699.01 343.611C723.364 372.414 718.829 414.208 724.602 451.482C730.939 492.391 758.923 539.328 734.502 572.753C709.32 607.22 650.601 583.906 613.038 604.182C575.779 624.293 563.21 684.289 521.03 687.98C479.982 691.572 453.002 645.848 420.082 621.065C387.266 596.361 348.736 578.341 328.165 542.787C305.587 503.763 291.627 457.645 299.889 413.324C308.245 368.496 333.472 323.49 373.213 301.129Z" fill="#EAFFEA"/>
</g>
<g filter="url(#filter1_f_51_11306)">
<path fill-rule="evenodd" clip-rule="evenodd" d="M528.404 159.561C561.616 127.496 618.501 160.957 663.917 152.684C707.037 144.829 747.988 91.3556 786.338 112.575C826.851 134.991 798.136 205.989 826.458 242.619C855.576 280.279 940.628 269.98 944.711 317.409C948.765 364.498 865.375 369.256 840.838 409.651C818.201 446.919 849.695 511.565 812.73 534.694C776.587 557.309 733.561 509.825 691.455 503.122C654.413 497.226 614.472 515.432 581.334 497.861C546.564 479.424 521.708 444.412 509.918 406.864C498.406 370.204 514.508 332.488 517.372 294.17C520.798 248.347 495.347 191.478 528.404 159.561Z" fill="#F3EEFF"/>
</g>
</g>
<defs>
<filter id="filter0_f_51_11306" x="228.89" y="222.746" width="584.044" height="534.034" filterUnits="userSpaceOnUse" color-interpolation-filters="sRGB">
<feFlood flood-opacity="0" result="BackgroundImageFix"/>
<feBlend mode="normal" in="SourceGraphic" in2="BackgroundImageFix" result="shape"/>
<feGaussianBlur stdDeviation="34.2997" result="effect1_foregroundBlur_51_11306"/>
</filter>
<filter id="filter1_f_51_11306" x="437.221" y="39.0317" width="576.233" height="570.321" filterUnits="userSpaceOnUse" color-interpolation-filters="sRGB">
<feFlood flood-opacity="0" result="BackgroundImageFix"/>
<feBlend mode="normal" in="SourceGraphic" in2="BackgroundImageFix" result="shape"/>
<feGaussianBlur stdDeviation="34.2997" result="effect1_foregroundBlur_51_11306"/>
</filter>
<clipPath id="clip0_51_11306">
<rect width="808" height="632" fill="white"/>
</clipPath>
<clipPath id="clip1_51_11306">
<rect width="808" height="80.8" fill="white" transform="translate(808 80.8) rotate(-180)"/>
</clipPath>
</defs>
</svg>
