<svg width="404" height="44" viewBox="0 0 404 44" fill="none" xmlns="http://www.w3.org/2000/svg">
<path d="M9.851 9.028V21.454C9.851 21.72 10.022 21.891 10.364 21.967C11.656 22.119 12.682 22.195 13.442 22.195C16.178 22.195 18.287 21.568 19.769 20.314C21.289 19.022 22.049 17.236 22.049 14.956C22.049 10.434 19.18 8.173 13.442 8.173C12.492 8.173 11.447 8.268 10.307 8.458C10.003 8.534 9.851 8.724 9.851 9.028ZM3.581 43C2.707 43 1.947 42.677 1.301 42.031C0.655 41.385 0.332 40.625 0.332 39.751V4.924C0.332 4.012 0.636 3.195 1.244 2.473C1.852 1.751 2.612 1.352 3.524 1.276C6.754 0.971999 9.87 0.819999 12.872 0.819999C25.032 0.819999 31.112 5.342 31.112 14.386C31.112 19.288 29.687 23.012 26.837 25.558C24.025 28.066 19.883 29.32 14.411 29.32C12.967 29.32 11.618 29.263 10.364 29.149C10.022 29.149 9.851 29.301 9.851 29.605V39.751C9.851 40.625 9.528 41.385 8.882 42.031C8.236 42.677 7.476 43 6.602 43H3.581ZM47.4655 9.826L43.3045 26.185C43.2665 26.299 43.2855 26.413 43.3615 26.527C43.4755 26.603 43.5895 26.641 43.7035 26.641H51.3415C51.4555 26.641 51.5505 26.603 51.6265 26.527C51.7405 26.413 51.7785 26.299 51.7405 26.185L47.5795 9.826C47.5795 9.788 47.5605 9.769 47.5225 9.769C47.4845 9.769 47.4655 9.788 47.4655 9.826ZM32.2465 43C31.4485 43 30.8025 42.677 30.3085 42.031C29.8525 41.385 29.7575 40.682 30.0235 39.922L41.5375 4.468C41.8415 3.556 42.3735 2.815 43.1335 2.245C43.9315 1.675 44.8055 1.39 45.7555 1.39H49.5175C50.5055 1.39 51.3985 1.675 52.1965 2.245C52.9945 2.815 53.5265 3.556 53.7925 4.468L65.2495 39.922C65.5155 40.682 65.4015 41.385 64.9075 42.031C64.4515 42.677 63.8245 43 63.0265 43H59.2075C58.2575 43 57.4025 42.715 56.6425 42.145C55.8825 41.537 55.3885 40.777 55.1605 39.865L53.7925 34.45C53.7545 34.146 53.5645 33.994 53.2225 33.994H41.8225C41.5185 33.994 41.3285 34.146 41.2525 34.45L39.8845 39.865C39.6565 40.777 39.1625 41.537 38.4025 42.145C37.6425 42.715 36.7875 43 35.8375 43H32.2465ZM70.6986 39.808L63.6876 4.582C63.4976 3.746 63.6686 3.005 64.2006 2.359C64.7706 1.713 65.4736 1.39 66.3096 1.39H69.6156C70.5276 1.39 71.3446 1.694 72.0666 2.302C72.7886 2.91 73.2066 3.67 73.3206 4.582L77.1966 33.082C77.1966 33.12 77.2156 33.139 77.2536 33.139C77.2916 33.139 77.3106 33.12 77.3106 33.082L80.8446 4.582C80.9586 3.67 81.3576 2.91 82.0416 2.302C82.7256 1.694 83.5236 1.39 84.4356 1.39H89.7936C90.7056 1.39 91.5036 1.694 92.1876 2.302C92.8716 2.91 93.2706 3.67 93.3846 4.582L96.9186 33.082C96.9186 33.12 96.9376 33.139 96.9756 33.139C97.0136 33.139 97.0326 33.12 97.0326 33.082L100.909 4.582C101.023 3.67 101.441 2.91 102.163 2.302C102.885 1.694 103.702 1.39 104.614 1.39H107.692C108.528 1.39 109.212 1.713 109.744 2.359C110.276 3.005 110.466 3.746 110.314 4.582L103.303 39.808C103.113 40.72 102.657 41.48 101.935 42.088C101.213 42.696 100.377 43 99.4266 43H94.5816C93.6696 43 92.8526 42.696 92.1306 42.088C91.4466 41.48 91.0476 40.72 90.9336 39.808L87.0576 11.308C87.0576 11.27 87.0386 11.251 87.0006 11.251C86.9626 11.251 86.9436 11.27 86.9436 11.308L83.0676 39.808C82.9536 40.72 82.5356 41.48 81.8136 42.088C81.1296 42.696 80.3316 43 79.4196 43H74.5746C73.6246 43 72.7696 42.696 72.0096 42.088C71.2876 41.48 70.8506 40.72 70.6986 39.808ZM127.282 26.356C122.494 24.836 119.036 22.955 116.908 20.713C114.78 18.433 113.716 15.659 113.716 12.391C113.716 8.819 114.951 6.007 117.421 3.955C119.929 1.865 123.501 0.819999 128.137 0.819999C131.633 0.819999 134.806 1.219 137.656 2.017C138.568 2.283 139.29 2.834 139.822 3.67C140.392 4.468 140.677 5.361 140.677 6.349V8.002C140.677 8.762 140.354 9.351 139.708 9.769C139.062 10.187 138.378 10.263 137.656 9.997C134.426 8.857 131.443 8.287 128.707 8.287C125.211 8.287 123.463 9.655 123.463 12.391C123.463 14.709 124.983 16.362 128.023 17.35C133.267 18.946 136.896 20.808 138.91 22.936C140.962 25.064 141.988 27.857 141.988 31.315C141.988 39.485 136.839 43.57 126.541 43.57C123.273 43.57 120.309 43.057 117.649 42.031C116.737 41.689 116.015 41.1 115.483 40.264C114.989 39.39 114.742 38.44 114.742 37.414V35.59C114.742 34.906 115.046 34.393 115.654 34.051C116.262 33.671 116.87 33.633 117.478 33.937C120.252 35.305 123.083 35.989 125.971 35.989C127.985 35.989 129.505 35.609 130.531 34.849C131.595 34.051 132.127 32.93 132.127 31.486C132.127 30.232 131.766 29.206 131.044 28.408C130.322 27.61 129.068 26.926 127.282 26.356ZM168.544 43C167.67 43 166.91 42.677 166.264 42.031C165.618 41.385 165.295 40.625 165.295 39.751V4.639C165.295 3.765 165.618 3.005 166.264 2.359C166.91 1.713 167.67 1.39 168.544 1.39H171.337C173.503 1.39 175.08 2.34 176.068 4.24L188.038 26.869C188.038 26.907 188.057 26.926 188.095 26.926C188.133 26.926 188.152 26.907 188.152 26.869V4.639C188.152 3.765 188.475 3.005 189.121 2.359C189.767 1.713 190.527 1.39 191.401 1.39H194.194C195.068 1.39 195.828 1.713 196.474 2.359C197.12 3.005 197.443 3.765 197.443 4.639V39.751C197.443 40.625 197.12 41.385 196.474 42.031C195.828 42.677 195.068 43 194.194 43H191.401C189.235 43 187.658 42.05 186.67 40.15L174.7 17.521C174.7 17.483 174.681 17.464 174.643 17.464C174.605 17.464 174.586 17.483 174.586 17.521V39.751C174.586 40.625 174.263 41.385 173.617 42.031C172.971 42.677 172.211 43 171.337 43H168.544ZM239.684 43.57C233.452 43.57 228.55 41.727 224.978 38.041C221.406 34.355 219.62 29.073 219.62 22.195C219.62 15.431 221.349 10.187 224.807 6.463C228.265 2.701 233.091 0.819999 239.285 0.819999C242.249 0.819999 244.833 1.029 247.037 1.447C247.949 1.599 248.69 2.055 249.26 2.815C249.83 3.575 250.115 4.43 250.115 5.38V7.204C250.115 8.002 249.792 8.629 249.146 9.085C248.5 9.541 247.797 9.674 247.037 9.484C244.871 8.914 242.667 8.629 240.425 8.629C237.005 8.629 234.326 9.788 232.388 12.106C230.488 14.424 229.538 17.787 229.538 22.195C229.538 26.527 230.564 29.89 232.616 32.284C234.668 34.678 237.404 35.875 240.824 35.875C243.104 35.875 245.327 35.59 247.493 35.02C248.253 34.83 248.956 34.963 249.602 35.419C250.286 35.875 250.628 36.502 250.628 37.3V39.01C250.628 39.96 250.324 40.815 249.716 41.575C249.146 42.335 248.405 42.791 247.493 42.943C245.251 43.361 242.648 43.57 239.684 43.57ZM262.033 43C261.159 43 260.399 42.677 259.753 42.031C259.107 41.385 258.784 40.625 258.784 39.751V4.639C258.784 3.765 259.107 3.005 259.753 2.359C260.399 1.713 261.159 1.39 262.033 1.39H265.567C266.441 1.39 267.182 1.713 267.79 2.359C268.436 3.005 268.759 3.765 268.759 4.639V34.507C268.759 34.811 268.93 34.963 269.272 34.963H283.123C283.997 34.963 284.757 35.286 285.403 35.932C286.049 36.578 286.372 37.338 286.372 38.212V39.751C286.372 40.625 286.049 41.385 285.403 42.031C284.757 42.677 283.997 43 283.123 43H262.033ZM308.756 9.826L304.595 26.185C304.557 26.299 304.576 26.413 304.652 26.527C304.766 26.603 304.88 26.641 304.994 26.641H312.632C312.746 26.641 312.841 26.603 312.917 26.527C313.031 26.413 313.069 26.299 313.031 26.185L308.87 9.826C308.87 9.788 308.851 9.769 308.813 9.769C308.775 9.769 308.756 9.788 308.756 9.826ZM293.537 43C292.739 43 292.093 42.677 291.599 42.031C291.143 41.385 291.048 40.682 291.314 39.922L302.828 4.468C303.132 3.556 303.664 2.815 304.424 2.245C305.222 1.675 306.096 1.39 307.046 1.39H310.808C311.796 1.39 312.689 1.675 313.487 2.245C314.285 2.815 314.817 3.556 315.083 4.468L326.54 39.922C326.806 40.682 326.692 41.385 326.198 42.031C325.742 42.677 325.115 43 324.317 43H320.498C319.548 43 318.693 42.715 317.933 42.145C317.173 41.537 316.679 40.777 316.451 39.865L315.083 34.45C315.045 34.146 314.855 33.994 314.513 33.994H303.113C302.809 33.994 302.619 34.146 302.543 34.45L301.175 39.865C300.947 40.777 300.453 41.537 299.693 42.145C298.933 42.715 298.078 43 297.128 43H293.537ZM331.99 39.808L324.979 4.582C324.789 3.746 324.96 3.005 325.492 2.359C326.062 1.713 326.765 1.39 327.601 1.39H330.907C331.819 1.39 332.636 1.694 333.358 2.302C334.08 2.91 334.498 3.67 334.612 4.582L338.488 33.082C338.488 33.12 338.507 33.139 338.545 33.139C338.583 33.139 338.602 33.12 338.602 33.082L342.136 4.582C342.25 3.67 342.649 2.91 343.333 2.302C344.017 1.694 344.815 1.39 345.727 1.39H351.085C351.997 1.39 352.795 1.694 353.479 2.302C354.163 2.91 354.562 3.67 354.676 4.582L358.21 33.082C358.21 33.12 358.229 33.139 358.267 33.139C358.305 33.139 358.324 33.12 358.324 33.082L362.2 4.582C362.314 3.67 362.732 2.91 363.454 2.302C364.176 1.694 364.993 1.39 365.905 1.39H368.983C369.819 1.39 370.503 1.713 371.035 2.359C371.567 3.005 371.757 3.746 371.605 4.582L364.594 39.808C364.404 40.72 363.948 41.48 363.226 42.088C362.504 42.696 361.668 43 360.718 43H355.873C354.961 43 354.144 42.696 353.422 42.088C352.738 41.48 352.339 40.72 352.225 39.808L348.349 11.308C348.349 11.27 348.33 11.251 348.292 11.251C348.254 11.251 348.235 11.27 348.235 11.308L344.359 39.808C344.245 40.72 343.827 41.48 343.105 42.088C342.421 42.696 341.623 43 340.711 43H335.866C334.916 43 334.061 42.696 333.301 42.088C332.579 41.48 332.142 40.72 331.99 39.808ZM388.573 26.356C383.785 24.836 380.327 22.955 378.199 20.713C376.071 18.433 375.007 15.659 375.007 12.391C375.007 8.819 376.242 6.007 378.712 3.955C381.22 1.865 384.792 0.819999 389.428 0.819999C392.924 0.819999 396.097 1.219 398.947 2.017C399.859 2.283 400.581 2.834 401.113 3.67C401.683 4.468 401.968 5.361 401.968 6.349V8.002C401.968 8.762 401.645 9.351 400.999 9.769C400.353 10.187 399.669 10.263 398.947 9.997C395.717 8.857 392.734 8.287 389.998 8.287C386.502 8.287 384.754 9.655 384.754 12.391C384.754 14.709 386.274 16.362 389.314 17.35C394.558 18.946 398.187 20.808 400.201 22.936C402.253 25.064 403.279 27.857 403.279 31.315C403.279 39.485 398.13 43.57 387.832 43.57C384.564 43.57 381.6 43.057 378.94 42.031C378.028 41.689 377.306 41.1 376.774 40.264C376.28 39.39 376.033 38.44 376.033 37.414V35.59C376.033 34.906 376.337 34.393 376.945 34.051C377.553 33.671 378.161 33.633 378.769 33.937C381.543 35.305 384.374 35.989 387.262 35.989C389.276 35.989 390.796 35.609 391.822 34.849C392.886 34.051 393.418 32.93 393.418 31.486C393.418 30.232 393.057 29.206 392.335 28.408C391.613 27.61 390.359 26.926 388.573 26.356Z" fill="#442C00"/>
</svg>
