<svg width="341" height="104" viewBox="0 0 341 104" fill="none" xmlns="http://www.w3.org/2000/svg">
<path d="M6.56595 14.593H12.4869L11.3399 11.431C10.9886 10.563 10.6786 9.757 10.4099 9.013C10.162 8.24833 9.89328 7.38033 9.60395 6.409H9.54195C9.23195 7.31833 8.94262 8.16567 8.67395 8.951C8.40528 9.71567 8.09528 10.5527 7.74395 11.462L6.56595 14.593ZM8.05395 2.72H11.2159L18.811 22.25H15.339L13.3859 17.135H5.72895L3.80695 22.25H0.365949L8.05395 2.72ZM33.5723 0.084999C34.2129 0.084999 34.8639 0.177999 35.5253 0.363999C36.1866 0.529333 36.7756 0.746332 37.2923 1.015L36.6413 3.185C36.2486 3.01967 35.8663 2.88533 35.4943 2.782C35.1429 2.67867 34.7606 2.627 34.3473 2.627C33.4379 2.627 32.7766 2.88533 32.3633 3.402C31.9706 3.898 31.7743 4.766 31.7743 6.006V7.618H35.9903V9.974H31.7743V22.25H28.6123V9.974H26.4423V7.618H28.6123V5.138C28.6123 3.526 29.0463 2.286 29.9143 1.418C30.7823 0.529332 32.0016 0.084999 33.5723 0.084999ZM48.2585 7.618H51.4515V22.25H49.0025L48.5995 20.483H48.4755C47.9589 21.0203 47.3079 21.506 46.5225 21.94C45.7372 22.3533 44.7865 22.56 43.6705 22.56C42.1205 22.56 40.8805 22.126 39.9505 21.258C39.0205 20.39 38.5555 19.088 38.5555 17.352V7.618H41.7485V17.011C41.7485 18.1477 42.0069 18.9433 42.5235 19.398C43.0609 19.8527 43.7015 20.08 44.4455 20.08C45.2515 20.08 45.9645 19.9147 46.5845 19.584C47.2045 19.2327 47.7625 18.778 48.2585 18.22V7.618ZM55.6024 22.25V0.208999H58.7334V22.25H55.6024ZM63.0496 22.25V0.208999H66.1806V22.25H63.0496ZM68.6059 7.618H72.0469L74.9919 15.523L76.0459 19.026H76.1079L77.1309 15.492L79.7969 7.618H83.0519L77.5029 23.242C76.8829 24.9987 76.0872 26.4247 75.1159 27.52C74.1652 28.636 72.9149 29.4627 71.3649 30L70.0009 27.489C71.0342 27.0963 71.9332 26.528 72.6979 25.784C73.4626 25.0607 74.0309 24.11 74.4029 22.932L74.6509 22.219L68.6059 7.618ZM92.2599 22.25V7.618H94.6779L95.1429 10.439C95.4942 9.571 96.0625 8.84767 96.8479 8.269C97.6332 7.66967 98.5839 7.37 99.6999 7.37C100.196 7.37 100.62 7.41133 100.971 7.494C101.343 7.57667 101.674 7.69033 101.963 7.835L101.374 10.501C101.126 10.377 100.837 10.2737 100.506 10.191C100.196 10.1083 99.8342 10.067 99.4209 10.067C98.2842 10.067 97.3335 10.4597 96.5689 11.245C95.8042 12.0097 95.4219 13.1773 95.4219 14.748V22.25H92.2599ZM115.899 15.492H105.638V15.616C105.638 17.104 106.072 18.2303 106.94 18.995C107.808 19.7597 108.955 20.142 110.381 20.142C111.166 20.142 111.869 20.08 112.489 19.956C113.129 19.8113 113.77 19.5943 114.411 19.305L115.031 21.63C114.431 21.8987 113.718 22.1157 112.892 22.281C112.065 22.467 111.156 22.56 110.164 22.56C109.11 22.56 108.107 22.4153 107.157 22.126C106.206 21.8367 105.369 21.382 104.646 20.762C103.943 20.142 103.385 19.3567 102.972 18.406C102.558 17.4553 102.352 16.3187 102.352 14.996C102.352 13.8593 102.517 12.826 102.848 11.896C103.199 10.9453 103.685 10.1393 104.305 9.478C104.945 8.796 105.71 8.27933 106.599 7.928C107.508 7.556 108.51 7.37 109.606 7.37C110.556 7.37 111.414 7.525 112.179 7.835C112.964 8.145 113.625 8.58933 114.163 9.168C114.721 9.726 115.144 10.4183 115.434 11.245C115.744 12.051 115.899 12.95 115.899 13.942V15.492ZM112.613 13.26C112.613 12.764 112.551 12.299 112.427 11.865C112.303 11.431 112.117 11.059 111.869 10.749C111.621 10.4183 111.29 10.16 110.877 9.974C110.484 9.76733 110.009 9.664 109.451 9.664C108.417 9.664 107.57 9.99467 106.909 10.656C106.268 11.3173 105.875 12.206 105.731 13.322L112.613 13.26ZM127.424 10.594C126.763 10.284 126.143 10.067 125.564 9.943C125.006 9.79833 124.448 9.726 123.89 9.726C123.022 9.726 122.361 9.89133 121.906 10.222C121.472 10.532 121.255 10.9557 121.255 11.493C121.255 11.9063 121.42 12.268 121.751 12.578C122.082 12.8673 122.764 13.1567 123.797 13.446L124.727 13.725C126.07 14.1383 127.083 14.6757 127.765 15.337C128.468 15.9983 128.819 16.887 128.819 18.003C128.819 19.367 128.302 20.4727 127.269 21.32C126.236 22.1467 124.82 22.56 123.022 22.56C122.051 22.56 121.141 22.467 120.294 22.281C119.467 22.1157 118.723 21.878 118.062 21.568L118.806 19.15C119.405 19.4393 120.046 19.677 120.728 19.863C121.41 20.049 122.113 20.142 122.836 20.142C123.725 20.142 124.417 19.987 124.913 19.677C125.409 19.367 125.657 18.8917 125.657 18.251C125.657 17.6517 125.43 17.228 124.975 16.98C124.541 16.7113 123.859 16.4323 122.929 16.143L121.968 15.864C120.666 15.43 119.695 14.8823 119.054 14.221C118.434 13.5597 118.124 12.6917 118.124 11.617C118.124 10.9763 118.258 10.3977 118.527 9.881C118.796 9.36433 119.168 8.92 119.643 8.548C120.118 8.176 120.687 7.88667 121.348 7.68C122.03 7.47333 122.774 7.37 123.58 7.37C124.345 7.37 125.12 7.44233 125.905 7.587C126.711 7.73167 127.455 7.959 128.137 8.269L127.424 10.594ZM138.244 22.56C137.624 22.56 137.024 22.4773 136.446 22.312C135.867 22.1467 135.371 21.9193 134.958 21.63V29.38H131.796V7.432H134.369L134.772 9.261C135.35 8.72367 136.001 8.27933 136.725 7.928C137.448 7.556 138.285 7.37 139.236 7.37C141.178 7.37 142.708 8.00033 143.824 9.261C144.94 10.5217 145.498 12.3093 145.498 14.624C145.498 15.9673 145.291 17.1453 144.878 18.158C144.485 19.15 143.948 19.9767 143.266 20.638C142.604 21.2787 141.829 21.7643 140.941 22.095C140.073 22.405 139.174 22.56 138.244 22.56ZM138.461 9.881C137.675 9.881 136.973 10.0773 136.353 10.47C135.753 10.842 135.288 11.2347 134.958 11.648V19.181C135.805 19.8217 136.766 20.142 137.841 20.142C138.378 20.142 138.905 20.049 139.422 19.863C139.938 19.677 140.403 19.367 140.817 18.933C141.23 18.499 141.561 17.941 141.809 17.259C142.057 16.5563 142.181 15.709 142.181 14.717C142.181 13.2497 141.871 12.082 141.251 11.214C140.651 10.3253 139.721 9.881 138.461 9.881ZM162.362 14.779C162.362 15.9983 162.166 17.0937 161.773 18.065C161.401 19.0363 160.884 19.8527 160.223 20.514C159.562 21.1753 158.787 21.6817 157.898 22.033C157.009 22.3843 156.048 22.56 155.015 22.56C153.982 22.56 153.021 22.3947 152.132 22.064C151.264 21.7333 150.499 21.258 149.838 20.638C149.197 19.9973 148.691 19.212 148.319 18.282C147.968 17.352 147.792 16.2877 147.792 15.089C147.792 13.849 147.978 12.7537 148.35 11.803C148.743 10.8523 149.27 10.0463 149.931 9.385C150.592 8.72367 151.367 8.22767 152.256 7.897C153.145 7.54567 154.106 7.37 155.139 7.37C156.172 7.37 157.123 7.53533 157.991 7.866C158.88 8.176 159.644 8.641 160.285 9.261C160.946 9.881 161.453 10.656 161.804 11.586C162.176 12.516 162.362 13.5803 162.362 14.779ZM159.045 14.934C159.045 14.004 158.931 13.2187 158.704 12.578C158.477 11.9167 158.177 11.3793 157.805 10.966C157.433 10.5527 157.009 10.253 156.534 10.067C156.059 9.881 155.563 9.788 155.046 9.788C154.55 9.788 154.064 9.87067 153.589 10.036C153.114 10.2013 152.69 10.4803 152.318 10.873C151.946 11.2657 151.646 11.7927 151.419 12.454C151.212 13.1153 151.109 13.942 151.109 14.934C151.109 15.8433 151.223 16.6287 151.45 17.29C151.677 17.9513 151.977 18.499 152.349 18.933C152.721 19.3463 153.145 19.6563 153.62 19.863C154.116 20.049 154.612 20.142 155.108 20.142C155.604 20.142 156.09 20.0593 156.565 19.894C157.04 19.7287 157.464 19.4497 157.836 19.057C158.208 18.6437 158.497 18.1063 158.704 17.445C158.931 16.763 159.045 15.926 159.045 14.934ZM168.746 22.25H165.553V7.618H168.064L168.498 9.571C169.221 8.86833 169.975 8.331 170.761 7.959C171.567 7.56633 172.476 7.37 173.489 7.37C175.039 7.37 176.237 7.79367 177.085 8.641C177.932 9.48833 178.356 10.6973 178.356 12.268V22.25H175.163V12.671C175.163 11.8237 174.946 11.152 174.512 10.656C174.078 10.16 173.427 9.912 172.559 9.912C171.897 9.912 171.236 10.0773 170.575 10.408C169.934 10.718 169.324 11.1727 168.746 11.772V22.25ZM190.847 10.594C190.186 10.284 189.566 10.067 188.987 9.943C188.429 9.79833 187.871 9.726 187.313 9.726C186.445 9.726 185.784 9.89133 185.329 10.222C184.895 10.532 184.678 10.9557 184.678 11.493C184.678 11.9063 184.843 12.268 185.174 12.578C185.505 12.8673 186.187 13.1567 187.22 13.446L188.15 13.725C189.493 14.1383 190.506 14.6757 191.188 15.337C191.891 15.9983 192.242 16.887 192.242 18.003C192.242 19.367 191.725 20.4727 190.692 21.32C189.659 22.1467 188.243 22.56 186.445 22.56C185.474 22.56 184.564 22.467 183.717 22.281C182.89 22.1157 182.146 21.878 181.485 21.568L182.229 19.15C182.828 19.4393 183.469 19.677 184.151 19.863C184.833 20.049 185.536 20.142 186.259 20.142C187.148 20.142 187.84 19.987 188.336 19.677C188.832 19.367 189.08 18.8917 189.08 18.251C189.08 17.6517 188.853 17.228 188.398 16.98C187.964 16.7113 187.282 16.4323 186.352 16.143L185.391 15.864C184.089 15.43 183.118 14.8823 182.477 14.221C181.857 13.5597 181.547 12.6917 181.547 11.617C181.547 10.9763 181.681 10.3977 181.95 9.881C182.219 9.36433 182.591 8.92 183.066 8.548C183.541 8.176 184.11 7.88667 184.771 7.68C185.453 7.47333 186.197 7.37 187.003 7.37C187.768 7.37 188.543 7.44233 189.328 7.587C190.134 7.73167 190.878 7.959 191.56 8.269L190.847 10.594ZM195.652 22.25V7.618H198.845V22.25H195.652ZM197.264 3.991C196.706 3.991 196.262 3.82567 195.931 3.495C195.601 3.14367 195.435 2.70967 195.435 2.193C195.435 1.67633 195.601 1.25267 195.931 0.921999C196.262 0.570666 196.706 0.394999 197.264 0.394999C197.802 0.394999 198.236 0.570666 198.566 0.921999C198.918 1.25267 199.093 1.67633 199.093 2.193C199.093 2.73033 198.918 3.16433 198.566 3.495C198.236 3.82567 197.802 3.991 197.264 3.991ZM212.295 7.618H215.674L210.311 22.25H206.963L201.6 7.618H205.041L207.955 16.732L208.606 19.77H208.73L209.381 16.763L212.295 7.618ZM230.393 15.492H220.132V15.616C220.132 17.104 220.566 18.2303 221.434 18.995C222.302 19.7597 223.449 20.142 224.875 20.142C225.66 20.142 226.363 20.08 226.983 19.956C227.623 19.8113 228.264 19.5943 228.905 19.305L229.525 21.63C228.925 21.8987 228.212 22.1157 227.386 22.281C226.559 22.467 225.65 22.56 224.658 22.56C223.604 22.56 222.601 22.4153 221.651 22.126C220.7 21.8367 219.863 21.382 219.14 20.762C218.437 20.142 217.879 19.3567 217.466 18.406C217.052 17.4553 216.846 16.3187 216.846 14.996C216.846 13.8593 217.011 12.826 217.342 11.896C217.693 10.9453 218.179 10.1393 218.799 9.478C219.439 8.796 220.204 8.27933 221.093 7.928C222.002 7.556 223.004 7.37 224.1 7.37C225.05 7.37 225.908 7.525 226.673 7.835C227.458 8.145 228.119 8.58933 228.657 9.168C229.215 9.726 229.638 10.4183 229.928 11.245C230.238 12.051 230.393 12.95 230.393 13.942V15.492ZM227.107 13.26C227.107 12.764 227.045 12.299 226.921 11.865C226.797 11.431 226.611 11.059 226.363 10.749C226.115 10.4183 225.784 10.16 225.371 9.974C224.978 9.76733 224.503 9.664 223.945 9.664C222.911 9.664 222.064 9.99467 221.403 10.656C220.762 11.3173 220.369 12.206 220.225 13.322L227.107 13.26ZM238.774 7.618H242.153L244.447 16.329L245.005 19.801H245.129L245.811 16.329L248.074 7.618H251.484L253.84 16.329L254.491 19.801H254.615L255.266 16.329L257.498 7.618H260.753L256.444 22.25H252.755L250.461 13.632L249.779 10.036L249.066 13.632L246.71 22.25H243.145L238.774 7.618ZM275.561 15.492H265.3V15.616C265.3 17.104 265.734 18.2303 266.602 18.995C267.47 19.7597 268.617 20.142 270.043 20.142C270.828 20.142 271.531 20.08 272.151 19.956C272.791 19.8113 273.432 19.5943 274.073 19.305L274.693 21.63C274.093 21.8987 273.38 22.1157 272.554 22.281C271.727 22.467 270.818 22.56 269.826 22.56C268.772 22.56 267.769 22.4153 266.819 22.126C265.868 21.8367 265.031 21.382 264.308 20.762C263.605 20.142 263.047 19.3567 262.634 18.406C262.22 17.4553 262.014 16.3187 262.014 14.996C262.014 13.8593 262.179 12.826 262.51 11.896C262.861 10.9453 263.347 10.1393 263.967 9.478C264.607 8.796 265.372 8.27933 266.261 7.928C267.17 7.556 268.172 7.37 269.268 7.37C270.218 7.37 271.076 7.525 271.841 7.835C272.626 8.145 273.287 8.58933 273.825 9.168C274.383 9.726 274.806 10.4183 275.096 11.245C275.406 12.051 275.561 12.95 275.561 13.942V15.492ZM272.275 13.26C272.275 12.764 272.213 12.299 272.089 11.865C271.965 11.431 271.779 11.059 271.531 10.749C271.283 10.4183 270.952 10.16 270.539 9.974C270.146 9.76733 269.671 9.664 269.113 9.664C268.079 9.664 267.232 9.99467 266.571 10.656C265.93 11.3173 265.537 12.206 265.393 13.322L272.275 13.26ZM292.511 14.934C292.511 16.112 292.335 17.1763 291.984 18.127C291.633 19.057 291.147 19.8527 290.527 20.514C289.928 21.1753 289.215 21.6817 288.388 22.033C287.582 22.3843 286.714 22.56 285.784 22.56C284.833 22.56 284.007 22.4257 283.304 22.157C282.601 21.8677 281.95 21.444 281.351 20.886H281.289L281.01 22.25H278.716V0.208999H281.878V9.23C282.477 8.61 283.159 8.145 283.924 7.835C284.689 7.525 285.495 7.37 286.342 7.37C288.243 7.37 289.742 8.04167 290.837 9.385C291.953 10.7077 292.511 12.5573 292.511 14.934ZM289.194 14.996C289.194 13.4253 288.863 12.1853 288.202 11.276C287.541 10.3667 286.621 9.912 285.443 9.912C284.72 9.912 284.058 10.0773 283.459 10.408C282.88 10.7387 282.353 11.1727 281.878 11.71V18.685C282.25 19.119 282.684 19.4703 283.18 19.739C283.697 20.0077 284.275 20.142 284.916 20.142C285.474 20.142 286.011 20.0387 286.528 19.832C287.045 19.6253 287.499 19.3153 287.892 18.902C288.285 18.4887 288.595 17.9617 288.822 17.321C289.07 16.6597 289.194 15.8847 289.194 14.996ZM304.1 10.594C303.438 10.284 302.818 10.067 302.24 9.943C301.682 9.79833 301.124 9.726 300.566 9.726C299.698 9.726 299.036 9.89133 298.582 10.222C298.148 10.532 297.931 10.9557 297.931 11.493C297.931 11.9063 298.096 12.268 298.427 12.578C298.757 12.8673 299.439 13.1567 300.473 13.446L301.403 13.725C302.746 14.1383 303.759 14.6757 304.441 15.337C305.143 15.9983 305.495 16.887 305.495 18.003C305.495 19.367 304.978 20.4727 303.945 21.32C302.911 22.1467 301.496 22.56 299.698 22.56C298.726 22.56 297.817 22.467 296.97 22.281C296.143 22.1157 295.399 21.878 294.738 21.568L295.482 19.15C296.081 19.4393 296.722 19.677 297.404 19.863C298.086 20.049 298.788 20.142 299.512 20.142C300.4 20.142 301.093 19.987 301.589 19.677C302.085 19.367 302.333 18.8917 302.333 18.251C302.333 17.6517 302.105 17.228 301.651 16.98C301.217 16.7113 300.535 16.4323 299.605 16.143L298.644 15.864C297.342 15.43 296.37 14.8823 295.73 14.221C295.11 13.5597 294.8 12.6917 294.8 11.617C294.8 10.9763 294.934 10.3977 295.203 9.881C295.471 9.36433 295.843 8.92 296.319 8.548C296.794 8.176 297.362 7.88667 298.024 7.68C298.706 7.47333 299.45 7.37 300.256 7.37C301.02 7.37 301.795 7.44233 302.581 7.587C303.387 7.73167 304.131 7.959 304.813 8.269L304.1 10.594ZM308.905 22.25V7.618H312.098V22.25H308.905ZM310.517 3.991C309.959 3.991 309.515 3.82567 309.184 3.495C308.854 3.14367 308.688 2.70967 308.688 2.193C308.688 1.67633 308.854 1.25267 309.184 0.921999C309.515 0.570666 309.959 0.394999 310.517 0.394999C311.055 0.394999 311.489 0.570666 311.819 0.921999C312.171 1.25267 312.346 1.67633 312.346 2.193C312.346 2.73033 312.171 3.16433 311.819 3.495C311.489 3.82567 311.055 3.991 310.517 3.991ZM324.556 9.974H320.402V17.879C320.402 18.6023 320.567 19.088 320.898 19.336C321.249 19.584 321.714 19.708 322.293 19.708C322.706 19.708 323.14 19.6667 323.595 19.584C324.07 19.4807 324.484 19.367 324.835 19.243L325.331 21.599C324.918 21.7643 324.38 21.9193 323.719 22.064C323.078 22.188 322.396 22.25 321.673 22.25C320.102 22.25 318.966 21.9297 318.263 21.289C317.581 20.6277 317.24 19.6563 317.24 18.375V9.974H315.008V7.618H317.24V2.999H320.402V7.618H324.556V9.974ZM340.649 15.492H330.388V15.616C330.388 17.104 330.822 18.2303 331.69 18.995C332.558 19.7597 333.705 20.142 335.131 20.142C335.916 20.142 336.619 20.08 337.239 19.956C337.879 19.8113 338.52 19.5943 339.161 19.305L339.781 21.63C339.181 21.8987 338.468 22.1157 337.642 22.281C336.815 22.467 335.906 22.56 334.914 22.56C333.86 22.56 332.857 22.4153 331.907 22.126C330.956 21.8367 330.119 21.382 329.396 20.762C328.693 20.142 328.135 19.3567 327.722 18.406C327.308 17.4553 327.102 16.3187 327.102 14.996C327.102 13.8593 327.267 12.826 327.598 11.896C327.949 10.9453 328.435 10.1393 329.055 9.478C329.695 8.796 330.46 8.27933 331.349 7.928C332.258 7.556 333.26 7.37 334.356 7.37C335.306 7.37 336.164 7.525 336.929 7.835C337.714 8.145 338.375 8.58933 338.913 9.168C339.471 9.726 339.894 10.4183 340.184 11.245C340.494 12.051 340.649 12.95 340.649 13.942V15.492ZM337.363 13.26C337.363 12.764 337.301 12.299 337.177 11.865C337.053 11.431 336.867 11.059 336.619 10.749C336.371 10.4183 336.04 10.16 335.627 9.974C335.234 9.76733 334.759 9.664 334.201 9.664C333.167 9.664 332.32 9.99467 331.659 10.656C331.018 11.3173 330.625 12.206 330.481 13.322L337.363 13.26ZM15.5096 46.974H11.3556V54.879C11.3556 55.6023 11.5209 56.088 11.8516 56.336C12.2029 56.584 12.6679 56.708 13.2466 56.708C13.6599 56.708 14.0939 56.6667 14.5486 56.584C15.0239 56.4807 15.4372 56.367 15.7886 56.243L16.2846 58.599C15.8712 58.7643 15.3339 58.9193 14.6726 59.064C14.0319 59.188 13.3499 59.25 12.6266 59.25C11.0559 59.25 9.91924 58.9297 9.21657 58.289C8.53457 57.6277 8.19357 56.6563 8.19357 55.375V46.974H5.96157V44.618H8.19357V39.999H11.3556V44.618H15.5096V46.974ZM32.6252 51.779C32.6252 52.9983 32.4289 54.0937 32.0362 55.065C31.6642 56.0363 31.1475 56.8527 30.4862 57.514C29.8249 58.1753 29.0499 58.6817 28.1612 59.033C27.2725 59.3843 26.3115 59.56 25.2782 59.56C24.2449 59.56 23.2839 59.3947 22.3952 59.064C21.5272 58.7333 20.7625 58.258 20.1012 57.638C19.4605 56.9973 18.9542 56.212 18.5822 55.282C18.2309 54.352 18.0552 53.2877 18.0552 52.089C18.0552 50.849 18.2412 49.7537 18.6132 48.803C19.0059 47.8523 19.5329 47.0463 20.1942 46.385C20.8555 45.7237 21.6305 45.2277 22.5192 44.897C23.4079 44.5457 24.3689 44.37 25.4022 44.37C26.4355 44.37 27.3862 44.5353 28.2542 44.866C29.1429 45.176 29.9075 45.641 30.5482 46.261C31.2095 46.881 31.7159 47.656 32.0672 48.586C32.4392 49.516 32.6252 50.5803 32.6252 51.779ZM29.3082 51.934C29.3082 51.004 29.1945 50.2187 28.9672 49.578C28.7399 48.9167 28.4402 48.3793 28.0682 47.966C27.6962 47.5527 27.2725 47.253 26.7972 47.067C26.3219 46.881 25.8259 46.788 25.3092 46.788C24.8132 46.788 24.3275 46.8707 23.8522 47.036C23.3769 47.2013 22.9532 47.4803 22.5812 47.873C22.2092 48.2657 21.9095 48.7927 21.6822 49.454C21.4755 50.1153 21.3722 50.942 21.3722 51.934C21.3722 52.8433 21.4859 53.6287 21.7132 54.29C21.9405 54.9513 22.2402 55.499 22.6122 55.933C22.9842 56.3463 23.4079 56.6563 23.8832 56.863C24.3792 57.049 24.8752 57.142 25.3712 57.142C25.8672 57.142 26.3529 57.0593 26.8282 56.894C27.3035 56.7287 27.7272 56.4497 28.0992 56.057C28.4712 55.6437 28.7605 55.1063 28.9672 54.445C29.1945 53.763 29.3082 52.926 29.3082 51.934ZM42.6229 49.516C42.6229 48.71 42.7676 47.9867 43.0569 47.346C43.3669 46.7053 43.7906 46.168 44.3279 45.734C44.8653 45.2793 45.5059 44.9383 46.2499 44.711C46.9939 44.4837 47.7999 44.37 48.6679 44.37C49.3086 44.37 49.9596 44.4527 50.6209 44.618H56.9139V46.819H55.8289L53.5349 46.509C53.8863 46.9017 54.1653 47.3563 54.3719 47.873C54.5786 48.3897 54.6819 48.927 54.6819 49.485C54.6819 50.291 54.5373 51.0143 54.2479 51.655C53.9586 52.275 53.5453 52.8123 53.0079 53.267C52.4913 53.701 51.8609 54.0317 51.1169 54.259C50.3729 54.4863 49.5566 54.6 48.6679 54.6C48.3786 54.6 48.0996 54.5897 47.8309 54.569C47.5829 54.5483 47.3349 54.5173 47.0869 54.476C46.6943 54.6413 46.4153 54.8377 46.2499 55.065C46.0846 55.2923 46.0019 55.5403 46.0019 55.809C46.0019 56.2223 46.1466 56.5117 46.4359 56.677C46.7253 56.8423 47.1386 56.925 47.6759 56.925H51.3649C52.9769 56.925 54.2273 57.297 55.1159 58.041C56.0253 58.7643 56.4799 59.808 56.4799 61.172C56.4799 61.978 56.2939 62.7013 55.9219 63.342C55.5706 64.0033 55.0539 64.5613 54.3719 65.016C53.7106 65.4913 52.9046 65.853 51.9539 66.101C51.0033 66.349 49.9389 66.473 48.7609 66.473C46.5909 66.473 44.8756 66.0907 43.6149 65.326C42.3543 64.5613 41.7239 63.435 41.7239 61.947C41.7239 61.2237 41.9616 60.6037 42.4369 60.087C42.9123 59.5703 43.5426 59.1673 44.3279 58.878C43.9559 58.63 43.6563 58.3407 43.4289 58.01C43.2016 57.6587 43.0879 57.204 43.0879 56.646C43.0879 55.9847 43.2843 55.4267 43.6769 54.972C44.0696 54.4967 44.5863 54.1247 45.2269 53.856C44.4829 53.5047 43.8629 52.9777 43.3669 52.275C42.8709 51.5517 42.6229 50.632 42.6229 49.516ZM46.1569 59.405C45.2063 59.8597 44.7309 60.5417 44.7309 61.451C44.7309 62.2777 45.0616 62.908 45.7229 63.342C46.4049 63.776 47.4589 63.993 48.8849 63.993C49.6909 63.993 50.3729 63.9103 50.9309 63.745C51.4889 63.6003 51.9436 63.404 52.2949 63.156C52.6669 62.908 52.9356 62.629 53.1009 62.319C53.2663 62.009 53.3489 61.6887 53.3489 61.358C53.3489 60.5727 53.0803 60.0457 52.5429 59.777C52.0263 59.529 51.3339 59.405 50.4659 59.405H46.1569ZM51.4889 49.547C51.4889 48.555 51.2306 47.8213 50.7139 47.346C50.1973 46.85 49.5153 46.602 48.6679 46.602C47.7999 46.602 47.1076 46.8397 46.5909 47.315C46.0949 47.7903 45.8469 48.5033 45.8469 49.454C45.8469 50.446 46.1053 51.1797 46.6219 51.655C47.1386 52.1303 47.8206 52.368 48.6679 52.368C49.5359 52.368 50.2179 52.1303 50.7139 51.655C51.2306 51.1797 51.4889 50.477 51.4889 49.547ZM72.2292 52.492H61.9682V52.616C61.9682 54.104 62.4022 55.2303 63.2702 55.995C64.1382 56.7597 65.2852 57.142 66.7112 57.142C67.4965 57.142 68.1992 57.08 68.8192 56.956C69.4598 56.8113 70.1005 56.5943 70.7412 56.305L71.3612 58.63C70.7618 58.8987 70.0488 59.1157 69.2222 59.281C68.3955 59.467 67.4862 59.56 66.4942 59.56C65.4402 59.56 64.4378 59.4153 63.4872 59.126C62.5365 58.8367 61.6995 58.382 60.9762 57.762C60.2735 57.142 59.7155 56.3567 59.3022 55.406C58.8888 54.4553 58.6822 53.3187 58.6822 51.996C58.6822 50.8593 58.8475 49.826 59.1782 48.896C59.5295 47.9453 60.0152 47.1393 60.6352 46.478C61.2758 45.796 62.0405 45.2793 62.9292 44.928C63.8385 44.556 64.8408 44.37 65.9362 44.37C66.8868 44.37 67.7445 44.525 68.5092 44.835C69.2945 45.145 69.9558 45.5893 70.4932 46.168C71.0512 46.726 71.4748 47.4183 71.7642 48.245C72.0742 49.051 72.2292 49.95 72.2292 50.942V52.492ZM68.9432 50.26C68.9432 49.764 68.8812 49.299 68.7572 48.865C68.6332 48.431 68.4472 48.059 68.1992 47.749C67.9512 47.4183 67.6205 47.16 67.2072 46.974C66.8145 46.7673 66.3392 46.664 65.7812 46.664C64.7478 46.664 63.9005 46.9947 63.2392 47.656C62.5985 48.3173 62.2058 49.206 62.0612 50.322L68.9432 50.26ZM83.3826 46.974H79.2286V54.879C79.2286 55.6023 79.394 56.088 79.7246 56.336C80.076 56.584 80.541 56.708 81.1196 56.708C81.533 56.708 81.967 56.6667 82.4216 56.584C82.897 56.4807 83.3103 56.367 83.6616 56.243L84.1576 58.599C83.7443 58.7643 83.207 58.9193 82.5456 59.064C81.905 59.188 81.223 59.25 80.4996 59.25C78.929 59.25 77.7923 58.9297 77.0896 58.289C76.4076 57.6277 76.0666 56.6563 76.0666 55.375V46.974H73.8346V44.618H76.0666V39.999H79.2286V44.618H83.3826V46.974ZM100.981 57.142C101.643 57.142 102.221 57.0697 102.717 56.925C103.234 56.7597 103.699 56.5737 104.112 56.367L104.763 58.661C104.267 58.9297 103.668 59.1467 102.965 59.312C102.263 59.4773 101.488 59.56 100.64 59.56C99.5657 59.56 98.5531 59.405 97.6024 59.095C96.6724 58.7643 95.8561 58.289 95.1534 57.669C94.4714 57.0283 93.9237 56.2327 93.5104 55.282C93.1177 54.3313 92.9214 53.2257 92.9214 51.965C92.9214 50.8077 93.1074 49.764 93.4794 48.834C93.8514 47.8833 94.3784 47.0773 95.0604 46.416C95.7424 45.7547 96.5587 45.2483 97.5094 44.897C98.4601 44.5457 99.5037 44.37 100.64 44.37C101.281 44.37 101.922 44.4217 102.562 44.525C103.224 44.6283 103.947 44.866 104.732 45.238L104.019 47.563C103.048 47.0257 102.035 46.757 100.981 46.757C99.5554 46.757 98.3981 47.2013 97.5094 48.09C96.6207 48.9787 96.1764 50.2393 96.1764 51.872C96.1764 52.864 96.3107 53.701 96.5794 54.383C96.8687 55.0443 97.2407 55.5817 97.6954 55.995C98.1501 56.4083 98.6564 56.708 99.2144 56.894C99.7931 57.0593 100.382 57.142 100.981 57.142ZM107.568 45.92C108.519 45.4033 109.428 45.021 110.296 44.773C111.185 44.5043 112.167 44.37 113.241 44.37C114.068 44.37 114.822 44.463 115.504 44.649C116.207 44.835 116.806 45.1347 117.302 45.548C117.798 45.9613 118.181 46.5193 118.449 47.222C118.739 47.904 118.883 48.741 118.883 49.733V59.25H116.31L115.969 57.669H115.876C115.298 58.3303 114.626 58.816 113.861 59.126C113.097 59.4153 112.249 59.56 111.319 59.56C109.852 59.56 108.664 59.1673 107.754 58.382C106.866 57.5967 106.421 56.553 106.421 55.251C106.421 54.445 106.587 53.7527 106.917 53.174C107.248 52.5747 107.713 52.0787 108.312 51.686C108.912 51.2933 109.625 51.004 110.451 50.818C111.278 50.6113 112.187 50.508 113.179 50.508H115.659V49.392C115.659 48.462 115.411 47.8213 114.915 47.47C114.419 47.098 113.737 46.912 112.869 46.912C112.332 46.912 111.722 47.005 111.04 47.191C110.379 47.3563 109.614 47.6767 108.746 48.152L107.568 45.92ZM115.69 52.616L113.737 52.647C112.27 52.6883 111.237 52.9467 110.637 53.422C110.038 53.8973 109.738 54.4553 109.738 55.096C109.738 55.5093 109.8 55.8503 109.924 56.119C110.069 56.3877 110.255 56.6047 110.482 56.77C110.71 56.9353 110.968 57.0593 111.257 57.142C111.567 57.204 111.877 57.235 112.187 57.235C112.828 57.235 113.458 57.08 114.078 56.77C114.719 56.4393 115.256 55.9743 115.69 55.375V52.616ZM122.7 59.25V44.618H125.118L125.583 47.439C125.934 46.571 126.502 45.8477 127.288 45.269C128.073 44.6697 129.024 44.37 130.14 44.37C130.636 44.37 131.059 44.4113 131.411 44.494C131.783 44.5767 132.113 44.6903 132.403 44.835L131.814 47.501C131.566 47.377 131.276 47.2737 130.946 47.191C130.636 47.1083 130.274 47.067 129.861 47.067C128.724 47.067 127.773 47.4597 127.009 48.245C126.244 49.0097 125.862 50.1773 125.862 51.748V59.25H122.7ZM146.339 52.492H136.078V52.616C136.078 54.104 136.512 55.2303 137.38 55.995C138.248 56.7597 139.395 57.142 140.821 57.142C141.606 57.142 142.309 57.08 142.929 56.956C143.569 56.8113 144.21 56.5943 144.851 56.305L145.471 58.63C144.871 58.8987 144.158 59.1157 143.332 59.281C142.505 59.467 141.596 59.56 140.604 59.56C139.55 59.56 138.547 59.4153 137.597 59.126C136.646 58.8367 135.809 58.382 135.086 57.762C134.383 57.142 133.825 56.3567 133.412 55.406C132.998 54.4553 132.792 53.3187 132.792 51.996C132.792 50.8593 132.957 49.826 133.288 48.896C133.639 47.9453 134.125 47.1393 134.745 46.478C135.385 45.796 136.15 45.2793 137.039 44.928C137.948 44.556 138.95 44.37 140.046 44.37C140.996 44.37 141.854 44.525 142.619 44.835C143.404 45.145 144.065 45.5893 144.603 46.168C145.161 46.726 145.584 47.4183 145.874 48.245C146.184 49.051 146.339 49.95 146.339 50.942V52.492ZM143.053 50.26C143.053 49.764 142.991 49.299 142.867 48.865C142.743 48.431 142.557 48.059 142.309 47.749C142.061 47.4183 141.73 47.16 141.317 46.974C140.924 46.7673 140.449 46.664 139.891 46.664C138.857 46.664 138.01 46.9947 137.349 47.656C136.708 48.3173 136.315 49.206 136.171 50.322L143.053 50.26ZM162.111 52.492H151.85V52.616C151.85 54.104 152.284 55.2303 153.152 55.995C154.02 56.7597 155.167 57.142 156.593 57.142C157.378 57.142 158.081 57.08 158.701 56.956C159.342 56.8113 159.982 56.5943 160.623 56.305L161.243 58.63C160.644 58.8987 159.931 59.1157 159.104 59.281C158.277 59.467 157.368 59.56 156.376 59.56C155.322 59.56 154.32 59.4153 153.369 59.126C152.418 58.8367 151.581 58.382 150.858 57.762C150.155 57.142 149.597 56.3567 149.184 55.406C148.771 54.4553 148.564 53.3187 148.564 51.996C148.564 50.8593 148.729 49.826 149.06 48.896C149.411 47.9453 149.897 47.1393 150.517 46.478C151.158 45.796 151.922 45.2793 152.811 44.928C153.72 44.556 154.723 44.37 155.818 44.37C156.769 44.37 157.626 44.525 158.391 44.835C159.176 45.145 159.838 45.5893 160.375 46.168C160.933 46.726 161.357 47.4183 161.646 48.245C161.956 49.051 162.111 49.95 162.111 50.942V52.492ZM158.825 50.26C158.825 49.764 158.763 49.299 158.639 48.865C158.515 48.431 158.329 48.059 158.081 47.749C157.833 47.4183 157.502 47.16 157.089 46.974C156.696 46.7673 156.221 46.664 155.663 46.664C154.63 46.664 153.782 46.9947 153.121 47.656C152.48 48.3173 152.088 49.206 151.943 50.322L158.825 50.26ZM165.173 59.25V44.618H167.591L168.056 47.439C168.408 46.571 168.976 45.8477 169.761 45.269C170.547 44.6697 171.497 44.37 172.613 44.37C173.109 44.37 173.533 44.4113 173.884 44.494C174.256 44.5767 174.587 44.6903 174.876 44.835L174.287 47.501C174.039 47.377 173.75 47.2737 173.419 47.191C173.109 47.1083 172.748 47.067 172.334 47.067C171.198 47.067 170.247 47.4597 169.482 48.245C168.718 49.0097 168.335 50.1773 168.335 51.748V59.25H165.173ZM184.099 45.92C185.05 45.4033 185.959 45.021 186.827 44.773C187.716 44.5043 188.698 44.37 189.772 44.37C190.599 44.37 191.353 44.463 192.035 44.649C192.738 44.835 193.337 45.1347 193.833 45.548C194.329 45.9613 194.712 46.5193 194.98 47.222C195.27 47.904 195.414 48.741 195.414 49.733V59.25H192.841L192.5 57.669H192.407C191.829 58.3303 191.157 58.816 190.392 59.126C189.628 59.4153 188.78 59.56 187.85 59.56C186.383 59.56 185.195 59.1673 184.285 58.382C183.397 57.5967 182.952 56.553 182.952 55.251C182.952 54.445 183.118 53.7527 183.448 53.174C183.779 52.5747 184.244 52.0787 184.843 51.686C185.443 51.2933 186.156 51.004 186.982 50.818C187.809 50.6113 188.718 50.508 189.71 50.508H192.19V49.392C192.19 48.462 191.942 47.8213 191.446 47.47C190.95 47.098 190.268 46.912 189.4 46.912C188.863 46.912 188.253 47.005 187.571 47.191C186.91 47.3563 186.145 47.6767 185.277 48.152L184.099 45.92ZM192.221 52.616L190.268 52.647C188.801 52.6883 187.768 52.9467 187.168 53.422C186.569 53.8973 186.269 54.4553 186.269 55.096C186.269 55.5093 186.331 55.8503 186.455 56.119C186.6 56.3877 186.786 56.6047 187.013 56.77C187.241 56.9353 187.499 57.0593 187.788 57.142C188.098 57.204 188.408 57.235 188.718 57.235C189.359 57.235 189.989 57.08 190.609 56.77C191.25 56.4393 191.787 55.9743 192.221 55.375V52.616ZM208.903 37.209H212.096V59.25H209.585L209.213 57.638H209.089C208.552 58.258 207.952 58.7333 207.291 59.064C206.63 59.3947 205.772 59.56 204.718 59.56C203.891 59.56 203.096 59.405 202.331 59.095C201.587 58.7643 200.915 58.2787 200.316 57.638C199.737 56.9973 199.272 56.2017 198.921 55.251C198.57 54.3003 198.394 53.205 198.394 51.965C198.394 50.8077 198.539 49.764 198.828 48.834C199.138 47.904 199.572 47.1083 200.13 46.447C200.709 45.7857 201.411 45.2793 202.238 44.928C203.065 44.556 204.005 44.37 205.059 44.37C205.782 44.37 206.485 44.4837 207.167 44.711C207.849 44.9383 208.428 45.2587 208.903 45.672V37.209ZM208.903 48.245C208.035 47.253 206.991 46.757 205.772 46.757C205.235 46.757 204.718 46.85 204.222 47.036C203.726 47.222 203.282 47.5217 202.889 47.935C202.496 48.3483 202.186 48.8753 201.959 49.516C201.732 50.1567 201.618 50.942 201.618 51.872C201.618 52.802 201.721 53.5977 201.928 54.259C202.155 54.9203 202.445 55.468 202.796 55.902C203.147 56.336 203.55 56.6563 204.005 56.863C204.48 57.049 204.966 57.142 205.462 57.142C206.206 57.142 206.857 56.9767 207.415 56.646C207.994 56.3153 208.49 55.8503 208.903 55.251V48.245ZM225.207 44.618H228.586L223.223 59.25H219.875L214.512 44.618H217.953L220.867 53.732L221.518 56.77H221.642L222.293 53.763L225.207 44.618ZM231.269 59.25V44.618H234.462V59.25H231.269ZM232.881 40.991C232.323 40.991 231.879 40.8257 231.548 40.495C231.217 40.1437 231.052 39.7097 231.052 39.193C231.052 38.6763 231.217 38.2527 231.548 37.922C231.879 37.5707 232.323 37.395 232.881 37.395C233.418 37.395 233.852 37.5707 234.183 37.922C234.534 38.2527 234.71 38.6763 234.71 39.193C234.71 39.7303 234.534 40.1643 234.183 40.495C233.852 40.8257 233.418 40.991 232.881 40.991ZM246.052 57.142C246.713 57.142 247.292 57.0697 247.788 56.925C248.304 56.7597 248.769 56.5737 249.183 56.367L249.834 58.661C249.338 58.9297 248.738 59.1467 248.036 59.312C247.333 59.4773 246.558 59.56 245.711 59.56C244.636 59.56 243.623 59.405 242.673 59.095C241.743 58.7643 240.926 58.289 240.224 57.669C239.542 57.0283 238.994 56.2327 238.581 55.282C238.188 54.3313 237.992 53.2257 237.992 51.965C237.992 50.8077 238.178 49.764 238.55 48.834C238.922 47.8833 239.449 47.0773 240.131 46.416C240.813 45.7547 241.629 45.2483 242.58 44.897C243.53 44.5457 244.574 44.37 245.711 44.37C246.351 44.37 246.992 44.4217 247.633 44.525C248.294 44.6283 249.017 44.866 249.803 45.238L249.09 47.563C248.118 47.0257 247.106 46.757 246.052 46.757C244.626 46.757 243.468 47.2013 242.58 48.09C241.691 48.9787 241.247 50.2393 241.247 51.872C241.247 52.864 241.381 53.701 241.65 54.383C241.939 55.0443 242.311 55.5817 242.766 55.995C243.22 56.4083 243.727 56.708 244.285 56.894C244.863 57.0593 245.452 57.142 246.052 57.142ZM264.617 52.492H254.356V52.616C254.356 54.104 254.79 55.2303 255.658 55.995C256.526 56.7597 257.673 57.142 259.099 57.142C259.884 57.142 260.587 57.08 261.207 56.956C261.848 56.8113 262.488 56.5943 263.129 56.305L263.749 58.63C263.15 58.8987 262.437 59.1157 261.61 59.281C260.783 59.467 259.874 59.56 258.882 59.56C257.828 59.56 256.826 59.4153 255.875 59.126C254.924 58.8367 254.087 58.382 253.364 57.762C252.661 57.142 252.103 56.3567 251.69 55.406C251.277 54.4553 251.07 53.3187 251.07 51.996C251.07 50.8593 251.235 49.826 251.566 48.896C251.917 47.9453 252.403 47.1393 253.023 46.478C253.664 45.796 254.428 45.2793 255.317 44.928C256.226 44.556 257.229 44.37 258.324 44.37C259.275 44.37 260.132 44.525 260.897 44.835C261.682 45.145 262.344 45.5893 262.881 46.168C263.439 46.726 263.863 47.4183 264.152 48.245C264.462 49.051 264.617 49.95 264.617 50.942V52.492ZM261.331 50.26C261.331 49.764 261.269 49.299 261.145 48.865C261.021 48.431 260.835 48.059 260.587 47.749C260.339 47.4183 260.008 47.16 259.595 46.974C259.202 46.7673 258.727 46.664 258.169 46.664C257.136 46.664 256.288 46.9947 255.627 47.656C254.986 48.3173 254.594 49.206 254.449 50.322L261.331 50.26ZM280.376 37.085C281.017 37.085 281.668 37.178 282.329 37.364C282.991 37.5293 283.58 37.7463 284.096 38.015L283.445 40.185C283.053 40.0197 282.67 39.8853 282.298 39.782C281.947 39.6787 281.565 39.627 281.151 39.627C280.242 39.627 279.581 39.8853 279.167 40.402C278.775 40.898 278.578 41.766 278.578 43.006V44.618H282.794V46.974H278.578V59.25H275.416V46.974H273.246V44.618H275.416V42.138C275.416 40.526 275.85 39.286 276.718 38.418C277.586 37.5293 278.806 37.085 280.376 37.085ZM284.875 59.25V44.618H287.293L287.758 47.439C288.109 46.571 288.677 45.8477 289.463 45.269C290.248 44.6697 291.199 44.37 292.315 44.37C292.811 44.37 293.234 44.4113 293.586 44.494C293.958 44.5767 294.288 44.6903 294.578 44.835L293.989 47.501C293.741 47.377 293.451 47.2737 293.121 47.191C292.811 47.1083 292.449 47.067 292.036 47.067C290.899 47.067 289.948 47.4597 289.184 48.245C288.419 49.0097 288.037 50.1773 288.037 51.748V59.25H284.875ZM309.536 51.779C309.536 52.9983 309.34 54.0937 308.947 55.065C308.575 56.0363 308.059 56.8527 307.397 57.514C306.736 58.1753 305.961 58.6817 305.072 59.033C304.184 59.3843 303.223 59.56 302.189 59.56C301.156 59.56 300.195 59.3947 299.306 59.064C298.438 58.7333 297.674 58.258 297.012 57.638C296.372 56.9973 295.865 56.212 295.493 55.282C295.142 54.352 294.966 53.2877 294.966 52.089C294.966 50.849 295.152 49.7537 295.524 48.803C295.917 47.8523 296.444 47.0463 297.105 46.385C297.767 45.7237 298.542 45.2277 299.43 44.897C300.319 44.5457 301.28 44.37 302.313 44.37C303.347 44.37 304.297 44.5353 305.165 44.866C306.054 45.176 306.819 45.641 307.459 46.261C308.121 46.881 308.627 47.656 308.978 48.586C309.35 49.516 309.536 50.5803 309.536 51.779ZM306.219 51.934C306.219 51.004 306.106 50.2187 305.878 49.578C305.651 48.9167 305.351 48.3793 304.979 47.966C304.607 47.5527 304.184 47.253 303.708 47.067C303.233 46.881 302.737 46.788 302.22 46.788C301.724 46.788 301.239 46.8707 300.763 47.036C300.288 47.2013 299.864 47.4803 299.492 47.873C299.12 48.2657 298.821 48.7927 298.593 49.454C298.387 50.1153 298.283 50.942 298.283 51.934C298.283 52.8433 298.397 53.6287 298.624 54.29C298.852 54.9513 299.151 55.499 299.523 55.933C299.895 56.3463 300.319 56.6563 300.794 56.863C301.29 57.049 301.786 57.142 302.282 57.142C302.778 57.142 303.264 57.0593 303.739 56.894C304.215 56.7287 304.638 56.4497 305.01 56.057C305.382 55.6437 305.672 55.1063 305.878 54.445C306.106 53.763 306.219 52.926 306.219 51.934ZM315.92 59.25H312.727V44.618H315.207L315.641 46.571C316.323 45.889 317.057 45.3517 317.842 44.959C318.627 44.5663 319.547 44.37 320.601 44.37C321.655 44.37 322.513 44.5767 323.174 44.99C323.856 45.4033 324.373 45.982 324.724 46.726C325.427 45.982 326.202 45.4033 327.049 44.99C327.917 44.5767 328.868 44.37 329.901 44.37C331.43 44.37 332.577 44.7937 333.342 45.641C334.127 46.4677 334.52 47.6457 334.52 49.175V59.25H331.327V49.671C331.327 48.7823 331.131 48.1003 330.738 47.625C330.366 47.1497 329.746 46.912 328.878 46.912C327.555 46.912 326.336 47.501 325.22 48.679V59.25H322.027V49.671C322.027 48.7823 321.831 48.1003 321.438 47.625C321.066 47.1497 320.446 46.912 319.578 46.912C318.255 46.912 317.036 47.532 315.92 48.772V59.25ZM25.9458 96.25H22.7528V81.618H25.2328L25.6668 83.571C26.3488 82.889 27.0825 82.3517 27.8678 81.959C28.6531 81.5663 29.5728 81.37 30.6268 81.37C31.6808 81.37 32.5385 81.5767 33.1998 81.99C33.8818 82.4033 34.3985 82.982 34.7498 83.726C35.4525 82.982 36.2275 82.4033 37.0748 81.99C37.9428 81.5767 38.8935 81.37 39.9268 81.37C41.4561 81.37 42.6031 81.7937 43.3678 82.641C44.1531 83.4677 44.5458 84.6457 44.5458 86.175V96.25H41.3528V86.671C41.3528 85.7823 41.1565 85.1003 40.7638 84.625C40.3918 84.1497 39.7718 83.912 38.9038 83.912C37.5811 83.912 36.3618 84.501 35.2458 85.679V96.25H32.0528V86.671C32.0528 85.7823 31.8565 85.1003 31.4638 84.625C31.0918 84.1497 30.4718 83.912 29.6038 83.912C28.2811 83.912 27.0618 84.532 25.9458 85.772V96.25ZM61.2853 89.492H51.0243V89.616C51.0243 91.104 51.4583 92.2303 52.3263 92.995C53.1943 93.7597 54.3413 94.142 55.7673 94.142C56.5526 94.142 57.2553 94.08 57.8753 93.956C58.516 93.8113 59.1566 93.5943 59.7973 93.305L60.4173 95.63C59.818 95.8987 59.105 96.1157 58.2783 96.281C57.4516 96.467 56.5423 96.56 55.5503 96.56C54.4963 96.56 53.494 96.4153 52.5433 96.126C51.5926 95.8367 50.7556 95.382 50.0323 94.762C49.3296 94.142 48.7716 93.3567 48.3583 92.406C47.945 91.4553 47.7383 90.3187 47.7383 88.996C47.7383 87.8593 47.9036 86.826 48.2343 85.896C48.5856 84.9453 49.0713 84.1393 49.6913 83.478C50.332 82.796 51.0966 82.2793 51.9853 81.928C52.8946 81.556 53.897 81.37 54.9923 81.37C55.943 81.37 56.8006 81.525 57.5653 81.835C58.3506 82.145 59.012 82.5893 59.5493 83.168C60.1073 83.726 60.531 84.4183 60.8203 85.245C61.1303 86.051 61.2853 86.95 61.2853 87.942V89.492ZM57.9993 87.26C57.9993 86.764 57.9373 86.299 57.8133 85.865C57.6893 85.431 57.5033 85.059 57.2553 84.749C57.0073 84.4183 56.6766 84.16 56.2633 83.974C55.8706 83.7673 55.3953 83.664 54.8373 83.664C53.804 83.664 52.9566 83.9947 52.2953 84.656C51.6546 85.3173 51.262 86.206 51.1173 87.322L57.9993 87.26ZM67.5718 96.25H64.3788V81.618H66.8898L67.3238 83.571C68.0471 82.8683 68.8014 82.331 69.5868 81.959C70.3928 81.5663 71.3021 81.37 72.3148 81.37C73.8648 81.37 75.0634 81.7937 75.9108 82.641C76.7581 83.4883 77.1818 84.6973 77.1818 86.268V96.25H73.9888V86.671C73.9888 85.8237 73.7718 85.152 73.3378 84.656C72.9038 84.16 72.2528 83.912 71.3848 83.912C70.7234 83.912 70.0621 84.0773 69.4008 84.408C68.7601 84.718 68.1504 85.1727 67.5718 85.772V96.25ZM89.1497 83.974H84.9957V91.879C84.9957 92.6023 85.161 93.088 85.4917 93.336C85.843 93.584 86.308 93.708 86.8867 93.708C87.3 93.708 87.734 93.6667 88.1887 93.584C88.664 93.4807 89.0774 93.367 89.4287 93.243L89.9247 95.599C89.5114 95.7643 88.974 95.9193 88.3127 96.064C87.672 96.188 86.99 96.25 86.2667 96.25C84.696 96.25 83.5594 95.9297 82.8567 95.289C82.1747 94.6277 81.8337 93.6563 81.8337 92.375V83.974H79.6017V81.618H81.8337V76.999H84.9957V81.618H89.1497V83.974ZM106.265 88.779C106.265 89.9983 106.069 91.0937 105.676 92.065C105.304 93.0363 104.788 93.8527 104.126 94.514C103.465 95.1753 102.69 95.6817 101.801 96.033C100.913 96.3843 99.9517 96.56 98.9183 96.56C97.885 96.56 96.924 96.3947 96.0353 96.064C95.1673 95.7333 94.4027 95.258 93.7413 94.638C93.1007 93.9973 92.5943 93.212 92.2223 92.282C91.871 91.352 91.6953 90.2877 91.6953 89.089C91.6953 87.849 91.8813 86.7537 92.2533 85.803C92.646 84.8523 93.173 84.0463 93.8343 83.385C94.4957 82.7237 95.2707 82.2277 96.1593 81.897C97.048 81.5457 98.009 81.37 99.0423 81.37C100.076 81.37 101.026 81.5353 101.894 81.866C102.783 82.176 103.548 82.641 104.188 83.261C104.85 83.881 105.356 84.656 105.707 85.586C106.079 86.516 106.265 87.5803 106.265 88.779ZM102.948 88.934C102.948 88.004 102.835 87.2187 102.607 86.578C102.38 85.9167 102.08 85.3793 101.708 84.966C101.336 84.5527 100.913 84.253 100.437 84.067C99.962 83.881 99.466 83.788 98.9493 83.788C98.4533 83.788 97.9677 83.8707 97.4923 84.036C97.017 84.2013 96.5933 84.4803 96.2213 84.873C95.8493 85.2657 95.5497 85.7927 95.3223 86.454C95.1157 87.1153 95.0123 87.942 95.0123 88.934C95.0123 89.8433 95.126 90.6287 95.3533 91.29C95.5807 91.9513 95.8803 92.499 96.2523 92.933C96.6243 93.3463 97.048 93.6563 97.5233 93.863C98.0193 94.049 98.5153 94.142 99.0113 94.142C99.5073 94.142 99.993 94.0593 100.468 93.894C100.944 93.7287 101.367 93.4497 101.739 93.057C102.111 92.6437 102.401 92.1063 102.607 91.445C102.835 90.763 102.948 89.926 102.948 88.934ZM109.425 96.25V81.618H111.843L112.308 84.439C112.659 83.571 113.228 82.8477 114.013 82.269C114.798 81.6697 115.749 81.37 116.865 81.37C117.361 81.37 117.785 81.4113 118.136 81.494C118.508 81.5767 118.839 81.6903 119.128 81.835L118.539 84.501C118.291 84.377 118.002 84.2737 117.671 84.191C117.361 84.1083 116.999 84.067 116.586 84.067C115.449 84.067 114.499 84.4597 113.734 85.245C112.969 86.0097 112.587 87.1773 112.587 88.748V96.25H109.425ZM129.604 84.594C128.942 84.284 128.322 84.067 127.744 83.943C127.186 83.7983 126.628 83.726 126.07 83.726C125.202 83.726 124.54 83.8913 124.086 84.222C123.652 84.532 123.435 84.9557 123.435 85.493C123.435 85.9063 123.6 86.268 123.931 86.578C124.261 86.8673 124.943 87.1567 125.977 87.446L126.907 87.725C128.25 88.1383 129.263 88.6757 129.945 89.337C130.647 89.9983 130.999 90.887 130.999 92.003C130.999 93.367 130.482 94.4727 129.449 95.32C128.415 96.1467 127 96.56 125.202 96.56C124.23 96.56 123.321 96.467 122.474 96.281C121.647 96.1157 120.903 95.878 120.242 95.568L120.986 93.15C121.585 93.4393 122.226 93.677 122.908 93.863C123.59 94.049 124.292 94.142 125.016 94.142C125.904 94.142 126.597 93.987 127.093 93.677C127.589 93.367 127.837 92.8917 127.837 92.251C127.837 91.6517 127.609 91.228 127.155 90.98C126.721 90.7113 126.039 90.4323 125.109 90.143L124.148 89.864C122.846 89.43 121.874 88.8823 121.234 88.221C120.614 87.5597 120.304 86.6917 120.304 85.617C120.304 84.9763 120.438 84.3977 120.707 83.881C120.975 83.3643 121.347 82.92 121.823 82.548C122.298 82.176 122.866 81.8867 123.528 81.68C124.21 81.4733 124.954 81.37 125.76 81.37C126.524 81.37 127.299 81.4423 128.085 81.587C128.891 81.7317 129.635 81.959 130.317 82.269L129.604 84.594ZM141.402 96.25V81.618H144.595V96.25H141.402ZM143.014 77.991C142.456 77.991 142.012 77.8257 141.681 77.495C141.351 77.1437 141.185 76.7097 141.185 76.193C141.185 75.6763 141.351 75.2527 141.681 74.922C142.012 74.5707 142.456 74.395 143.014 74.395C143.552 74.395 143.986 74.5707 144.316 74.922C144.668 75.2527 144.843 75.6763 144.843 76.193C144.843 76.7303 144.668 77.1643 144.316 77.495C143.986 77.8257 143.552 77.991 143.014 77.991ZM152.186 96.25H148.993V81.618H151.504L151.938 83.571C152.661 82.8683 153.416 82.331 154.201 81.959C155.007 81.5663 155.916 81.37 156.929 81.37C158.479 81.37 159.678 81.7937 160.525 82.641C161.372 83.4883 161.796 84.6973 161.796 86.268V96.25H158.603V86.671C158.603 85.8237 158.386 85.152 157.952 84.656C157.518 84.16 156.867 83.912 155.999 83.912C155.338 83.912 154.676 84.0773 154.015 84.408C153.374 84.718 152.765 85.1727 152.186 85.772V96.25ZM176.041 96.25H172.848V81.618H175.328L175.762 83.571C176.444 82.889 177.178 82.3517 177.963 81.959C178.749 81.5663 179.668 81.37 180.722 81.37C181.776 81.37 182.634 81.5767 183.295 81.99C183.977 82.4033 184.494 82.982 184.845 83.726C185.548 82.982 186.323 82.4033 187.17 81.99C188.038 81.5767 188.989 81.37 190.022 81.37C191.552 81.37 192.699 81.7937 193.463 82.641C194.249 83.4677 194.641 84.6457 194.641 86.175V96.25H191.448V86.671C191.448 85.7823 191.252 85.1003 190.859 84.625C190.487 84.1497 189.867 83.912 188.999 83.912C187.677 83.912 186.457 84.501 185.341 85.679V96.25H182.148V86.671C182.148 85.7823 181.952 85.1003 181.559 84.625C181.187 84.1497 180.567 83.912 179.699 83.912C178.377 83.912 177.157 84.532 176.041 85.772V96.25ZM198.888 82.92C199.839 82.4033 200.748 82.021 201.616 81.773C202.505 81.5043 203.486 81.37 204.561 81.37C205.388 81.37 206.142 81.463 206.824 81.649C207.527 81.835 208.126 82.1347 208.622 82.548C209.118 82.9613 209.5 83.5193 209.769 84.222C210.058 84.904 210.203 85.741 210.203 86.733V96.25H207.63L207.289 94.669H207.196C206.617 95.3303 205.946 95.816 205.181 96.126C204.416 96.4153 203.569 96.56 202.639 96.56C201.172 96.56 199.983 96.1673 199.074 95.382C198.185 94.5967 197.741 93.553 197.741 92.251C197.741 91.445 197.906 90.7527 198.237 90.174C198.568 89.5747 199.033 89.0787 199.632 88.686C200.231 88.2933 200.944 88.004 201.771 87.818C202.598 87.6113 203.507 87.508 204.499 87.508H206.979V86.392C206.979 85.462 206.731 84.8213 206.235 84.47C205.739 84.098 205.057 83.912 204.189 83.912C203.652 83.912 203.042 84.005 202.36 84.191C201.699 84.3563 200.934 84.6767 200.066 85.152L198.888 82.92ZM207.01 89.616L205.057 89.647C203.59 89.6883 202.556 89.9467 201.957 90.422C201.358 90.8973 201.058 91.4553 201.058 92.096C201.058 92.5093 201.12 92.8503 201.244 93.119C201.389 93.3877 201.575 93.6047 201.802 93.77C202.029 93.9353 202.288 94.0593 202.577 94.142C202.887 94.204 203.197 94.235 203.507 94.235C204.148 94.235 204.778 94.08 205.398 93.77C206.039 93.4393 206.576 92.9743 207.01 92.375V89.616ZM217.244 96.25H214.051V81.618H216.562L216.996 83.571C217.719 82.8683 218.473 82.331 219.259 81.959C220.065 81.5663 220.974 81.37 221.987 81.37C223.537 81.37 224.735 81.7937 225.583 82.641C226.43 83.4883 226.854 84.6973 226.854 86.268V96.25H223.661V86.671C223.661 85.8237 223.444 85.152 223.01 84.656C222.576 84.16 221.925 83.912 221.057 83.912C220.395 83.912 219.734 84.0773 219.073 84.408C218.432 84.718 217.822 85.1727 217.244 85.772V96.25ZM228.995 81.618H232.436L235.381 89.523L236.435 93.026H236.497L237.52 89.492L240.186 81.618H243.441L237.892 97.242C237.272 98.9987 236.476 100.425 235.505 101.52C234.554 102.636 233.304 103.463 231.754 104L230.39 101.489C231.423 101.096 232.322 100.528 233.087 99.784C233.851 99.0607 234.42 98.11 234.792 96.932L235.04 96.219L228.995 81.618ZM252.866 82.92C253.816 82.4033 254.726 82.021 255.594 81.773C256.482 81.5043 257.464 81.37 258.539 81.37C259.365 81.37 260.12 81.463 260.802 81.649C261.504 81.835 262.104 82.1347 262.6 82.548C263.096 82.9613 263.478 83.5193 263.747 84.222C264.036 84.904 264.181 85.741 264.181 86.733V96.25H261.608L261.267 94.669H261.174C260.595 95.3303 259.923 95.816 259.159 96.126C258.394 96.4153 257.547 96.56 256.617 96.56C255.149 96.56 253.961 96.1673 253.052 95.382C252.163 94.5967 251.719 93.553 251.719 92.251C251.719 91.445 251.884 90.7527 252.215 90.174C252.545 89.5747 253.01 89.0787 253.61 88.686C254.209 88.2933 254.922 88.004 255.749 87.818C256.575 87.6113 257.485 87.508 258.477 87.508H260.957V86.392C260.957 85.462 260.709 84.8213 260.213 84.47C259.717 84.098 259.035 83.912 258.167 83.912C257.629 83.912 257.02 84.005 256.338 84.191C255.676 84.3563 254.912 84.6767 254.044 85.152L252.866 82.92ZM260.988 89.616L259.035 89.647C257.567 89.6883 256.534 89.9467 255.935 90.422C255.335 90.8973 255.036 91.4553 255.036 92.096C255.036 92.5093 255.098 92.8503 255.222 93.119C255.366 93.3877 255.552 93.6047 255.78 93.77C256.007 93.9353 256.265 94.0593 256.555 94.142C256.865 94.204 257.175 94.235 257.485 94.235C258.125 94.235 258.756 94.08 259.376 93.77C260.016 93.4393 260.554 92.9743 260.988 92.375V89.616ZM267.997 96.25V81.618H270.415L270.88 84.439C271.232 83.571 271.8 82.8477 272.585 82.269C273.371 81.6697 274.321 81.37 275.437 81.37C275.933 81.37 276.357 81.4113 276.708 81.494C277.08 81.5767 277.411 81.6903 277.7 81.835L277.111 84.501C276.863 84.377 276.574 84.2737 276.243 84.191C275.933 84.1083 275.572 84.067 275.158 84.067C274.022 84.067 273.071 84.4597 272.306 85.245C271.542 86.0097 271.159 87.1773 271.159 88.748V96.25H267.997ZM291.636 89.492H281.375V89.616C281.375 91.104 281.809 92.2303 282.677 92.995C283.545 93.7597 284.692 94.142 286.118 94.142C286.903 94.142 287.606 94.08 288.226 93.956C288.867 93.8113 289.507 93.5943 290.148 93.305L290.768 95.63C290.169 95.8987 289.456 96.1157 288.629 96.281C287.802 96.467 286.893 96.56 285.901 96.56C284.847 96.56 283.845 96.4153 282.894 96.126C281.943 95.8367 281.106 95.382 280.383 94.762C279.68 94.142 279.122 93.3567 278.709 92.406C278.296 91.4553 278.089 90.3187 278.089 88.996C278.089 87.8593 278.254 86.826 278.585 85.896C278.936 84.9453 279.422 84.1393 280.042 83.478C280.683 82.796 281.447 82.2793 282.336 81.928C283.245 81.556 284.248 81.37 285.343 81.37C286.294 81.37 287.151 81.525 287.916 81.835C288.701 82.145 289.363 82.5893 289.9 83.168C290.458 83.726 290.882 84.4183 291.171 85.245C291.481 86.051 291.636 86.95 291.636 87.942V89.492ZM288.35 87.26C288.35 86.764 288.288 86.299 288.164 85.865C288.04 85.431 287.854 85.059 287.606 84.749C287.358 84.4183 287.027 84.16 286.614 83.974C286.221 83.7673 285.746 83.664 285.188 83.664C284.155 83.664 283.307 83.9947 282.646 84.656C282.005 85.3173 281.613 86.206 281.468 87.322L288.35 87.26ZM294.915 82.92C295.866 82.4033 296.775 82.021 297.643 81.773C298.532 81.5043 299.514 81.37 300.588 81.37C301.415 81.37 302.169 81.463 302.851 81.649C303.554 81.835 304.153 82.1347 304.649 82.548C305.145 82.9613 305.528 83.5193 305.796 84.222C306.086 84.904 306.23 85.741 306.23 86.733V96.25H303.657L303.316 94.669H303.223C302.645 95.3303 301.973 95.816 301.208 96.126C300.444 96.4153 299.596 96.56 298.666 96.56C297.199 96.56 296.011 96.1673 295.101 95.382C294.213 94.5967 293.768 93.553 293.768 92.251C293.768 91.445 293.934 90.7527 294.264 90.174C294.595 89.5747 295.06 89.0787 295.659 88.686C296.259 88.2933 296.972 88.004 297.798 87.818C298.625 87.6113 299.534 87.508 300.526 87.508H303.006V86.392C303.006 85.462 302.758 84.8213 302.262 84.47C301.766 84.098 301.084 83.912 300.216 83.912C299.679 83.912 299.069 84.005 298.387 84.191C297.726 84.3563 296.961 84.6767 296.093 85.152L294.915 82.92ZM303.037 89.616L301.084 89.647C299.617 89.6883 298.584 89.9467 297.984 90.422C297.385 90.8973 297.085 91.4553 297.085 92.096C297.085 92.5093 297.147 92.8503 297.271 93.119C297.416 93.3877 297.602 93.6047 297.829 93.77C298.057 93.9353 298.315 94.0593 298.604 94.142C298.914 94.204 299.224 94.235 299.534 94.235C300.175 94.235 300.805 94.08 301.425 93.77C302.066 93.4393 302.603 92.9743 303.037 92.375V89.616ZM318.813 84.594C318.151 84.284 317.531 84.067 316.953 83.943C316.395 83.7983 315.837 83.726 315.279 83.726C314.411 83.726 313.749 83.8913 313.295 84.222C312.861 84.532 312.644 84.9557 312.644 85.493C312.644 85.9063 312.809 86.268 313.14 86.578C313.47 86.8673 314.152 87.1567 315.186 87.446L316.116 87.725C317.459 88.1383 318.472 88.6757 319.154 89.337C319.856 89.9983 320.208 90.887 320.208 92.003C320.208 93.367 319.691 94.4727 318.658 95.32C317.624 96.1467 316.209 96.56 314.411 96.56C313.439 96.56 312.53 96.467 311.683 96.281C310.856 96.1157 310.112 95.878 309.451 95.568L310.195 93.15C310.794 93.4393 311.435 93.677 312.117 93.863C312.799 94.049 313.501 94.142 314.225 94.142C315.113 94.142 315.806 93.987 316.302 93.677C316.798 93.367 317.046 92.8917 317.046 92.251C317.046 91.6517 316.818 91.228 316.364 90.98C315.93 90.7113 315.248 90.4323 314.318 90.143L313.357 89.864C312.055 89.43 311.083 88.8823 310.443 88.221C309.823 87.5597 309.513 86.6917 309.513 85.617C309.513 84.9763 309.647 84.3977 309.916 83.881C310.184 83.3643 310.556 82.92 311.032 82.548C311.507 82.176 312.075 81.8867 312.737 81.68C313.419 81.4733 314.163 81.37 314.969 81.37C315.733 81.37 316.508 81.4423 317.294 81.587C318.1 81.7317 318.844 81.959 319.526 82.269L318.813 84.594Z" fill="#2C2234"/>
</svg>
