<svg width="808" height="633" viewBox="0 0 808 633" fill="none" xmlns="http://www.w3.org/2000/svg">
<g clip-path="url(#clip0_44_135)">
<rect width="808" height="632" transform="translate(0 0.75)" fill="url(#paint0_linear_44_135)"/>
<g clip-path="url(#clip1_44_135)">
<mask id="mask0_44_135" style="mask-type:alpha" maskUnits="userSpaceOnUse" x="0" y="0" width="808" height="633">
<path d="M808 0.75H0V632.75H808V0.75Z" fill="white"/>
</mask>
<g mask="url(#mask0_44_135)">
<path d="M-27.52 438.24L62.28 531.72" stroke="#6E6079" stroke-width="1.5"/>
<path d="M-27.52 438.24L160.09 453.01" stroke="#6E6079" stroke-width="1.5"/>
<path d="M-27.52 438.24L140.23 558.91" stroke="#6E6079" stroke-width="1.5"/>
<path d="M-27.52 438.24L33.6 664.88" stroke="#6E6079" stroke-width="1.5"/>
<path d="M-38.46 543.73L62.28 531.72" stroke="#6E6079" stroke-width="1.5"/>
<path d="M-38.46 543.73L33.6 664.88" stroke="#6E6079" stroke-width="1.5"/>
<path d="M-38.46 543.73L140.23 558.91" stroke="#6E6079" stroke-width="1.5"/>
<path d="M-73.51 661.3L62.28 531.72" stroke="#6E6079" stroke-width="1.5"/>
<path d="M62.28 531.72L140.23 558.91" stroke="#6E6079" stroke-width="1.5"/>
<path d="M62.28 531.72L160.09 453.01" stroke="#6E6079" stroke-width="1.5"/>
<path d="M160.09 453.01L140.23 558.91" stroke="#6E6079" stroke-width="1.5"/>
<path d="M140.23 558.91L237.7 557.99" stroke="#6E6079" stroke-width="1.5"/>
<path d="M140.23 558.91L130.78 667.37" stroke="#6E6079" stroke-width="1.5"/>
<path d="M140.23 558.91L33.6 664.88" stroke="#6E6079" stroke-width="1.5"/>
<path d="M140.23 558.91L263.47 674.76" stroke="#6E6079" stroke-width="1.5"/>
<path d="M269.72 349.92L345.62 341.57" stroke="#6E6079" stroke-width="1.5"/>
<path d="M269.72 349.92L341 460.61" stroke="#6E6079" stroke-width="1.5"/>
<path d="M269.72 349.92L160.09 453.01" stroke="#6E6079" stroke-width="1.5"/>
<path d="M269.72 349.92L450.32 366.5" stroke="#6E6079" stroke-width="1.5"/>
<path d="M237.7 557.99L263.47 674.76" stroke="#6E6079" stroke-width="1.5"/>
<path d="M237.7 557.99L358.38 539.51" stroke="#6E6079" stroke-width="1.5"/>
<path d="M237.7 557.99L160.09 453.01" stroke="#6E6079" stroke-width="1.5"/>
<path d="M237.7 557.99L341 460.61" stroke="#6E6079" stroke-width="1.5"/>
<path d="M237.7 557.99L130.78 667.37" stroke="#6E6079" stroke-width="1.5"/>
<path d="M345.62 341.57L450.32 366.5" stroke="#6E6079" stroke-width="1.5"/>
<path d="M341 460.61L358.38 539.51" stroke="#6E6079" stroke-width="1.5"/>
<path d="M341 460.61L345.62 341.57" stroke="#6E6079" stroke-width="1.5"/>
<path d="M341 460.61L434.64 547.1" stroke="#6E6079" stroke-width="1.5"/>
<path d="M358.38 539.51L434.64 547.1" stroke="#6E6079" stroke-width="1.5"/>
<path d="M478.68 132.2L555.73 172.8" stroke="#6E6079" stroke-width="1.5"/>
<path d="M478.68 132.2L453.82 228.36" stroke="#6E6079" stroke-width="1.5"/>
<path d="M478.68 132.2L576.43 33.72" stroke="#6E6079" stroke-width="1.5"/>
<path d="M453.82 228.36L555.73 172.8" stroke="#6E6079" stroke-width="1.5"/>
<path d="M453.82 228.36L570.71 275.07" stroke="#6E6079" stroke-width="1.5"/>
<path d="M453.82 228.36L450.32 366.5" stroke="#6E6079" stroke-width="1.5"/>
<path d="M453.82 228.36L345.62 341.57" stroke="#6E6079" stroke-width="1.5"/>
<path d="M450.32 366.5L576.52 350.94" stroke="#6E6079" stroke-width="1.5"/>
<path d="M450.32 366.5L540.22 470.4" stroke="#6E6079" stroke-width="1.5"/>
<path d="M450.32 366.5L341 460.61" stroke="#6E6079" stroke-width="1.5"/>
<path d="M434.64 547.1L443.69 667.46" stroke="#6E6079" stroke-width="1.5"/>
<path d="M434.64 547.1L540.22 470.4" stroke="#6E6079" stroke-width="1.5"/>
<path d="M450.93 736.1L434.64 547.1" stroke="#6E6079" stroke-width="1.5"/>
<path d="M576.43 33.72L635.59 64.99" stroke="#6E6079" stroke-width="1.5"/>
<path d="M576.43 33.7201L646.62 -55.0599" stroke="#6E6079" stroke-width="1.5"/>
<path d="M576.43 33.72L670.41 132.25" stroke="#6E6079" stroke-width="1.5"/>
<path d="M576.43 33.72L555.73 172.8" stroke="#6E6079" stroke-width="1.5"/>
<path d="M555.73 172.8L570.71 275.07" stroke="#6E6079" stroke-width="1.5"/>
<path d="M555.73 172.8L644.89 242.11" stroke="#6E6079" stroke-width="1.5"/>
<path d="M555.73 172.8L670.41 132.25" stroke="#6E6079" stroke-width="1.5"/>
<path d="M570.71 275.07L576.52 350.94" stroke="#6E6079" stroke-width="1.5"/>
<path d="M570.71 275.07L644.89 242.11" stroke="#6E6079" stroke-width="1.5"/>
<path d="M570.71 275.07L633.92 355.42" stroke="#6E6079" stroke-width="1.5"/>
<path d="M576.52 350.94L633.92 355.42" stroke="#6E6079" stroke-width="1.5"/>
<path d="M576.52 350.94L540.22 470.4" stroke="#6E6079" stroke-width="1.5"/>
<path d="M540.22 470.4L573.16 580.87" stroke="#6E6079" stroke-width="1.5"/>
<path d="M573.16 580.87L649.32 560.53" stroke="#6E6079" stroke-width="1.5"/>
<path d="M573.16 580.87L562.41 681.43" stroke="#6E6079" stroke-width="1.5"/>
<path d="M635.59 64.99L670.41 132.25" stroke="#6E6079" stroke-width="1.5"/>
<path d="M670.41 132.25L741.27 159.08" stroke="#6E6079" stroke-width="1.5"/>
<path d="M670.41 132.25L740.92 61.5901" stroke="#6E6079" stroke-width="1.5"/>
<path d="M670.41 132.25L644.89 242.11" stroke="#6E6079" stroke-width="1.5"/>
<path d="M644.89 242.11L633.92 355.42" stroke="#6E6079" stroke-width="1.5"/>
<path d="M644.89 242.11L741.27 159.08" stroke="#6E6079" stroke-width="1.5"/>
<path d="M644.89 242.11L576.52 350.94" stroke="#6E6079" stroke-width="1.5"/>
<path d="M633.92 355.42L769.89 358.99" stroke="#6E6079" stroke-width="1.5"/>
<path d="M633.92 355.42L540.22 470.4" stroke="#6E6079" stroke-width="1.5"/>
<path d="M649.32 560.53L738.47 536.58" stroke="#6E6079" stroke-width="1.5"/>
<path d="M649.32 560.53L671.91 680.49" stroke="#6E6079" stroke-width="1.5"/>
<path d="M649.32 560.53L540.22 470.4" stroke="#6E6079" stroke-width="1.5"/>
<path d="M649.32 560.53L562.41 681.43" stroke="#6E6079" stroke-width="1.5"/>
<path d="M749.15 -60.1699L740.92 61.5901" stroke="#6E6079" stroke-width="1.5"/>
<path d="M740.92 61.5901L741.27 159.08" stroke="#6E6079" stroke-width="1.5"/>
<path d="M740.92 61.5901L635.59 64.9901" stroke="#6E6079" stroke-width="1.5"/>
<path d="M740.92 61.5901L842.2 129.02" stroke="#6E6079" stroke-width="1.5"/>
<path d="M740.92 61.5901L876.52 26.3801" stroke="#6E6079" stroke-width="1.5"/>
<path d="M741.27 159.08L774.92 252.25" stroke="#6E6079" stroke-width="1.5"/>
<path d="M741.27 159.08L842.2 129.02" stroke="#6E6079" stroke-width="1.5"/>
<path d="M741.27 159.08L847.93 238.58" stroke="#6E6079" stroke-width="1.5"/>
<path d="M774.92 252.25L847.93 238.58" stroke="#6E6079" stroke-width="1.5"/>
<path d="M774.92 252.25L769.89 358.99" stroke="#6E6079" stroke-width="1.5"/>
<path d="M769.89 358.99L875.95 342.28" stroke="#6E6079" stroke-width="1.5"/>
<path d="M769.89 358.99L776.52 466.64" stroke="#6E6079" stroke-width="1.5"/>
<path d="M769.89 358.99L841.82 448.03" stroke="#6E6079" stroke-width="1.5"/>
<path d="M776.52 466.64L841.82 448.03" stroke="#6E6079" stroke-width="1.5"/>
<path d="M776.52 466.64L738.47 536.58" stroke="#6E6079" stroke-width="1.5"/>
<path d="M776.52 466.64L871.22 543.07" stroke="#6E6079" stroke-width="1.5"/>
<path d="M776.52 466.64L649.32 560.53" stroke="#6E6079" stroke-width="1.5"/>
<path d="M776.52 466.64L875.95 342.28" stroke="#6E6079" stroke-width="1.5"/>
<path d="M738.47 536.58L871.22 543.07" stroke="#6E6079" stroke-width="1.5"/>
<path d="M738.47 536.58L841.82 448.03" stroke="#6E6079" stroke-width="1.5"/>
<path d="M738.47 536.58L780.01 679.99" stroke="#6E6079" stroke-width="1.5"/>
<path d="M738.47 536.58L847.65 643.66" stroke="#6E6079" stroke-width="1.5"/>
<path d="M838.26 -67.48L740.92 61.59" stroke="#6E6079" stroke-width="1.5"/>
<path d="M842.2 129.02L774.92 252.25" stroke="#6E6079" stroke-width="1.5"/>
<path d="M847.93 238.58L769.89 358.99" stroke="#6E6079" stroke-width="1.5"/>
<path d="M847.93 238.58L644.89 242.11" stroke="#6E6079" stroke-width="1.5"/>
<path d="M871.22 543.07L780.01 679.99" stroke="#6E6079" stroke-width="1.5"/>
<path d="M62.28 536.72C65.0415 536.72 67.28 534.481 67.28 531.72C67.28 528.959 65.0415 526.72 62.28 526.72C59.5186 526.72 57.28 528.959 57.28 531.72C57.28 534.481 59.5186 536.72 62.28 536.72Z" fill="#6E6079"/>
<path d="M160.09 458.01C162.851 458.01 165.09 455.771 165.09 453.01C165.09 450.249 162.851 448.01 160.09 448.01C157.329 448.01 155.09 450.249 155.09 453.01C155.09 455.771 157.329 458.01 160.09 458.01Z" fill="#6E6079"/>
<path d="M140.23 563.91C142.991 563.91 145.23 561.672 145.23 558.91C145.23 556.149 142.991 553.91 140.23 553.91C137.469 553.91 135.23 556.149 135.23 558.91C135.23 561.672 137.469 563.91 140.23 563.91Z" fill="#6E6079"/>
<path d="M269.72 354.92C272.481 354.92 274.72 352.681 274.72 349.92C274.72 347.158 272.481 344.92 269.72 344.92C266.959 344.92 264.72 347.158 264.72 349.92C264.72 352.681 266.959 354.92 269.72 354.92Z" fill="#6E6079"/>
<path d="M237.7 562.99C240.461 562.99 242.7 560.751 242.7 557.99C242.7 555.229 240.461 552.99 237.7 552.99C234.939 552.99 232.7 555.229 232.7 557.99C232.7 560.751 234.939 562.99 237.7 562.99Z" fill="#6E6079"/>
<path d="M345.62 346.57C348.382 346.57 350.62 344.331 350.62 341.57C350.62 338.809 348.382 336.57 345.62 336.57C342.859 336.57 340.62 338.809 340.62 341.57C340.62 344.331 342.859 346.57 345.62 346.57Z" fill="#6E6079"/>
<path d="M341 465.61C343.761 465.61 346 463.372 346 460.61C346 457.849 343.761 455.61 341 455.61C338.239 455.61 336 457.849 336 460.61C336 463.372 338.239 465.61 341 465.61Z" fill="#6E6079"/>
<path d="M358.38 544.51C361.141 544.51 363.38 542.271 363.38 539.51C363.38 536.749 361.141 534.51 358.38 534.51C355.618 534.51 353.38 536.749 353.38 539.51C353.38 542.271 355.618 544.51 358.38 544.51Z" fill="#6E6079"/>
<path d="M478.68 137.2C481.441 137.2 483.68 134.961 483.68 132.2C483.68 129.439 481.441 127.2 478.68 127.2C475.919 127.2 473.68 129.439 473.68 132.2C473.68 134.961 475.919 137.2 478.68 137.2Z" fill="#6E6079"/>
<path d="M453.82 233.36C456.581 233.36 458.82 231.122 458.82 228.36C458.82 225.599 456.581 223.36 453.82 223.36C451.059 223.36 448.82 225.599 448.82 228.36C448.82 231.122 451.059 233.36 453.82 233.36Z" fill="#6E6079"/>
<path d="M450.32 371.5C453.081 371.5 455.32 369.261 455.32 366.5C455.32 363.739 453.081 361.5 450.32 361.5C447.559 361.5 445.32 363.739 445.32 366.5C445.32 369.261 447.559 371.5 450.32 371.5Z" fill="#6E6079"/>
<path d="M434.64 552.1C437.402 552.1 439.64 549.862 439.64 547.1C439.64 544.339 437.402 542.1 434.64 542.1C431.879 542.1 429.64 544.339 429.64 547.1C429.64 549.862 431.879 552.1 434.64 552.1Z" fill="#6E6079"/>
<path d="M576.43 38.72C579.191 38.72 581.43 36.4814 581.43 33.72C581.43 30.9585 579.191 28.72 576.43 28.72C573.669 28.72 571.43 30.9585 571.43 33.72C571.43 36.4814 573.669 38.72 576.43 38.72Z" fill="#6E6079"/>
<path d="M555.73 177.8C558.491 177.8 560.73 175.561 560.73 172.8C560.73 170.039 558.491 167.8 555.73 167.8C552.969 167.8 550.73 170.039 550.73 172.8C550.73 175.561 552.969 177.8 555.73 177.8Z" fill="#6E6079"/>
<path d="M570.71 280.07C573.471 280.07 575.71 277.831 575.71 275.07C575.71 272.309 573.471 270.07 570.71 270.07C567.949 270.07 565.71 272.309 565.71 275.07C565.71 277.831 567.949 280.07 570.71 280.07Z" fill="#6E6079"/>
<path d="M576.52 355.94C579.281 355.94 581.52 353.701 581.52 350.94C581.52 348.179 579.281 345.94 576.52 345.94C573.759 345.94 571.52 348.179 571.52 350.94C571.52 353.701 573.759 355.94 576.52 355.94Z" fill="#6E6079"/>
<path d="M540.22 475.4C542.981 475.4 545.22 473.161 545.22 470.4C545.22 467.638 542.981 465.4 540.22 465.4C537.459 465.4 535.22 467.638 535.22 470.4C535.22 473.161 537.459 475.4 540.22 475.4Z" fill="#6E6079"/>
<path d="M573.16 585.87C575.921 585.87 578.16 583.632 578.16 580.87C578.16 578.109 575.921 575.87 573.16 575.87C570.398 575.87 568.16 578.109 568.16 580.87C568.16 583.632 570.398 585.87 573.16 585.87Z" fill="#6E6079"/>
<path d="M635.59 69.99C638.352 69.99 640.59 67.7514 640.59 64.99C640.59 62.2286 638.352 59.99 635.59 59.99C632.829 59.99 630.59 62.2286 630.59 64.99C630.59 67.7514 632.829 69.99 635.59 69.99Z" fill="#6E6079"/>
<path d="M670.41 137.25C673.171 137.25 675.41 135.011 675.41 132.25C675.41 129.489 673.171 127.25 670.41 127.25C667.648 127.25 665.41 129.489 665.41 132.25C665.41 135.011 667.648 137.25 670.41 137.25Z" fill="#6E6079"/>
<path d="M644.89 247.11C647.652 247.11 649.89 244.872 649.89 242.11C649.89 239.349 647.652 237.11 644.89 237.11C642.129 237.11 639.89 239.349 639.89 242.11C639.89 244.872 642.129 247.11 644.89 247.11Z" fill="#6E6079"/>
<path d="M633.92 360.42C636.681 360.42 638.92 358.181 638.92 355.42C638.92 352.658 636.681 350.42 633.92 350.42C631.158 350.42 628.92 352.658 628.92 355.42C628.92 358.181 631.158 360.42 633.92 360.42Z" fill="#6E6079"/>
<path d="M649.32 565.53C652.081 565.53 654.32 563.291 654.32 560.53C654.32 557.769 652.081 555.53 649.32 555.53C646.559 555.53 644.32 557.769 644.32 560.53C644.32 563.291 646.559 565.53 649.32 565.53Z" fill="#6E6079"/>
<path d="M740.92 66.5901C743.681 66.5901 745.92 64.3515 745.92 61.5901C745.92 58.8287 743.681 56.5901 740.92 56.5901C738.158 56.5901 735.92 58.8287 735.92 61.5901C735.92 64.3515 738.158 66.5901 740.92 66.5901Z" fill="#6E6079"/>
<path d="M741.27 164.08C744.031 164.08 746.27 161.842 746.27 159.08C746.27 156.319 744.031 154.08 741.27 154.08C738.509 154.08 736.27 156.319 736.27 159.08C736.27 161.842 738.509 164.08 741.27 164.08Z" fill="#6E6079"/>
<path d="M774.92 257.25C777.681 257.25 779.92 255.011 779.92 252.25C779.92 249.489 777.681 247.25 774.92 247.25C772.158 247.25 769.92 249.489 769.92 252.25C769.92 255.011 772.158 257.25 774.92 257.25Z" fill="#6E6079"/>
<path d="M769.89 363.99C772.652 363.99 774.89 361.751 774.89 358.99C774.89 356.229 772.652 353.99 769.89 353.99C767.129 353.99 764.89 356.229 764.89 358.99C764.89 361.751 767.129 363.99 769.89 363.99Z" fill="#6E6079"/>
<path d="M776.52 471.64C779.281 471.64 781.52 469.402 781.52 466.64C781.52 463.879 779.281 461.64 776.52 461.64C773.759 461.64 771.52 463.879 771.52 466.64C771.52 469.402 773.759 471.64 776.52 471.64Z" fill="#6E6079"/>
<path d="M738.47 541.58C741.231 541.58 743.47 539.342 743.47 536.58C743.47 533.819 741.231 531.58 738.47 531.58C735.709 531.58 733.47 533.819 733.47 536.58C733.47 539.342 735.709 541.58 738.47 541.58Z" fill="#6E6079"/>
<path d="M65.9 565.22L74.1 646.07" stroke="#8F809A" stroke-width="1.5"/>
<path d="M65.8999 565.22L-30.1801 555.21" stroke="#8F809A" stroke-width="1.5"/>
<path d="M65.9 565.22L160.44 655.79" stroke="#8F809A" stroke-width="1.5"/>
<path d="M543.54 461.58L476.88 433.83" stroke="#8F809A" stroke-width="1.5"/>
<path d="M543.54 461.58L553.5 373.91" stroke="#8F809A" stroke-width="1.5"/>
<path d="M543.54 461.58L575.18 560.19" stroke="#8F809A" stroke-width="1.5"/>
<path d="M543.54 461.58L648.95 467.92" stroke="#8F809A" stroke-width="1.5"/>
<path d="M543.54 461.58L469.56 371.54" stroke="#8F809A" stroke-width="1.5"/>
<path d="M575.18 560.19L458.38 547.95" stroke="#8F809A" stroke-width="1.5"/>
<path d="M575.18 560.19L648.95 467.92" stroke="#8F809A" stroke-width="1.5"/>
<path d="M575.18 560.19L543.36 676.92" stroke="#8F809A" stroke-width="1.5"/>
<path d="M575.18 560.19L476.88 433.83" stroke="#8F809A" stroke-width="1.5"/>
<path d="M654.79 163.61L661.77 239.9" stroke="#8F809A" stroke-width="1.5"/>
<path d="M654.79 163.61L648.93 68.21" stroke="#8F809A" stroke-width="1.5"/>
<path d="M779.31 61.56L844.02 49.97" stroke="#8F809A" stroke-width="1.5"/>
<path d="M779.31 61.5601L755.11 148.56" stroke="#8F809A" stroke-width="1.5"/>
<path d="M779.31 61.5601L742.47 -52.9099" stroke="#8F809A" stroke-width="1.5"/>
<path d="M779.31 61.5601L648.93 68.2101" stroke="#8F809A" stroke-width="1.5"/>
<path d="M736.08 230.31L661.77 239.9" stroke="#8F809A" stroke-width="1.5"/>
<path d="M736.08 230.31L755.11 148.56" stroke="#8F809A" stroke-width="1.5"/>
<path d="M736.08 230.31L654.79 163.61" stroke="#8F809A" stroke-width="1.5"/>
<path d="M736.08 230.31L846.37 272.4" stroke="#8F809A" stroke-width="1.5"/>
<path d="M879.62 369.26L759.06 374.22" stroke="#8F809A" stroke-width="1.5"/>
<path d="M883.32 558.64L764.68 557.09" stroke="#8F809A" stroke-width="1.5"/>
<path d="M880.16 783.37L764.68 557.09" stroke="#8F809A" stroke-width="1.5"/>
<path d="M-30.1801 555.21L74.0999 646.07" stroke="#8F809A" stroke-width="1.5"/>
<path d="M-58.2 645.58L65.9001 565.22" stroke="#8F809A" stroke-width="1.5"/>
<path d="M56.6899 755.48L65.8999 565.22" stroke="#8F809A" stroke-width="1.5"/>
<path d="M235.82 554.97L333.14 538.74" stroke="#8F809A" stroke-width="1.5"/>
<path d="M235.82 554.97L160.44 655.79" stroke="#8F809A" stroke-width="1.5"/>
<path d="M235.82 554.97L353.79 668.07" stroke="#8F809A" stroke-width="1.5"/>
<path d="M235.82 554.97L65.9 565.22" stroke="#8F809A" stroke-width="1.5"/>
<path d="M370.51 443.85L333.14 538.74" stroke="#8F809A" stroke-width="1.5"/>
<path d="M370.51 443.85L476.88 433.83" stroke="#8F809A" stroke-width="1.5"/>
<path d="M333.14 538.74L458.38 547.95" stroke="#8F809A" stroke-width="1.5"/>
<path d="M333.14 538.74L353.79 668.07" stroke="#8F809A" stroke-width="1.5"/>
<path d="M333.14 538.74L436.69 641.44" stroke="#8F809A" stroke-width="1.5"/>
<path d="M333.14 538.74L476.88 433.83" stroke="#8F809A" stroke-width="1.5"/>
<path d="M353.79 668.07L458.38 547.95" stroke="#8F809A" stroke-width="1.5"/>
<path d="M469.56 371.54L476.88 433.83" stroke="#8F809A" stroke-width="1.5"/>
<path d="M469.56 371.54L553.5 373.91" stroke="#8F809A" stroke-width="1.5"/>
<path d="M469.56 371.54L370.51 443.85" stroke="#8F809A" stroke-width="1.5"/>
<path d="M469.56 371.54L555.53 270.74" stroke="#8F809A" stroke-width="1.5"/>
<path d="M469.56 371.54L458.38 547.95" stroke="#8F809A" stroke-width="1.5"/>
<path d="M476.88 433.83L553.5 373.91" stroke="#8F809A" stroke-width="1.5"/>
<path d="M476.88 433.83L458.38 547.95" stroke="#8F809A" stroke-width="1.5"/>
<path d="M458.38 547.95L436.69 641.44" stroke="#8F809A" stroke-width="1.5"/>
<path d="M555.53 270.74L553.5 373.91" stroke="#8F809A" stroke-width="1.5"/>
<path d="M555.53 270.74L661.77 239.9" stroke="#8F809A" stroke-width="1.5"/>
<path d="M555.53 270.74L653.59 370.03" stroke="#8F809A" stroke-width="1.5"/>
<path d="M555.53 270.74L654.79 163.61" stroke="#8F809A" stroke-width="1.5"/>
<path d="M555.53 270.74L476.88 433.83" stroke="#8F809A" stroke-width="1.5"/>
<path d="M652.34 -74.7L648.93 68.2101" stroke="#8F809A" stroke-width="1.5"/>
<path d="M648.93 68.21L755.11 148.56" stroke="#8F809A" stroke-width="1.5"/>
<path d="M661.77 239.9L653.59 370.03" stroke="#8F809A" stroke-width="1.5"/>
<path d="M661.77 239.9L755.11 148.56" stroke="#8F809A" stroke-width="1.5"/>
<path d="M653.59 370.03L648.95 467.92" stroke="#8F809A" stroke-width="1.5"/>
<path d="M653.59 370.03L553.5 373.91" stroke="#8F809A" stroke-width="1.5"/>
<path d="M653.59 370.03L759.06 374.22" stroke="#8F809A" stroke-width="1.5"/>
<path d="M653.59 370.03L748.74 442.43" stroke="#8F809A" stroke-width="1.5"/>
<path d="M648.95 467.92L748.74 442.43" stroke="#8F809A" stroke-width="1.5"/>
<path d="M755.11 148.56L654.79 163.61" stroke="#8F809A" stroke-width="1.5"/>
<path d="M755.11 148.56L878.62 163.82" stroke="#8F809A" stroke-width="1.5"/>
<path d="M759.06 374.22L748.74 442.43" stroke="#8F809A" stroke-width="1.5"/>
<path d="M759.06 374.22L878.91 430.23" stroke="#8F809A" stroke-width="1.5"/>
<path d="M748.74 442.43L764.68 557.09" stroke="#8F809A" stroke-width="1.5"/>
<path d="M748.74 442.43L878.91 430.23" stroke="#8F809A" stroke-width="1.5"/>
<path d="M748.74 442.43L879.62 369.26" stroke="#8F809A" stroke-width="1.5"/>
<path d="M764.68 557.09L772.34 651.85" stroke="#8F809A" stroke-width="1.5"/>
<path d="M764.68 557.09L854.03 652.24" stroke="#8F809A" stroke-width="1.5"/>
<path d="M764.68 557.09L648.95 467.92" stroke="#8F809A" stroke-width="1.5"/>
<path d="M764.68 557.09L878.91 430.23" stroke="#8F809A" stroke-width="1.5"/>
<path d="M875.1 -69.59L779.31 61.56" stroke="#8F809A" stroke-width="1.5"/>
<path d="M846.37 272.4L759.06 374.22" stroke="#8F809A" stroke-width="1.5"/>
<path d="M846.37 272.4L755.11 148.56" stroke="#8F809A" stroke-width="1.5"/>
<path d="M65.9 590.22C79.7071 590.22 90.9 579.027 90.9 565.22C90.9 551.413 79.7071 540.22 65.9 540.22C52.0929 540.22 40.9 551.413 40.9 565.22C40.9 579.027 52.0929 590.22 65.9 590.22Z" fill="url(#paint1_radial_44_135)"/>
<path d="M74.1 671.07C87.9071 671.07 99.1 659.877 99.1 646.07C99.1 632.263 87.9071 621.07 74.1 621.07C60.2929 621.07 49.1 632.263 49.1 646.07C49.1 659.877 60.2929 671.07 74.1 671.07Z" fill="url(#paint2_radial_44_135)"/>
<path d="M160.44 680.79C174.247 680.79 185.44 669.597 185.44 655.79C185.44 641.983 174.247 630.79 160.44 630.79C146.633 630.79 135.44 641.983 135.44 655.79C135.44 669.597 146.633 680.79 160.44 680.79Z" fill="url(#paint3_radial_44_135)"/>
<path d="M543.54 486.58C557.347 486.58 568.54 475.387 568.54 461.58C568.54 447.773 557.347 436.58 543.54 436.58C529.733 436.58 518.54 447.773 518.54 461.58C518.54 475.387 529.733 486.58 543.54 486.58Z" fill="url(#paint4_radial_44_135)"/>
<path d="M575.18 585.19C588.987 585.19 600.18 573.997 600.18 560.19C600.18 546.383 588.987 535.19 575.18 535.19C561.373 535.19 550.18 546.383 550.18 560.19C550.18 573.997 561.373 585.19 575.18 585.19Z" fill="url(#paint5_radial_44_135)"/>
<path d="M654.79 188.61C668.597 188.61 679.79 177.417 679.79 163.61C679.79 149.803 668.597 138.61 654.79 138.61C640.983 138.61 629.79 149.803 629.79 163.61C629.79 177.417 640.983 188.61 654.79 188.61Z" fill="url(#paint6_radial_44_135)"/>
<path d="M779.31 86.5601C793.117 86.5601 804.31 75.3672 804.31 61.5601C804.31 47.7529 793.117 36.5601 779.31 36.5601C765.503 36.5601 754.31 47.7529 754.31 61.5601C754.31 75.3672 765.503 86.5601 779.31 86.5601Z" fill="url(#paint7_radial_44_135)"/>
<path d="M736.08 255.31C749.887 255.31 761.08 244.117 761.08 230.31C761.08 216.503 749.887 205.31 736.08 205.31C722.273 205.31 711.08 216.503 711.08 230.31C711.08 244.117 722.273 255.31 736.08 255.31Z" fill="url(#paint8_radial_44_135)"/>
<path d="M235.82 559.97C238.581 559.97 240.82 557.731 240.82 554.97C240.82 552.209 238.581 549.97 235.82 549.97C233.059 549.97 230.82 552.209 230.82 554.97C230.82 557.731 233.059 559.97 235.82 559.97Z" fill="#B7B0BC"/>
<path d="M370.51 448.85C373.271 448.85 375.51 446.612 375.51 443.85C375.51 441.089 373.271 438.85 370.51 438.85C367.749 438.85 365.51 441.089 365.51 443.85C365.51 446.612 367.749 448.85 370.51 448.85Z" fill="#B7B0BC"/>
<path d="M333.14 543.74C335.901 543.74 338.14 541.501 338.14 538.74C338.14 535.979 335.901 533.74 333.14 533.74C330.379 533.74 328.14 535.979 328.14 538.74C328.14 541.501 330.379 543.74 333.14 543.74Z" fill="#B7B0BC"/>
<path d="M469.56 376.54C472.321 376.54 474.56 374.301 474.56 371.54C474.56 368.779 472.321 366.54 469.56 366.54C466.799 366.54 464.56 368.779 464.56 371.54C464.56 374.301 466.799 376.54 469.56 376.54Z" fill="#B7B0BC"/>
<path d="M476.88 438.83C479.641 438.83 481.88 436.592 481.88 433.83C481.88 431.069 479.641 428.83 476.88 428.83C474.118 428.83 471.88 431.069 471.88 433.83C471.88 436.592 474.118 438.83 476.88 438.83Z" fill="#B7B0BC"/>
<path d="M458.38 552.95C461.141 552.95 463.38 550.712 463.38 547.95C463.38 545.189 461.141 542.95 458.38 542.95C455.618 542.95 453.38 545.189 453.38 547.95C453.38 550.712 455.618 552.95 458.38 552.95Z" fill="#B7B0BC"/>
<path d="M555.53 275.74C558.291 275.74 560.53 273.501 560.53 270.74C560.53 267.979 558.291 265.74 555.53 265.74C552.769 265.74 550.53 267.979 550.53 270.74C550.53 273.501 552.769 275.74 555.53 275.74Z" fill="#B7B0BC"/>
<path d="M553.5 378.91C556.261 378.91 558.5 376.672 558.5 373.91C558.5 371.149 556.261 368.91 553.5 368.91C550.739 368.91 548.5 371.149 548.5 373.91C548.5 376.672 550.739 378.91 553.5 378.91Z" fill="#B7B0BC"/>
<path d="M648.93 73.21C651.691 73.21 653.93 70.9714 653.93 68.21C653.93 65.4485 651.691 63.21 648.93 63.21C646.169 63.21 643.93 65.4485 643.93 68.21C643.93 70.9714 646.169 73.21 648.93 73.21Z" fill="#B7B0BC"/>
<path d="M661.77 244.9C664.531 244.9 666.77 242.661 666.77 239.9C666.77 237.138 664.531 234.9 661.77 234.9C659.009 234.9 656.77 237.138 656.77 239.9C656.77 242.661 659.009 244.9 661.77 244.9Z" fill="#B7B0BC"/>
<path d="M653.59 375.03C656.352 375.03 658.59 372.791 658.59 370.03C658.59 367.269 656.352 365.03 653.59 365.03C650.829 365.03 648.59 367.269 648.59 370.03C648.59 372.791 650.829 375.03 653.59 375.03Z" fill="#B7B0BC"/>
<path d="M648.95 472.92C651.711 472.92 653.95 470.681 653.95 467.92C653.95 465.158 651.711 462.92 648.95 462.92C646.189 462.92 643.95 465.158 643.95 467.92C643.95 470.681 646.189 472.92 648.95 472.92Z" fill="#B7B0BC"/>
<path d="M755.11 153.56C757.871 153.56 760.11 151.321 760.11 148.56C760.11 145.799 757.871 143.56 755.11 143.56C752.348 143.56 750.11 145.799 750.11 148.56C750.11 151.321 752.348 153.56 755.11 153.56Z" fill="#B7B0BC"/>
<path d="M759.06 379.22C761.821 379.22 764.06 376.981 764.06 374.22C764.06 371.459 761.821 369.22 759.06 369.22C756.299 369.22 754.06 371.459 754.06 374.22C754.06 376.981 756.299 379.22 759.06 379.22Z" fill="#B7B0BC"/>
<path d="M748.74 447.43C751.501 447.43 753.74 445.192 753.74 442.43C753.74 439.669 751.501 437.43 748.74 437.43C745.979 437.43 743.74 439.669 743.74 442.43C743.74 445.192 745.979 447.43 748.74 447.43Z" fill="#B7B0BC"/>
<path d="M764.68 562.09C767.441 562.09 769.68 559.852 769.68 557.09C769.68 554.329 767.441 552.09 764.68 552.09C761.919 552.09 759.68 554.329 759.68 557.09C759.68 559.852 761.919 562.09 764.68 562.09Z" fill="#B7B0BC"/>
</g>
</g>
</g>
<defs>
<linearGradient id="paint0_linear_44_135" x1="0" y1="0" x2="808" y2="644.5" gradientUnits="userSpaceOnUse">
<stop offset="0.489019" stop-color="#6E6079" stop-opacity="0.4"/>
<stop offset="0.844975" stop-color="#4A3857"/>
</linearGradient>
<radialGradient id="paint1_radial_44_135" cx="0" cy="0" r="1" gradientUnits="userSpaceOnUse" gradientTransform="translate(65.9 565.22) scale(25)">
<stop offset="0.1" stop-color="white"/>
<stop offset="0.2" stop-color="#6E6079"/>
<stop offset="1" stop-color="#6E6079" stop-opacity="0"/>
</radialGradient>
<radialGradient id="paint2_radial_44_135" cx="0" cy="0" r="1" gradientUnits="userSpaceOnUse" gradientTransform="translate(74.1 646.07) scale(25)">
<stop offset="0.1" stop-color="white"/>
<stop offset="0.2" stop-color="#6E6079"/>
<stop offset="1" stop-color="#6E6079" stop-opacity="0"/>
</radialGradient>
<radialGradient id="paint3_radial_44_135" cx="0" cy="0" r="1" gradientUnits="userSpaceOnUse" gradientTransform="translate(160.44 655.79) scale(25)">
<stop offset="0.1" stop-color="white"/>
<stop offset="0.2" stop-color="#6E6079"/>
<stop offset="1" stop-color="#6E6079" stop-opacity="0"/>
</radialGradient>
<radialGradient id="paint4_radial_44_135" cx="0" cy="0" r="1" gradientUnits="userSpaceOnUse" gradientTransform="translate(543.54 461.58) scale(25)">
<stop offset="0.1" stop-color="white"/>
<stop offset="0.2" stop-color="#6E6079"/>
<stop offset="1" stop-color="#6E6079" stop-opacity="0"/>
</radialGradient>
<radialGradient id="paint5_radial_44_135" cx="0" cy="0" r="1" gradientUnits="userSpaceOnUse" gradientTransform="translate(575.18 560.19) scale(25)">
<stop offset="0.1" stop-color="white"/>
<stop offset="0.2" stop-color="#6E6079"/>
<stop offset="1" stop-color="#6E6079" stop-opacity="0"/>
</radialGradient>
<radialGradient id="paint6_radial_44_135" cx="0" cy="0" r="1" gradientUnits="userSpaceOnUse" gradientTransform="translate(654.79 163.61) scale(25)">
<stop offset="0.1" stop-color="white"/>
<stop offset="0.2" stop-color="#6E6079"/>
<stop offset="1" stop-color="#6E6079" stop-opacity="0"/>
</radialGradient>
<radialGradient id="paint7_radial_44_135" cx="0" cy="0" r="1" gradientUnits="userSpaceOnUse" gradientTransform="translate(779.31 61.5601) scale(25 25)">
<stop offset="0.1" stop-color="white"/>
<stop offset="0.2" stop-color="#6E6079"/>
<stop offset="1" stop-color="#6E6079" stop-opacity="0"/>
</radialGradient>
<radialGradient id="paint8_radial_44_135" cx="0" cy="0" r="1" gradientUnits="userSpaceOnUse" gradientTransform="translate(736.08 230.31) scale(25)">
<stop offset="0.1" stop-color="white"/>
<stop offset="0.2" stop-color="#6E6079"/>
<stop offset="1" stop-color="#6E6079" stop-opacity="0"/>
</radialGradient>
<clipPath id="clip0_44_135">
<rect width="808" height="632" fill="white" transform="translate(0 0.75)"/>
</clipPath>
<clipPath id="clip1_44_135">
<rect width="808" height="632" fill="white" transform="translate(0 0.75)"/>
</clipPath>
</defs>
</svg>
