<svg width="254" height="70" viewBox="0 0 254 70" fill="none" xmlns="http://www.w3.org/2000/svg">
<path d="M31.6303 7.105C35.3669 7.105 38.6919 7.42166 41.6053 8.055C44.5186 8.68833 47.1469 9.54333 49.4903 10.62L46.7353 19.455C44.5186 18.3783 42.2386 17.5867 39.8953 17.08C37.5519 16.5733 35.2403 16.32 32.9603 16.32C30.3636 16.32 27.8936 16.7317 25.5503 17.555C23.2703 18.3783 21.2753 19.6767 19.5653 21.45C17.8553 23.2233 16.4936 25.5033 15.4803 28.29C14.4669 31.0133 13.9603 34.3067 13.9603 38.17C13.9603 45.0733 15.4803 50.3933 18.5203 54.13C21.6236 57.8033 26.0253 59.64 31.7253 59.64C35.0186 59.64 37.4886 59.3233 39.1353 58.69V44.725H29.2553V35.035H51.5803V65.34C49.1103 66.4167 46.2286 67.3033 42.9353 68C39.6419 68.6967 35.8736 69.045 31.6303 69.045C27.1969 69.045 23.0486 68.38 19.1853 67.05C15.3853 65.72 12.0603 63.7567 9.21025 61.16C6.42359 58.5 4.20692 55.27 2.56025 51.47C0.976921 47.6067 0.185254 43.1733 0.185254 38.17C0.185254 33.1667 0.976921 28.7333 2.56025 24.87C4.20692 20.9433 6.42359 17.6817 9.21025 15.085C11.9969 12.4883 15.2903 10.525 19.0903 9.195C22.9536 7.80166 27.1336 7.105 31.6303 7.105ZM62.6819 8.14999H75.6969V43.965C75.6969 48.905 76.6786 52.6733 78.6419 55.27C80.6686 57.8033 83.7719 59.07 87.9519 59.07C92.0686 59.07 95.0452 57.7717 96.8819 55.175C98.7186 52.5783 99.6369 49.2217 99.6369 45.105V8.14999H112.652V44.155C112.652 52.515 110.562 58.7533 106.382 62.87C102.265 66.9867 96.1219 69.045 87.9519 69.045C80.0986 69.045 73.9236 66.9867 69.4269 62.87C64.9302 58.7533 62.6819 52.3567 62.6819 43.68V8.14999ZM125.87 68V22.685H138.505V68H125.87ZM132.235 12.995C130.081 12.995 128.403 12.3933 127.2 11.19C125.996 9.92333 125.395 8.37166 125.395 6.535C125.395 4.69833 125.996 3.17833 127.2 1.975C128.403 0.70833 130.081 0.0749968 132.235 0.0749968C134.325 0.0749968 135.971 0.70833 137.175 1.975C138.441 3.17833 139.075 4.69833 139.075 6.535C139.075 8.37166 138.473 9.92333 137.27 11.19C136.066 12.3933 134.388 12.995 132.235 12.995ZM172.834 8.14999C177.458 8.14999 181.669 8.75166 185.469 9.955C189.269 11.1583 192.531 12.9633 195.254 15.37C197.978 17.7767 200.068 20.785 201.524 24.395C203.044 27.9417 203.804 32.09 203.804 36.84C203.804 42.2867 202.918 46.9733 201.144 50.9C199.371 54.7633 196.964 57.9933 193.924 60.59C190.884 63.1233 187.306 64.9917 183.189 66.195C179.136 67.3983 174.829 68 170.269 68H151.934V8.14999H172.834ZM164.949 57.93H169.414C172.074 57.93 174.639 57.6133 177.109 56.98C179.643 56.2833 181.859 55.1433 183.759 53.56C185.659 51.9133 187.179 49.76 188.319 47.1C189.459 44.3767 190.029 40.9567 190.029 36.84C190.029 30.8233 188.319 26.2317 184.899 23.065C181.479 19.835 176.888 18.22 171.124 18.22H164.949V57.93ZM214.093 8.14999H253.043V18.22H227.108V31.9H250.573V41.875H227.108V57.93H253.328V68H214.093V8.14999Z" fill="#2C2234"/>
</svg>
